<svg width="56" height="56" viewBox="0 0 56 56" fill="none" xmlns="http://www.w3.org/2000/svg">
<path d="M40.8333 49H21C17.971 48.9993 15.0019 48.1562 12.4245 46.5651C9.84704 44.974 7.76281 42.6976 6.4047 39.9901C5.04658 37.2827 4.46808 34.2509 4.73385 31.2336C4.99961 28.2163 6.09917 25.3324 7.90964 22.904C9.72012 20.4756 12.1702 18.5986 14.9861 17.4825C17.8019 16.3665 20.8727 16.0554 23.8552 16.5841C26.8377 17.1128 29.6144 18.4605 31.875 20.4765C34.1357 22.4924 35.7912 25.0973 36.6567 28H40.8333C42.2122 28 43.5776 28.2716 44.8515 28.7993C46.1254 29.327 47.2829 30.1004 48.258 31.0754C49.233 32.0504 50.0064 33.208 50.5341 34.4819C51.0617 35.7558 51.3333 37.1212 51.3333 38.5C51.3333 39.8789 51.0617 41.2443 50.5341 42.5182C50.0064 43.7921 49.233 44.9497 48.258 45.9247C47.2829 46.8997 46.1254 47.6731 44.8515 48.2008C43.5776 48.7285 42.2122 49 40.8333 49Z" stroke="white" stroke-width="4" stroke-linecap="round" stroke-linejoin="round"/>
<path d="M51.3333 23.3333C51.3333 21.4768 50.5958 19.6964 49.2831 18.3836C47.9703 17.0708 46.1899 16.3333 44.3333 16.3333H39.1837C38.3921 13.5481 36.6822 11.1123 34.3316 9.42138C31.9811 7.73049 29.128 6.88387 26.2356 7.019C23.3432 7.15413 20.5814 8.26308 18.3988 10.1658C16.2161 12.0684 14.7408 14.6531 14.2123 17.5" stroke="white" stroke-width="4" stroke-linecap="round" stroke-linejoin="round"/>
</svg>
