<svg width="56" height="56" viewBox="0 0 56 56" fill="none" xmlns="http://www.w3.org/2000/svg">
<path d="M9.33333 23.3333V9.33329C9.33333 8.09562 9.825 6.90863 10.7002 6.03346C11.5753 5.15829 12.7623 4.66663 14 4.66663H33.8333L46.6667 17.5V46.6666C46.6667 47.9043 46.175 49.0913 45.2998 49.9665C44.4247 50.8416 43.2377 51.3333 42 51.3333H9.33333" stroke="white" stroke-width="4" stroke-linecap="round" stroke-linejoin="round"/>
<path d="M32.6667 4.66663V18.6666H46.6667" stroke="white" stroke-width="4" stroke-linecap="round" stroke-linejoin="round"/>
<path d="M9.33333 42C11.9107 42 14 39.9106 14 37.3333C14 34.756 11.9107 32.6666 9.33333 32.6666C6.75601 32.6666 4.66667 34.756 4.66667 37.3333C4.66667 39.9106 6.75601 42 9.33333 42Z" stroke="white" stroke-width="4" stroke-linecap="round" stroke-linejoin="round"/>
<path d="M23.3333 23.3334L12.8333 33.8334" stroke="white" stroke-width="4" stroke-linecap="round" stroke-linejoin="round"/>
<path d="M21 25.6666L23.3333 28" stroke="white" stroke-width="4" stroke-linecap="round" stroke-linejoin="round"/>
</svg>
