<svg xmlns="http://www.w3.org/2000/svg" width="40" height="36" viewBox="0 0 40 36" fill="none"><g clip-path="url(#clip0_1745_20005)"><path d="M1.35 17.75C1.35 14.31 2.01 11.6 3.33 9.62C4.67 7.64 6.82 6.65 9.78 6.65C12.74 6.65 14.88 7.64 16.2 9.62C17.54 11.6 18.21 14.31 18.21 17.75C18.21 21.23 17.54 23.96 16.2 25.94C14.88 27.92 12.74 28.91 9.78 28.91C6.82 28.91 4.67 27.92 3.33 25.94C2.01 23.96 1.35 21.23 1.35 17.75ZM13.17 17.75C13.17 15.73 12.95 14.18 12.51 13.1C12.07 12 11.16 11.45 9.78 11.45C8.4 11.45 7.49 12 7.05 13.1C6.61 14.18 6.39 15.73 6.39 17.75C6.39 19.11 6.47 20.24 6.63 21.14C6.79 22.02 7.11 22.74 7.59 23.3C8.09 23.84 8.82 24.11 9.78 24.11C10.74 24.11 11.46 23.84 11.94 23.3C12.44 22.74 12.77 22.02 12.93 21.14C13.09 20.24 13.17 19.11 13.17 17.75ZM24.5203 17.24C22.6403 16.24 21.7003 14.67 21.7003 12.53C21.7003 11.45 21.9803 10.47 22.5403 9.59C23.1003 8.69 23.9503 7.98 25.0903 7.46C26.2303 6.92 27.6303 6.65 29.2903 6.65C30.9503 6.65 32.3403 6.92 33.4603 7.46C34.6003 7.98 35.4503 8.69 36.0103 9.59C36.5703 10.47 36.8503 11.45 36.8503 12.53C36.8503 13.61 36.5903 14.55 36.0703 15.35C35.5703 16.15 34.8903 16.78 34.0303 17.24C35.1103 17.76 35.9403 18.48 36.5203 19.4C37.1003 20.3 37.3903 21.36 37.3903 22.58C37.3903 24 37.0303 25.23 36.3103 26.27C35.5903 27.29 34.6103 28.07 33.3703 28.61C32.1503 29.15 30.7903 29.42 29.2903 29.42C27.7903 29.42 26.4203 29.15 25.1803 28.61C23.9603 28.07 22.9903 27.29 22.2703 26.27C21.5503 25.23 21.1903 24 21.1903 22.58C21.1903 21.34 21.4803 20.27 22.0603 19.37C22.6403 18.45 23.4603 17.74 24.5203 17.24ZM31.8703 13.31C31.8703 12.49 31.6303 11.86 31.1503 11.42C30.6903 10.96 30.0703 10.73 29.2903 10.73C28.5103 10.73 27.8803 10.96 27.4003 11.42C26.9403 11.88 26.7103 12.52 26.7103 13.34C26.7103 14.12 26.9503 14.74 27.4303 15.2C27.9103 15.64 28.5303 15.86 29.2903 15.86C30.0503 15.86 30.6703 15.63 31.1503 15.17C31.6303 14.71 31.8703 14.09 31.8703 13.31ZM29.2903 19.46C28.3503 19.46 27.5903 19.72 27.0103 20.24C26.4303 20.74 26.1403 21.44 26.1403 22.34C26.1403 23.18 26.4203 23.87 26.9803 24.41C27.5603 24.95 28.3303 25.22 29.2903 25.22C30.2503 25.22 31.0003 24.95 31.5403 24.41C32.1003 23.87 32.3803 23.18 32.3803 22.34C32.3803 21.46 32.0903 20.76 31.5103 20.24C30.9503 19.72 30.2103 19.46 29.2903 19.46Z" fill="#2F4445" fill-opacity="0.8"></path></g><defs><clipPath id="clip0_1745_20005"><rect width="40" height="36" fill="white"></rect></clipPath></defs></svg>