<svg xmlns="http://www.w3.org/2000/svg" width="40" height="36" viewBox="0 0 40 36" fill="none"><path d="M1.35 17.75C1.35 14.31 2.01 11.6 3.33 9.62C4.67 7.64 6.82 6.65 9.78 6.65C12.74 6.65 14.88 7.64 16.2 9.62C17.54 11.6 18.21 14.31 18.21 17.75C18.21 21.23 17.54 23.96 16.2 25.94C14.88 27.92 12.74 28.91 9.78 28.91C6.82 28.91 4.67 27.92 3.33 25.94C2.01 23.96 1.35 21.23 1.35 17.75ZM13.17 17.75C13.17 15.73 12.95 14.18 12.51 13.1C12.07 12 11.16 11.45 9.78 11.45C8.4 11.45 7.49 12 7.05 13.1C6.61 14.18 6.39 15.73 6.39 17.75C6.39 19.11 6.47 20.24 6.63 21.14C6.79 22.02 7.11 22.74 7.59 23.3C8.09 23.84 8.82 24.11 9.78 24.11C10.74 24.11 11.46 23.84 11.94 23.3C12.44 22.74 12.77 22.02 12.93 21.14C13.09 20.24 13.17 19.11 13.17 17.75ZM31.7503 13.01C31.5903 12.27 31.3103 11.72 30.9103 11.36C30.5103 10.98 29.9403 10.79 29.2003 10.79C28.0603 10.79 27.2403 11.29 26.7403 12.29C26.2403 13.27 25.9803 14.83 25.9603 16.97C26.4003 16.27 27.0303 15.72 27.8503 15.32C28.6903 14.92 29.6103 14.72 30.6103 14.72C32.5703 14.72 34.1403 15.34 35.3203 16.58C36.5203 17.82 37.1203 19.55 37.1203 21.77C37.1203 23.23 36.8203 24.51 36.2203 25.61C35.6403 26.71 34.7803 27.57 33.6403 28.19C32.5203 28.81 31.1903 29.12 29.6503 29.12C26.5703 29.12 24.4303 28.16 23.2303 26.24C22.0303 24.3 21.4303 21.52 21.4303 17.9C21.4303 14.1 22.0603 11.28 23.3203 9.44C24.6003 7.58 26.6403 6.65 29.4403 6.65C30.9403 6.65 32.2003 6.95 33.2203 7.55C34.2603 8.13 35.0403 8.9 35.5603 9.86C36.1003 10.82 36.4203 11.87 36.5203 13.01H31.7503ZM29.3803 18.77C28.5203 18.77 27.8003 19.03 27.2203 19.55C26.6603 20.05 26.3803 20.77 26.3803 21.71C26.3803 22.67 26.6403 23.42 27.1603 23.96C27.7003 24.5 28.4603 24.77 29.4403 24.77C30.3203 24.77 31.0103 24.51 31.5103 23.99C32.0303 23.45 32.2903 22.72 32.2903 21.8C32.2903 20.86 32.0403 20.12 31.5403 19.58C31.0403 19.04 30.3203 18.77 29.3803 18.77Z" fill="#2F4445" fill-opacity="0.8"></path></svg>