<svg xmlns="http://www.w3.org/2000/svg" width="40" height="36" viewBox="0 0 40 36" fill="none"><g clip-path="url(#clip0_1745_20012)"><path d="M1.35 17.75C1.35 14.31 2.01 11.6 3.33 9.62C4.67 7.64 6.82 6.65 9.78 6.65C12.74 6.65 14.88 7.64 16.2 9.62C17.54 11.6 18.21 14.31 18.21 17.75C18.21 21.23 17.54 23.96 16.2 25.94C14.88 27.92 12.74 28.91 9.78 28.91C6.82 28.91 4.67 27.92 3.33 25.94C2.01 23.96 1.35 21.23 1.35 17.75ZM13.17 17.75C13.17 15.73 12.95 14.18 12.51 13.1C12.07 12 11.16 11.45 9.78 11.45C8.4 11.45 7.49 12 7.05 13.1C6.61 14.18 6.39 15.73 6.39 17.75C6.39 19.11 6.47 20.24 6.63 21.14C6.79 22.02 7.11 22.74 7.59 23.3C8.09 23.84 8.82 24.11 9.78 24.11C10.74 24.11 11.46 23.84 11.94 23.3C12.44 22.74 12.77 22.02 12.93 21.14C13.09 20.24 13.17 19.11 13.17 17.75ZM36.3403 11.57H26.9803V15.71C27.3803 15.27 27.9403 14.91 28.6603 14.63C29.3803 14.35 30.1603 14.21 31.0003 14.21C32.5003 14.21 33.7403 14.55 34.7203 15.23C35.7203 15.91 36.4503 16.79 36.9103 17.87C37.3703 18.95 37.6003 20.12 37.6003 21.38C37.6003 23.72 36.9403 25.58 35.6203 26.96C34.3003 28.32 32.4403 29 30.0403 29C28.4403 29 27.0503 28.73 25.8703 28.19C24.6903 27.63 23.7803 26.86 23.1403 25.88C22.5003 24.9 22.1503 23.77 22.0903 22.49H27.1003C27.2203 23.11 27.5103 23.63 27.9703 24.05C28.4303 24.45 29.0603 24.65 29.8603 24.65C30.8003 24.65 31.5003 24.35 31.9603 23.75C32.4203 23.15 32.6503 22.35 32.6503 21.35C32.6503 20.37 32.4103 19.62 31.9303 19.1C31.4503 18.58 30.7503 18.32 29.8303 18.32C29.1503 18.32 28.5903 18.49 28.1503 18.83C27.7103 19.15 27.4203 19.58 27.2803 20.12H22.3303V7.07H36.3403V11.57Z" fill="#2F4445" fill-opacity="0.8"></path></g><defs><clipPath id="clip0_1745_20012"><rect width="40" height="36" fill="white"></rect></clipPath></defs></svg>