<svg xmlns="http://www.w3.org/2000/svg" width="40" height="36" viewBox="0 0 40 36" fill="none"><path d="M1.35 17.75C1.35 14.31 2.01 11.6 3.33 9.62C4.67 7.64 6.82 6.65 9.78 6.65C12.74 6.65 14.88 7.64 16.2 9.62C17.54 11.6 18.21 14.31 18.21 17.75C18.21 21.23 17.54 23.96 16.2 25.94C14.88 27.92 12.74 28.91 9.78 28.91C6.82 28.91 4.67 27.92 3.33 25.94C2.01 23.96 1.35 21.23 1.35 17.75ZM13.17 17.75C13.17 15.73 12.95 14.18 12.51 13.1C12.07 12 11.16 11.45 9.78 11.45C8.4 11.45 7.49 12 7.05 13.1C6.61 14.18 6.39 15.73 6.39 17.75C6.39 19.11 6.47 20.24 6.63 21.14C6.79 22.02 7.11 22.74 7.59 23.3C8.09 23.84 8.82 24.11 9.78 24.11C10.74 24.11 11.46 23.84 11.94 23.3C12.44 22.74 12.77 22.02 12.93 21.14C13.09 20.24 13.17 19.11 13.17 17.75ZM21.1003 13.28C21.1803 11.14 21.8803 9.49 23.2003 8.33C24.5203 7.17 26.3103 6.59 28.5703 6.59C30.0703 6.59 31.3503 6.85 32.4103 7.37C33.4903 7.89 34.3003 8.6 34.8403 9.5C35.4003 10.4 35.6803 11.41 35.6803 12.53C35.6803 13.85 35.3503 14.93 34.6903 15.77C34.0303 16.59 33.2603 17.15 32.3803 17.45V17.57C33.5203 17.95 34.4203 18.58 35.0803 19.46C35.7403 20.34 36.0703 21.47 36.0703 22.85C36.0703 24.09 35.7803 25.19 35.2003 26.15C34.6403 27.09 33.8103 27.83 32.7103 28.37C31.6303 28.91 30.3403 29.18 28.8403 29.18C26.4403 29.18 24.5203 28.59 23.0803 27.41C21.6603 26.23 20.9103 24.45 20.8303 22.07H25.8103C25.8303 22.95 26.0803 23.65 26.5603 24.17C27.0403 24.67 27.7403 24.92 28.6603 24.92C29.4403 24.92 30.0403 24.7 30.4603 24.26C30.9003 23.8 31.1203 23.2 31.1203 22.46C31.1203 21.5 30.8103 20.81 30.1903 20.39C29.5903 19.95 28.6203 19.73 27.2803 19.73H26.3203V15.56H27.2803C28.3003 15.56 29.1203 15.39 29.7403 15.05C30.3803 14.69 30.7003 14.06 30.7003 13.16C30.7003 12.44 30.5003 11.88 30.1003 11.48C29.7003 11.08 29.1503 10.88 28.4503 10.88C27.6903 10.88 27.1203 11.11 26.7403 11.57C26.3803 12.03 26.1703 12.6 26.1103 13.28H21.1003Z" fill="#2F4445" fill-opacity="0.8"></path></svg>