<svg xmlns="http://www.w3.org/2000/svg" width="40" height="36" viewBox="0 0 40 36" fill="none"><g clip-path="url(#clip0_1745_20013)"><path d="M1.35 17.75C1.35 14.31 2.01 11.6 3.33 9.62C4.67 7.64 6.82 6.65 9.78 6.65C12.74 6.65 14.88 7.64 16.2 9.62C17.54 11.6 18.21 14.31 18.21 17.75C18.21 21.23 17.54 23.96 16.2 25.94C14.88 27.92 12.74 28.91 9.78 28.91C6.82 28.91 4.67 27.92 3.33 25.94C2.01 23.96 1.35 21.23 1.35 17.75ZM13.17 17.75C13.17 15.73 12.95 14.18 12.51 13.1C12.07 12 11.16 11.45 9.78 11.45C8.4 11.45 7.49 12 7.05 13.1C6.61 14.18 6.39 15.73 6.39 17.75C6.39 19.11 6.47 20.24 6.63 21.14C6.79 22.02 7.11 22.74 7.59 23.3C8.09 23.84 8.82 24.11 9.78 24.11C10.74 24.11 11.46 23.84 11.94 23.3C12.44 22.74 12.77 22.02 12.93 21.14C13.09 20.24 13.17 19.11 13.17 17.75ZM21.0403 25.1V20.96L30.5203 7.4H36.2503V20.66H38.7103V25.1H36.2503V29H31.1203V25.1H21.0403ZM31.4803 13.04L26.4403 20.66H31.4803V13.04Z" fill="#2F4445" fill-opacity="0.8"></path></g><defs><clipPath id="clip0_1745_20013"><rect width="40" height="36" fill="white"></rect></clipPath></defs></svg>