<svg xmlns="http://www.w3.org/2000/svg" width="40" height="36" viewBox="0 0 40 36" fill="none"><path d="M1.35 17.75C1.35 14.31 2.01 11.6 3.33 9.62C4.67 7.64 6.82 6.65 9.78 6.65C12.74 6.65 14.88 7.64 16.2 9.62C17.54 11.6 18.21 14.31 18.21 17.75C18.21 21.23 17.54 23.96 16.2 25.94C14.88 27.92 12.74 28.91 9.78 28.91C6.82 28.91 4.67 27.92 3.33 25.94C2.01 23.96 1.35 21.23 1.35 17.75ZM13.17 17.75C13.17 15.73 12.95 14.18 12.51 13.1C12.07 12 11.16 11.45 9.78 11.45C8.4 11.45 7.49 12 7.05 13.1C6.61 14.18 6.39 15.73 6.39 17.75C6.39 19.11 6.47 20.24 6.63 21.14C6.79 22.02 7.11 22.74 7.59 23.3C8.09 23.84 8.82 24.11 9.78 24.11C10.74 24.11 11.46 23.84 11.94 23.3C12.44 22.74 12.77 22.02 12.93 21.14C13.09 20.24 13.17 19.11 13.17 17.75ZM20.7403 24.89C21.4203 24.35 21.7303 24.1 21.6703 24.14C23.6303 22.52 25.1703 21.19 26.2903 20.15C27.4303 19.11 28.3903 18.02 29.1703 16.88C29.9503 15.74 30.3403 14.63 30.3403 13.55C30.3403 12.73 30.1503 12.09 29.7703 11.63C29.3903 11.17 28.8203 10.94 28.0603 10.94C27.3003 10.94 26.7003 11.23 26.2603 11.81C25.8403 12.37 25.6303 13.17 25.6303 14.21H20.6803C20.7203 12.51 21.0803 11.09 21.7603 9.95C22.4603 8.81 23.3703 7.97 24.4903 7.43C25.6303 6.89 26.8903 6.62 28.2703 6.62C30.6503 6.62 32.4403 7.23 33.6403 8.45C34.8603 9.67 35.4703 11.26 35.4703 13.22C35.4703 15.36 34.7403 17.35 33.2803 19.19C31.8203 21.01 29.9603 22.79 27.7003 24.53H35.8003V28.7H20.7403V24.89Z" fill="#2F4445" fill-opacity="0.8"></path></svg>