<svg xmlns="http://www.w3.org/2000/svg" width="56" height="56" viewBox="0 0 56 56" fill="none"><path d="M12.7394 6.83606C9.54269 6.83606 6.97838 9.40038 6.97838 12.597V19.7417C6.97838 22.9384 9.54269 25.5027 12.7394 25.5027H19.884C23.0807 25.5027 25.645 22.9384 25.645 19.7417V12.597C25.645 9.40038 23.0807 6.83606 19.884 6.83606H12.7394ZM34.9783 6.83606C32.4 6.83606 30.3117 8.92439 30.3117 11.5027V20.8361C30.3117 23.4144 32.4 25.5027 34.9783 25.5027H44.3116C46.89 25.5027 48.9783 23.4144 48.9783 20.8361V11.5027C48.9783 8.92439 46.89 6.83606 44.3116 6.83606H34.9783ZM34.9783 11.5027H44.3116V20.8361H34.9783V11.5027ZM19.009 13.0334C19.4664 12.5761 20.157 12.5761 20.6143 13.0334C21.0717 13.4931 21.0717 14.1814 20.6143 14.6387L15.9477 19.3054C15.4903 19.7627 14.7997 19.7627 14.3424 19.3054L12.009 16.972C11.5517 16.5124 11.5517 15.8241 12.009 15.3667C12.4664 14.9094 13.157 14.9094 13.6144 15.3667L15.145 16.8974L19.009 13.0334ZM11.645 30.1694C9.06671 30.1694 6.97838 32.2577 6.97838 34.8361V44.1694C6.97838 46.7477 9.06671 48.8361 11.645 48.8361H20.9784C23.5567 48.8361 25.645 46.7477 25.645 44.1694V34.8361C25.645 32.2577 23.5567 30.1694 20.9784 30.1694H11.645ZM34.9783 30.1694C32.4 30.1694 30.3117 32.2577 30.3117 34.8361V44.1694C30.3117 46.7477 32.4 48.8361 34.9783 48.8361H44.3116C46.89 48.8361 48.9783 46.7477 48.9783 44.1694V34.8361C48.9783 32.2577 46.89 30.1694 44.3116 30.1694H34.9783ZM11.645 34.8361H20.9784V44.1694H11.645V34.8361ZM34.9783 34.8361H44.3116V44.1694H34.9783V34.8361Z" fill="#2F4445"></path><rect x="0.0005" y="0.0005" width="55.999" height="55.9989" stroke="white" stroke-width="0.001"></rect></svg>