<svg width="56" height="56" viewBox="0 0 56 56" fill="none" xmlns="http://www.w3.org/2000/svg">
<path d="M16.3333 44.3333H11.235C10.499 44.3354 9.77492 44.1473 9.13305 43.7871C8.49119 43.4269 7.95333 42.9069 7.57165 42.2776C7.20511 41.6456 7.01129 40.9282 7.00965 40.1975C7.00802 39.4669 7.19862 38.7487 7.56232 38.115L16.7907 22.1666" stroke="white" stroke-width="4" stroke-linecap="round" stroke-linejoin="round"/>
<path d="M25.6667 44.3333H44.807C45.5395 44.3277 46.2582 44.1337 46.894 43.77C47.5299 43.4063 48.0615 42.8852 48.4377 42.2567C48.7992 41.6264 48.9893 40.9124 48.9893 40.1858C48.9893 39.4592 48.7992 38.7453 48.4377 38.115L45.577 33.1683" stroke="white" stroke-width="4" stroke-linecap="round" stroke-linejoin="round"/>
<path d="M32.6667 37.3334L25.6667 44.3334L32.6667 51.3334" stroke="white" stroke-width="4" stroke-linecap="round" stroke-linejoin="round"/>
<path d="M19.3503 31.724L16.7907 22.1666L7.23334 24.7286" stroke="white" stroke-width="4" stroke-linecap="round" stroke-linejoin="round"/>
<path d="M21.8027 13.559L24.353 9.14434C24.7192 8.50593 25.2442 7.97302 25.8771 7.59731C26.51 7.2216 27.2292 7.01584 27.965 7.00001C28.6952 6.99865 29.4129 7.18938 30.0461 7.55307C30.6792 7.91675 31.2056 8.44059 31.5723 9.07201L40.7727 25.039" stroke="white" stroke-width="4" stroke-linecap="round" stroke-linejoin="round"/>
<path d="M31.2153 22.477L40.7727 25.039L43.3323 15.4817" stroke="white" stroke-width="4" stroke-linecap="round" stroke-linejoin="round"/>
</svg>
