<svg width="56" height="56" viewBox="0 0 56 56" fill="none" xmlns="http://www.w3.org/2000/svg">
<path d="M37.3333 49V44.3333C37.3333 41.858 36.35 39.484 34.5997 37.7337C32.8493 35.9833 30.4753 35 28 35H14C11.5246 35 9.15067 35.9833 7.40033 37.7337C5.64999 39.484 4.66666 41.858 4.66666 44.3333V49" stroke="white" stroke-width="4" stroke-linecap="round" stroke-linejoin="round"/>
<path d="M21 25.6667C26.1546 25.6667 30.3333 21.488 30.3333 16.3333C30.3333 11.1787 26.1546 7 21 7C15.8453 7 11.6667 11.1787 11.6667 16.3333C11.6667 21.488 15.8453 25.6667 21 25.6667Z" stroke="white" stroke-width="4" stroke-linecap="round" stroke-linejoin="round"/>
<path d="M51.3333 49V44.3333C51.3318 42.2654 50.6435 40.2565 49.3765 38.6221C48.1096 36.9877 46.3356 35.8203 44.3333 35.3033" stroke="white" stroke-width="4" stroke-linecap="round" stroke-linejoin="round"/>
<path d="M37.3333 7.30334C39.341 7.81738 41.1204 8.98498 42.3912 10.6221C43.6619 12.2592 44.3516 14.2726 44.3516 16.345C44.3516 18.4174 43.6619 20.4309 42.3912 22.068C41.1204 23.705 39.341 24.8726 37.3333 25.3867" stroke="white" stroke-width="4" stroke-linecap="round" stroke-linejoin="round"/>
</svg>
