<svg xmlns="http://www.w3.org/2000/svg" width="37" height="23" viewBox="0 0 37 23" fill="none"><path d="M0.35 11.75C0.35 8.31 1.01 5.6 2.33 3.62C3.67 1.64 5.82 0.649998 8.78 0.649998C11.74 0.649998 13.88 1.64 15.2 3.62C16.54 5.6 17.21 8.31 17.21 11.75C17.21 15.23 16.54 17.96 15.2 19.94C13.88 21.92 11.74 22.91 8.78 22.91C5.82 22.91 3.67 21.92 2.33 19.94C1.01 17.96 0.35 15.23 0.35 11.75ZM12.17 11.75C12.17 9.73 11.95 8.18 11.51 7.1C11.07 6 10.16 5.45 8.78 5.45C7.4 5.45 6.49 6 6.05 7.1C5.61 8.18 5.39 9.73 5.39 11.75C5.39 13.11 5.47 14.24 5.63 15.14C5.79 16.02 6.11 16.74 6.59 17.3C7.09 17.84 7.82 18.11 8.78 18.11C9.74 18.11 10.46 17.84 10.94 17.3C11.44 16.74 11.77 16.02 11.93 15.14C12.09 14.24 12.17 13.11 12.17 11.75ZM35.3403 5.57H25.9803V9.71C26.3803 9.27 26.9403 8.91 27.6603 8.63C28.3803 8.35 29.1603 8.21 30.0003 8.21C31.5003 8.21 32.7403 8.55 33.7203 9.23C34.7203 9.91 35.4503 10.79 35.9103 11.87C36.3703 12.95 36.6003 14.12 36.6003 15.38C36.6003 17.72 35.9403 19.58 34.6203 20.96C33.3003 22.32 31.4403 23 29.0403 23C27.4403 23 26.0503 22.73 24.8703 22.19C23.6903 21.63 22.7803 20.86 22.1403 19.88C21.5003 18.9 21.1503 17.77 21.0903 16.49H26.1003C26.2203 17.11 26.5103 17.63 26.9703 18.05C27.4303 18.45 28.0603 18.65 28.8603 18.65C29.8003 18.65 30.5003 18.35 30.9603 17.75C31.4203 17.15 31.6503 16.35 31.6503 15.35C31.6503 14.37 31.4103 13.62 30.9303 13.1C30.4503 12.58 29.7503 12.32 28.8303 12.32C28.1503 12.32 27.5903 12.49 27.1503 12.83C26.7103 13.15 26.4203 13.58 26.2803 14.12H21.3303V1.07H35.3403V5.57Z" fill="#2F4445" fill-opacity="0.8"></path></svg>