<svg xmlns="http://www.w3.org/2000/svg" width="37" height="24" viewBox="0 0 37 24" fill="none"><path d="M0.35 11.75C0.35 8.31 1.01 5.6 2.33 3.62C3.67 1.64 5.82 0.649998 8.78 0.649998C11.74 0.649998 13.88 1.64 15.2 3.62C16.54 5.6 17.21 8.31 17.21 11.75C17.21 15.23 16.54 17.96 15.2 19.94C13.88 21.92 11.74 22.91 8.78 22.91C5.82 22.91 3.67 21.92 2.33 19.94C1.01 17.96 0.35 15.23 0.35 11.75ZM12.17 11.75C12.17 9.73 11.95 8.18 11.51 7.1C11.07 6 10.16 5.45 8.78 5.45C7.4 5.45 6.49 6 6.05 7.1C5.61 8.18 5.39 9.73 5.39 11.75C5.39 13.11 5.47 14.24 5.63 15.14C5.79 16.02 6.11 16.74 6.59 17.3C7.09 17.84 7.82 18.11 8.78 18.11C9.74 18.11 10.46 17.84 10.94 17.3C11.44 16.74 11.77 16.02 11.93 15.14C12.09 14.24 12.17 13.11 12.17 11.75ZM30.7503 7.01C30.5903 6.27 30.3103 5.72 29.9103 5.36C29.5103 4.98 28.9403 4.79 28.2003 4.79C27.0603 4.79 26.2403 5.29 25.7403 6.29C25.2403 7.27 24.9803 8.83 24.9603 10.97C25.4003 10.27 26.0303 9.72 26.8503 9.32C27.6903 8.92 28.6103 8.72 29.6103 8.72C31.5703 8.72 33.1403 9.34 34.3203 10.58C35.5203 11.82 36.1203 13.55 36.1203 15.77C36.1203 17.23 35.8203 18.51 35.2203 19.61C34.6403 20.71 33.7803 21.57 32.6403 22.19C31.5203 22.81 30.1903 23.12 28.6503 23.12C25.5703 23.12 23.4303 22.16 22.2303 20.24C21.0303 18.3 20.4303 15.52 20.4303 11.9C20.4303 8.1 21.0603 5.28 22.3203 3.44C23.6003 1.58 25.6403 0.649998 28.4403 0.649998C29.9403 0.649998 31.2003 0.949998 32.2203 1.55C33.2603 2.13 34.0403 2.9 34.5603 3.86C35.1003 4.82 35.4203 5.87 35.5203 7.01H30.7503ZM28.3803 12.77C27.5203 12.77 26.8003 13.03 26.2203 13.55C25.6603 14.05 25.3803 14.77 25.3803 15.71C25.3803 16.67 25.6403 17.42 26.1603 17.96C26.7003 18.5 27.4603 18.77 28.4403 18.77C29.3203 18.77 30.0103 18.51 30.5103 17.99C31.0303 17.45 31.2903 16.72 31.2903 15.8C31.2903 14.86 31.0403 14.12 30.5403 13.58C30.0403 13.04 29.3203 12.77 28.3803 12.77Z" fill="#2F4445" fill-opacity="0.8"></path></svg>