<svg xmlns="http://www.w3.org/2000/svg" width="37" height="24" viewBox="0 0 37 24" fill="none"><path d="M0.35 11.75C0.35 8.31 1.01 5.6 2.33 3.62C3.67 1.64 5.82 0.649998 8.78 0.649998C11.74 0.649998 13.88 1.64 15.2 3.62C16.54 5.6 17.21 8.31 17.21 11.75C17.21 15.23 16.54 17.96 15.2 19.94C13.88 21.92 11.74 22.91 8.78 22.91C5.82 22.91 3.67 21.92 2.33 19.94C1.01 17.96 0.35 15.23 0.35 11.75ZM12.17 11.75C12.17 9.73 11.95 8.18 11.51 7.1C11.07 6 10.16 5.45 8.78 5.45C7.4 5.45 6.49 6 6.05 7.1C5.61 8.18 5.39 9.73 5.39 11.75C5.39 13.11 5.47 14.24 5.63 15.14C5.79 16.02 6.11 16.74 6.59 17.3C7.09 17.84 7.82 18.11 8.78 18.11C9.74 18.11 10.46 17.84 10.94 17.3C11.44 16.74 11.77 16.02 11.93 15.14C12.09 14.24 12.17 13.11 12.17 11.75ZM23.5203 11.24C21.6403 10.24 20.7003 8.67 20.7003 6.53C20.7003 5.45 20.9803 4.47 21.5403 3.59C22.1003 2.69 22.9503 1.98 24.0903 1.46C25.2303 0.919998 26.6303 0.649998 28.2903 0.649998C29.9503 0.649998 31.3403 0.919998 32.4603 1.46C33.6003 1.98 34.4503 2.69 35.0103 3.59C35.5703 4.47 35.8503 5.45 35.8503 6.53C35.8503 7.61 35.5903 8.55 35.0703 9.35C34.5703 10.15 33.8903 10.78 33.0303 11.24C34.1103 11.76 34.9403 12.48 35.5203 13.4C36.1003 14.3 36.3903 15.36 36.3903 16.58C36.3903 18 36.0303 19.23 35.3103 20.27C34.5903 21.29 33.6103 22.07 32.3703 22.61C31.1503 23.15 29.7903 23.42 28.2903 23.42C26.7903 23.42 25.4203 23.15 24.1803 22.61C22.9603 22.07 21.9903 21.29 21.2703 20.27C20.5503 19.23 20.1903 18 20.1903 16.58C20.1903 15.34 20.4803 14.27 21.0603 13.37C21.6403 12.45 22.4603 11.74 23.5203 11.24ZM30.8703 7.31C30.8703 6.49 30.6303 5.86 30.1503 5.42C29.6903 4.96 29.0703 4.73 28.2903 4.73C27.5103 4.73 26.8803 4.96 26.4003 5.42C25.9403 5.88 25.7103 6.52 25.7103 7.34C25.7103 8.12 25.9503 8.74 26.4303 9.2C26.9103 9.64 27.5303 9.86 28.2903 9.86C29.0503 9.86 29.6703 9.63 30.1503 9.17C30.6303 8.71 30.8703 8.09 30.8703 7.31ZM28.2903 13.46C27.3503 13.46 26.5903 13.72 26.0103 14.24C25.4303 14.74 25.1403 15.44 25.1403 16.34C25.1403 17.18 25.4203 17.87 25.9803 18.41C26.5603 18.95 27.3303 19.22 28.2903 19.22C29.2503 19.22 30.0003 18.95 30.5403 18.41C31.1003 17.87 31.3803 17.18 31.3803 16.34C31.3803 15.46 31.0903 14.76 30.5103 14.24C29.9503 13.72 29.2103 13.46 28.2903 13.46Z" fill="#2F4445" fill-opacity="0.8"></path></svg>