<svg xmlns="http://www.w3.org/2000/svg" width="50" height="56" viewBox="0 0 50 56" fill="none"><g clip-path="url(#clip0_1335_15149)"><path d="M17.1362 34.3707C19.0275 34.3707 20.5608 35.9104 20.5608 37.8096V52.5613C20.5608 54.4605 19.0275 55.9999 17.1362 55.9999C15.2452 55.9999 13.7119 54.4605 13.7119 52.5613V37.8096C13.7119 35.9106 15.2452 34.371 17.1362 34.371V34.3707Z" fill="#A4C639"></path><path d="M9.32393 16.6742C9.31261 16.8044 9.30273 16.9361 9.30273 17.0693V39.3951C9.30273 41.7961 11.2002 43.7304 13.5558 43.7304H36.2235C38.5793 43.7304 40.4768 41.7959 40.4768 39.3951V17.0693C40.4768 16.9361 40.472 16.804 40.4609 16.6742H9.32393Z" fill="#A4C639"></path><path d="M32.6377 34.4163C34.5344 34.4163 36.0721 35.9527 36.0721 37.8479V52.5686C36.0721 54.4638 34.5344 56 32.6377 56C30.7412 56 29.2035 54.4638 29.2035 52.5686V37.8479C29.2035 35.9529 30.7412 34.4165 32.6377 34.4165V34.4163ZM3.76353 18.7028C5.66004 18.7028 7.19771 20.2392 7.19771 22.1344V36.8551C7.19771 38.7503 5.66004 40.2867 3.76353 40.2867C1.86677 40.2867 0.329102 38.7503 0.329102 36.8553V22.1346C0.32886 20.2394 1.86652 18.7028 3.76353 18.7028ZM46.0177 18.7028C47.9142 18.7028 49.4519 20.2392 49.4519 22.1344V36.8551C49.4519 38.7503 47.9142 40.2867 46.0177 40.2867C44.121 40.2867 42.5833 38.7503 42.5833 36.8553V22.1346C42.5833 20.2394 44.121 18.7028 46.0177 18.7028ZM9.40316 15.2528C9.49866 8.40213 15.4829 2.78517 23.1645 2.04492H26.616C34.2981 2.78542 40.2819 8.40261 40.3774 15.2528H9.40316Z" fill="#A4C639"></path><path d="M10.5635 1.33716L14.195 7.62929M39.2184 1.33716L35.5867 7.62929" stroke="#A4C639" stroke-width="6.81733" stroke-linecap="round" stroke-linejoin="round"></path><path d="M20.263 9.12353C20.2659 10.0765 19.4713 10.8512 18.488 10.8539C17.5052 10.8563 16.706 10.086 16.7031 9.13312V9.12353C16.7005 8.17036 17.4951 7.39583 18.4781 7.3932C19.4609 7.39056 20.2601 8.16052 20.263 9.11393V9.12353ZM33.5497 9.12353C33.5526 10.0765 32.758 10.8512 31.7747 10.8539C30.7919 10.8563 29.9927 10.086 29.9898 9.13312V9.12353C29.9872 8.17036 30.7818 7.39583 31.7648 7.3932C32.7476 7.39056 33.5468 8.16052 33.5497 9.11393V9.12353Z" fill="white"></path></g><defs><clipPath id="clip0_1335_15149"><rect width="49.1228" height="56" fill="white" transform="translate(0.329102)"></rect></clipPath></defs></svg>