<svg xmlns="http://www.w3.org/2000/svg" width="72" height="72" viewBox="0 0 72 72" fill="none"><path d="M35.8995 3L4.5 13.9275L9.462 54.612L35.9325 69L62.5395 54.417L67.5 13.734L35.8995 3Z" fill="#BDBDBD"></path><path d="M64.227 15.7905L36 6.20251V65.5425L59.748 52.5255L64.227 15.7905Z" fill="#B71C1C"></path><path d="M35.9115 6.17249L7.77148 15.966L12.252 52.7145L35.9265 65.5815L36 65.5425V6.20249L35.9115 6.17249Z" fill="#DD2C00"></path><path d="M36 8.99402V23.256L48.867 51H55.4805L36 8.99402Z" fill="#BDBDBD"></path><path d="M16.5195 51H23.133L36 23.256V8.99402L16.5195 51Z" fill="#EEEEEE"></path><path d="M36 36H45V42H36V36Z" fill="#BDBDBD"></path><path d="M27 36H36V42H27V36Z" fill="#EEEEEE"></path></svg>