<svg xmlns="http://www.w3.org/2000/svg" width="49" height="48" viewBox="0 0 49 48" fill="none"><g clip-path="url(#clip0_1410_12684)"><path d="M14.5403 22.1156C13.8241 21.3506 12.7082 21.3939 12.2215 22.3674L0.477448 45.856C0.259727 46.2912 0.282916 46.8082 0.538733 47.2221C0.794549 47.6361 1.2465 47.8881 1.73314 47.8881H18.0884C18.6238 47.9005 19.1161 47.5961 19.3444 47.1117C22.871 39.8201 20.7344 28.7336 14.5403 22.1156Z" fill="url(#paint0_linear_1410_12684)"></path><path d="M23.1587 0.752189C16.5901 11.1594 17.0235 22.6856 21.3501 31.339L29.2364 47.1117C29.4742 47.5873 29.9604 47.8877 30.4921 47.8877H46.8471C47.3338 47.8878 47.7857 47.6358 48.0416 47.2218C48.2974 46.8079 48.3206 46.2909 48.1028 45.8557C48.1028 45.8557 26.1003 1.84442 25.5469 0.743253C25.052 -0.242537 23.795 -0.255941 23.1587 0.752189Z" fill="#2681FF"></path></g><defs><linearGradient id="paint0_linear_1410_12684" x1="2065.27" y1="437.202" x2="418.736" y2="2205.87" gradientUnits="userSpaceOnUse"><stop stop-color="#0052CC"></stop><stop offset="0.923" stop-color="#2684FF"></stop></linearGradient><clipPath id="clip0_1410_12684"><rect width="48" height="48" fill="white" transform="translate(0.329102)"></rect></clipPath></defs></svg>