<svg xmlns="http://www.w3.org/2000/svg" width="33" height="33" viewBox="0 0 33 33" fill="none"><path d="M10.3661 30.9375C22.8195 30.9375 29.6319 20.6188 29.6319 11.6861C29.6319 11.3973 29.6319 11.1045 29.6196 10.8157C30.9459 9.85559 32.0906 8.6669 33 7.30534C31.7611 7.85159 30.4482 8.21161 29.1039 8.37371C30.5199 7.52734 31.5804 6.19565 32.0884 4.62615C30.758 5.41428 29.302 5.96755 27.7839 6.26171C26.7634 5.17483 25.4129 4.4548 23.9417 4.21315C22.4705 3.97151 20.9606 4.22174 19.646 4.92509C18.3314 5.62843 17.2854 6.74564 16.6701 8.10365C16.0547 9.46167 15.9043 10.9847 16.2422 12.4368C13.5501 12.3019 10.9164 11.6025 8.51203 10.3841C6.10762 9.16575 3.98616 7.45558 2.28525 5.36453C1.42176 6.85589 1.15825 8.61998 1.54821 10.2986C1.93817 11.9772 2.95238 13.4444 4.38487 14.4024C3.31143 14.3659 2.26157 14.0777 1.32 13.5609V13.6537C1.32185 15.216 1.86307 16.7298 2.85218 17.9391C3.84128 19.1484 5.2176 19.9791 6.7485 20.2908C6.16742 20.4509 5.56716 20.5307 4.96444 20.528C4.53953 20.5293 4.11547 20.4899 3.69806 20.4105C4.13075 21.7553 4.97325 22.9312 6.10757 23.7733C7.24189 24.6155 8.61121 25.0817 10.0238 25.1068C7.62415 26.9915 4.66001 28.0137 1.60875 28.0087C1.0711 28.011 0.533823 27.98 0 27.9159C3.09687 29.8903 6.69343 30.9386 10.3661 30.9375Z" fill="white"></path></svg>