<svg xmlns="http://www.w3.org/2000/svg" width="56" height="56" viewBox="0 0 56 56" fill="none"><path d="M46.6671 37.8C48.4975 36.5334 49.878 34.7178 50.6093 32.6155C51.3406 30.5132 51.3849 28.2328 50.7358 26.1036C50.0867 23.9745 48.7777 22.1067 46.9979 20.77C45.218 19.4332 43.0594 18.6967 40.8337 18.6667H36.6337C35.9284 16.2873 34.6902 14.1 33.013 12.2707C31.3359 10.4415 29.264 9.01852 26.9546 8.10981C24.6453 7.20111 22.1593 6.83058 19.6853 7.02638C17.2113 7.22218 14.8145 7.97916 12.6769 9.23982C10.5392 10.5005 8.71695 12.2317 7.34845 14.302C5.97994 16.3722 5.10119 18.7271 4.77893 21.1878C4.45666 23.6485 4.69936 26.1503 5.48858 28.5031C6.27781 30.856 7.59282 32.9981 9.33373 34.7667" stroke="#2F4445" stroke-width="4" stroke-linecap="round" stroke-linejoin="round"></path><path d="M28 46.6666C31.866 46.6666 35 43.5326 35 39.6666C35 35.8006 31.866 32.6666 28 32.6666C24.134 32.6666 21 35.8006 21 39.6666C21 43.5326 24.134 46.6666 28 46.6666Z" stroke="#2F4445" stroke-width="4" stroke-linecap="round" stroke-linejoin="round"></path><path d="M28 30.3334V32.6667" stroke="#2F4445" stroke-width="4" stroke-linecap="round" stroke-linejoin="round"></path><path d="M28 46.6666V49" stroke="#2F4445" stroke-width="4" stroke-linecap="round" stroke-linejoin="round"></path><path d="M37.3333 39.6666H35" stroke="#2F4445" stroke-width="4" stroke-linecap="round" stroke-linejoin="round"></path><path d="M21.0003 39.6666H18.667" stroke="#2F4445" stroke-width="4" stroke-linecap="round" stroke-linejoin="round"></path><path d="M34.9996 32.6666L32.9463 34.72" stroke="#2F4445" stroke-width="4" stroke-linecap="round" stroke-linejoin="round"></path><path d="M23.0533 44.6133L21 46.6666" stroke="#2F4445" stroke-width="4" stroke-linecap="round" stroke-linejoin="round"></path><path d="M34.9996 46.6666L32.9463 44.6133" stroke="#2F4445" stroke-width="4" stroke-linecap="round" stroke-linejoin="round"></path><path d="M23.0533 34.72L21 32.6666" stroke="#2F4445" stroke-width="4" stroke-linecap="round" stroke-linejoin="round"></path></svg>