<svg xmlns="http://www.w3.org/2000/svg" width="72" height="72" viewBox="0 0 72 72" fill="none"><g clip-path="url(#clip0_1278_12104)"><mask id="mask0_1278_12104" style="mask-type:luminance" maskUnits="userSpaceOnUse" x="25" y="25" width="13" height="24"><path d="M25.0122 26.6691C27.6066 34.6063 28.5908 48.766 36.1807 48.766C36.7583 48.766 37.3421 48.7093 37.9286 48.5978C31.0287 46.9893 30.2101 32.9834 25.9999 25.7308C25.6641 26.0367 25.3346 26.3495 25.0117 26.6691" fill="white"></path></mask><g mask="url(#mask0_1278_12104)"><mask id="mask1_1278_12104" style="mask-type:luminance" maskUnits="userSpaceOnUse" x="24" y="25" width="14" height="24"><path d="M37.9028 48.771H24.9863V25.7358H37.9028V48.771Z" fill="white"></path></mask><g mask="url(#mask1_1278_12104)"><mask id="mask2_1278_12104" style="mask-type:luminance" maskUnits="userSpaceOnUse" x="24" y="25" width="14" height="24"><path d="M37.9028 25.7354V48.771H24.9863V25.7358L37.9028 25.7354Z" fill="white"></path></mask><g mask="url(#mask2_1278_12104)"><path d="M37.9028 48.771H24.9863V25.7358H37.9028V48.771Z" fill="url(#paint0_linear_1278_12104)"></path></g></g></g><mask id="mask3_1278_12104" style="mask-type:luminance" maskUnits="userSpaceOnUse" x="26" y="24" width="14" height="25"><path d="M26 25.7308C30.2101 32.9834 31.0279 46.9893 37.9287 48.5978C38.4698 48.4979 39.0141 48.3477 39.5583 48.157C33.3646 45.1222 31.6526 31.5234 26.8717 24.9756C26.582 25.2167 26.287 25.4682 26.0005 25.7304" fill="white"></path></mask><g mask="url(#mask3_1278_12104)"><mask id="mask4_1278_12104" style="mask-type:luminance" maskUnits="userSpaceOnUse" x="26" y="25" width="14" height="24"><path d="M39.599 48.6288H26.042V25.0066H39.599V48.6288Z" fill="white"></path></mask><g mask="url(#mask4_1278_12104)"><mask id="mask5_1278_12104" style="mask-type:luminance" maskUnits="userSpaceOnUse" x="26" y="25" width="14" height="24"><path d="M39.599 25.0066V48.6288H26.042V25.0066H39.599Z" fill="white"></path></mask><g mask="url(#mask5_1278_12104)"><path d="M39.599 48.6288H26.042V25.0066H39.599V48.6288Z" fill="url(#paint1_linear_1278_12104)"></path></g></g></g><path d="M32.0672 21.4207C31.4907 21.4207 30.9049 21.4768 30.3183 21.5891C28.7829 21.8784 27.2223 22.5391 25.6494 23.5402C26.0794 23.9648 26.4878 24.4491 26.8718 24.9795C28.4713 23.6481 30.06 22.6708 31.6444 22.081C32.2224 21.8649 32.8182 21.6993 33.4248 21.5862C32.981 21.4746 32.5249 21.419 32.0672 21.4207Z" fill="#14559A"></path><path d="M44.2595 47.0392C43.9609 46.7535 43.6773 46.4419 43.3981 46.1036C42.1135 47.014 40.8317 47.7049 39.5586 48.1533C40.0127 48.3763 40.4935 48.5401 40.9893 48.6409C41.3794 48.7215 41.781 48.7618 42.2128 48.7618C43.6406 48.7618 44.7691 48.5916 45.7306 48.1321C45.2016 47.8456 44.7158 47.475 44.2624 47.0356" fill="#1969BC"></path><mask id="mask6_1278_12104" style="mask-type:luminance" maskUnits="userSpaceOnUse" x="31" y="21" width="14" height="26"><path d="M31.6442 22.0789C37.8797 25.3399 38.4213 40.1095 43.3974 46.1072C43.7303 45.8724 44.0609 45.6232 44.387 45.3605C41.273 38.4606 40.3815 23.3113 33.4209 21.5827C32.8262 21.6934 32.2334 21.8526 31.6396 22.0789" fill="white"></path></mask><g mask="url(#mask6_1278_12104)"><mask id="mask7_1278_12104" style="mask-type:luminance" maskUnits="userSpaceOnUse" x="31" y="21" width="14" height="26"><path d="M44.4241 46.1377H31.6768V21.6119H44.4241V46.1377Z" fill="white"></path></mask><g mask="url(#mask7_1278_12104)"><mask id="mask8_1278_12104" style="mask-type:luminance" maskUnits="userSpaceOnUse" x="31" y="21" width="14" height="26"><path d="M44.4241 21.6119V46.1377H31.6768V21.6119H44.4241Z" fill="white"></path></mask><g mask="url(#mask8_1278_12104)"><path d="M44.4241 46.1377H31.6768V21.6119H44.4241V46.1377Z" fill="url(#paint2_linear_1278_12104)"></path></g></g></g><mask id="mask9_1278_12104" style="mask-type:luminance" maskUnits="userSpaceOnUse" x="26" y="22" width="18" height="27"><path d="M26.8721 24.9765C31.6534 31.5238 33.3649 45.1275 39.5587 48.1578C40.8316 47.7089 42.1126 47.019 43.3977 46.1081C38.4216 40.11 37.88 25.3408 31.6445 22.0798C30.0612 22.6681 28.4716 23.6487 26.8766 24.9765" fill="white"></path></mask><g mask="url(#mask9_1278_12104)"><mask id="mask10_1278_12104" style="mask-type:luminance" maskUnits="userSpaceOnUse" x="26" y="22" width="18" height="27"><path d="M43.3899 48.1646H26.8643V22.0851H43.3899V48.1646Z" fill="white"></path></mask><g mask="url(#mask10_1278_12104)"><mask id="mask11_1278_12104" style="mask-type:luminance" maskUnits="userSpaceOnUse" x="26" y="22" width="18" height="27"><path d="M43.3899 22.086V48.1654H26.8643V22.086H43.3899Z" fill="white"></path></mask><g mask="url(#mask11_1278_12104)"><path d="M43.3899 48.1646H26.8643V22.0851H43.3899V48.1646Z" fill="url(#paint3_linear_1278_12104)"></path></g></g></g><path d="M24.8644 24.0605L24.2012 24.5492C24.4919 25.184 24.7607 25.8968 25.0123 26.6723L26.0018 25.7338C25.6481 25.1271 25.2735 24.5658 24.8647 24.0641" fill="#2B74B1"></path><path d="M25.6498 23.5366L24.8643 24.0602C25.272 24.5622 25.6473 25.1235 26.0014 25.7298L26.8722 24.9753C26.4871 24.4452 26.0798 23.9605 25.6498 23.5359" fill="#125A9E"></path><path d="M21.9528 26.4783C22.7027 25.7633 23.4534 25.1199 24.2004 24.5496L23.6606 23.5157C23.0575 24.2477 22.507 25.2135 21.9492 26.4787" fill="#0D82CA"></path><path d="M22.4947 22.0612C22.9265 22.4225 23.3116 22.9195 23.6642 23.515L24.0042 23.1336C23.5149 22.6766 22.9859 22.3009 22.4102 22.0181L22.4814 22.0519C22.485 22.0566 22.4893 22.0591 22.494 22.0609" fill="#0D82CA"></path><mask id="mask12_1278_12104" style="mask-type:luminance" maskUnits="userSpaceOnUse" x="4" y="21" width="15" height="22"><path d="M4.34863 42.8762C10.3625 31.288 13.2119 23.9531 18.2403 21.9695C13.0559 23.999 7.22016 31.6528 4.34863 42.8762Z" fill="white"></path></mask><g mask="url(#mask12_1278_12104)"><mask id="mask13_1278_12104" style="mask-type:luminance" maskUnits="userSpaceOnUse" x="4" y="21" width="15" height="22"><path d="M4.3418 21.9839H18.2339V42.892H4.3418V21.9844V21.9839Z" fill="white"></path></mask><g mask="url(#mask13_1278_12104)"><mask id="mask14_1278_12104" style="mask-type:luminance" maskUnits="userSpaceOnUse" x="4" y="21" width="15" height="22"><path d="M4.3418 42.8911V21.9844H18.2339V42.8911H4.3418Z" fill="white"></path></mask><g mask="url(#mask14_1278_12104)"><path d="M4.3418 21.9839H18.2339V42.892H4.3418V21.9844V21.9839Z" fill="url(#paint4_linear_1278_12104)"></path></g></g></g><path d="M24.0051 23.1335L23.665 23.515C23.854 23.8309 24.0296 24.1753 24.2048 24.5488L24.8683 24.0601C24.6037 23.7316 24.3163 23.4219 24.0083 23.1335" fill="#127BCA"></path><mask id="mask15_1278_12104" style="mask-type:luminance" maskUnits="userSpaceOnUse" x="-6" y="23" width="31" height="37"><mask id="mask16_1278_12104" style="mask-type:luminance" maskUnits="userSpaceOnUse" x="-22" y="10" width="62" height="63"><path d="M-21.1045 10.8906H39.901V72.6931H-21.1045V10.8906Z" fill="white"></path></mask><g mask="url(#mask16_1278_12104)"><mask id="mask17_1278_12104" style="mask-type:luminance" maskUnits="userSpaceOnUse" x="-22" y="10" width="63" height="64"><path d="M-21.5547 10.4408H40.3504V73.1429H-21.5547V10.4408Z" fill="white"></path></mask><g mask="url(#mask17_1278_12104)"><mask id="mask18_1278_12104" style="mask-type:luminance" maskUnits="userSpaceOnUse" x="-6" y="23" width="31" height="37"><path d="M-5.84668 59.6628H24.6039V23.8003H-5.84668V59.6628Z" fill="white"></path></mask><g mask="url(#mask18_1278_12104)"><mask id="mask19_1278_12104" style="mask-type:luminance" maskUnits="userSpaceOnUse" x="-22" y="10" width="62" height="63"><path d="M-21.1045 10.8906H39.901V72.6931H-21.1045V10.8906Z" fill="white"></path></mask><g mask="url(#mask19_1278_12104)"><mask id="mask20_1278_12104" style="mask-type:luminance" maskUnits="userSpaceOnUse" x="-6" y="23" width="31" height="37"><path d="M-5.84668 59.6628H24.6039V23.8003H-5.84668V59.6628Z" fill="white"></path></mask><g mask="url(#mask20_1278_12104)"><mask id="mask21_1278_12104" style="mask-type:luminance" maskUnits="userSpaceOnUse" x="-6" y="23" width="31" height="37"><path d="M-5.84082 51.5057L8.73541 59.6588L24.6134 31.9511L10.0385 23.7953L-5.83677 51.5053L-5.84082 51.5057Z" fill="white"></path></mask><g mask="url(#mask21_1278_12104)"><mask id="mask22_1278_12104" style="mask-type:luminance" maskUnits="userSpaceOnUse" x="-22" y="10" width="62" height="63"><path d="M39.9 32.4063L17.3678 72.6971L-21.1055 51.1814L1.42638 10.8905L39.9 32.4063Z" fill="white"></path></mask><g mask="url(#mask22_1278_12104)"><mask id="mask23_1278_12104" style="mask-type:luminance" maskUnits="userSpaceOnUse" x="-22" y="10" width="62" height="63"><path d="M39.9 32.4063L17.3682 72.6971L-21.1055 51.1814L1.42638 10.8905L39.9 32.4063Z" fill="white"></path></mask><g mask="url(#mask23_1278_12104)"><path d="M39.9 32.4063L17.3678 72.6971L-21.1055 51.1814L1.42638 10.8905L39.9 32.4063Z" fill="url(#paint5_linear_1278_12104)"></path></g></g></g></g></g></g></g></g></mask><g mask="url(#mask15_1278_12104)"><mask id="mask24_1278_12104" style="mask-type:luminance" maskUnits="userSpaceOnUse" x="6" y="33" width="14" height="17"><path d="M6.59766 33.3069H19.5168V49.4817H6.59766V33.3024V33.3069Z" fill="white"></path></mask><g mask="url(#mask24_1278_12104)"><mask id="mask25_1278_12104" style="mask-type:luminance" maskUnits="userSpaceOnUse" x="6" y="33" width="14" height="17"><path d="M6.60254 49.4817H19.5118V33.3024H6.60254V49.4817Z" fill="white"></path></mask><g mask="url(#mask25_1278_12104)"><mask id="mask26_1278_12104" style="mask-type:luminance" maskUnits="userSpaceOnUse" x="6" y="33" width="14" height="17"><path d="M7.07939 49.4447L6.97054 49.4573C6.96154 49.4591 6.95615 49.4591 6.9494 49.4605L6.85674 49.4695C6.85224 49.4695 6.8464 49.4708 6.8419 49.4708L6.62014 49.4866H6.59766C12.6844 49.3156 15.4668 46.2687 16.8464 41.849L19.5137 33.3027C16.9642 36.8908 14.403 41.1671 11.8279 45.9601C10.5865 48.2699 8.69732 49.2347 7.07939 49.4402" fill="white"></path></mask><g mask="url(#mask26_1278_12104)"><mask id="mask27_1278_12104" style="mask-type:luminance" maskUnits="userSpaceOnUse" x="6" y="33" width="14" height="17"><path d="M6.60156 33.3077H19.5171V49.4871H6.60156V33.3077Z" fill="white"></path></mask><g mask="url(#mask27_1278_12104)"><mask id="mask28_1278_12104" style="mask-type:luminance" maskUnits="userSpaceOnUse" x="6" y="33" width="14" height="17"><path d="M6.60059 49.488V33.3087H19.5162V49.488H6.60059Z" fill="white"></path></mask><g mask="url(#mask28_1278_12104)"><path d="M6.60156 33.3077H19.5171V49.4871H6.60156V33.3077Z" fill="url(#paint6_linear_1278_12104)"></path></g></g></g></g></g></g><mask id="mask29_1278_12104" style="mask-type:luminance" maskUnits="userSpaceOnUse" x="7" y="26" width="15" height="24"><path d="M7.0791 49.4425V49.4447C8.69748 49.2387 10.5866 48.2752 11.8276 45.9646C14.4028 41.1742 16.9653 36.8953 19.5111 33.3072C20.4386 30.3979 21.2024 28.1718 21.9535 26.4783C16.8771 31.3101 11.78 39.3453 7.0791 49.4425Z" fill="white"></path></mask><g mask="url(#mask29_1278_12104)"><mask id="mask30_1278_12104" style="mask-type:luminance" maskUnits="userSpaceOnUse" x="7" y="26" width="15" height="24"><path d="M7.11133 26.5116H21.9853V49.4784H7.11133V26.5116Z" fill="white"></path></mask><g mask="url(#mask30_1278_12104)"><mask id="mask31_1278_12104" style="mask-type:luminance" maskUnits="userSpaceOnUse" x="7" y="26" width="15" height="24"><path d="M7.11133 49.4784V26.5116H21.9853V49.4784H7.11133Z" fill="white"></path></mask><g mask="url(#mask31_1278_12104)"><path d="M7.11133 26.5116H21.9853V49.4784H7.11133V26.5116Z" fill="url(#paint7_linear_1278_12104)"></path></g></g></g><path d="M4.34855 42.8762C3.26903 44.9507 2.09487 47.1608 0.786133 49.4966L3.08119 49.4958C3.38454 47.1763 3.81527 44.9637 4.34927 42.8766" fill="#05A1E6"></path><mask id="mask32_1278_12104" style="mask-type:luminance" maskUnits="userSpaceOnUse" x="3" y="21" width="21" height="29"><path d="M20.188 21.468C20.17 21.4716 20.1565 21.4725 20.143 21.4739C20.116 21.4793 20.0868 21.4842 20.0584 21.4865L20.0076 21.4919L19.9176 21.5076C19.9032 21.5085 19.8893 21.5112 19.8781 21.5121L19.6824 21.5467C19.6743 21.5481 19.6662 21.5503 19.6599 21.5503L19.5699 21.5683L19.5223 21.5818L19.4301 21.5998L19.3869 21.6102L19.0644 21.6938C19.0554 21.6974 19.0405 21.7001 19.027 21.7051C18.9955 21.7127 18.9641 21.724 18.9299 21.7348L18.8858 21.7469L18.7891 21.7761C18.7774 21.7793 18.7666 21.7851 18.7554 21.7851L18.5318 21.8625L18.4239 21.9012L18.3807 21.9192C18.3483 21.9282 18.315 21.9417 18.2907 21.9529C18.2804 21.9583 18.2673 21.9628 18.2592 21.9686C13.2305 23.9532 10.3814 31.2876 4.3676 42.8754C3.81184 45.0542 3.3884 47.2647 3.09961 49.4946H3.42211L6.41913 49.4901H6.44747L6.63864 49.4856L6.86039 49.4699C6.86489 49.4699 6.87073 49.4685 6.87388 49.4685C6.90537 49.464 6.93686 49.4618 6.96654 49.4595C6.97464 49.4582 6.97913 49.4582 6.98903 49.4564C7.02187 49.4533 7.061 49.4492 7.09788 49.4438V49.4415C11.7983 39.3444 16.8954 31.3092 21.9719 26.4774C22.5305 25.2122 23.0802 24.2464 23.6834 23.5155C23.3303 22.9191 22.9448 22.4225 22.5139 22.06C22.5094 22.0577 22.5049 22.0564 22.5013 22.0519C22.4779 22.042 22.4541 22.0307 22.4302 22.0181C22.4069 22.0054 22.3832 21.9932 22.3592 21.9817C22.3367 21.9727 22.3115 21.9606 22.2899 21.948C22.2617 21.9388 22.2346 21.9268 22.2089 21.912C22.1864 21.9048 22.1671 21.894 22.146 21.885C22.1009 21.8677 22.0564 21.8493 22.0124 21.8297L21.9557 21.8072C21.922 21.7959 21.889 21.7828 21.8567 21.768C21.8396 21.7635 21.8216 21.7563 21.8028 21.7509C21.7551 21.7352 21.7101 21.7181 21.666 21.7033C21.6584 21.701 21.6557 21.701 21.6539 21.6988C21.5999 21.6821 21.5482 21.6686 21.4942 21.6538C21.4816 21.6479 21.4717 21.6457 21.4582 21.6421C21.4105 21.6295 21.3683 21.616 21.3251 21.6043C21.3138 21.603 21.3026 21.5998 21.2936 21.5971C21.1831 21.5681 21.0714 21.5436 20.9589 21.5238C20.9486 21.5229 20.9351 21.5193 20.9238 21.5166L20.779 21.4941C20.77 21.4896 20.761 21.4896 20.7507 21.4878L20.5784 21.4653C20.5694 21.464 20.5595 21.4617 20.5483 21.4617C20.5033 21.4545 20.4601 21.4514 20.4169 21.4473C20.3436 21.4527 20.2748 21.4595 20.2055 21.4662" fill="white"></path></mask><g mask="url(#mask32_1278_12104)"><mask id="mask33_1278_12104" style="mask-type:luminance" maskUnits="userSpaceOnUse" x="-2" y="17" width="31" height="37"><path d="M3.64156 53.0125L-1.77539 22.2911L22.9834 17.9258L28.4004 48.6472L3.64156 53.0129V53.0125Z" fill="white"></path></mask><g mask="url(#mask33_1278_12104)"><mask id="mask34_1278_12104" style="mask-type:luminance" maskUnits="userSpaceOnUse" x="-2" y="17" width="31" height="37"><path d="M3.64156 53.0121L-1.77539 22.2907L22.983 17.925L28.3999 48.6463L3.6411 53.0121H3.64156Z" fill="white"></path></mask><g mask="url(#mask34_1278_12104)"><path d="M3.64156 53.0125L-1.77539 22.2911L22.9834 17.9258L28.4004 48.6472L3.64156 53.0129V53.0125Z" fill="url(#paint8_linear_1278_12104)"></path></g></g></g><mask id="mask35_1278_12104" style="mask-type:luminance" maskUnits="userSpaceOnUse" x="51" y="21" width="10" height="17"><path d="M54.4074 28.3428L51.498 37.6222C54.6736 33.2528 57.8006 27.7581 60.7774 21.4145C57.305 22.5062 55.4518 25.0021 54.4069 28.3424" fill="white"></path></mask><g mask="url(#mask35_1278_12104)"><mask id="mask36_1278_12104" style="mask-type:luminance" maskUnits="userSpaceOnUse" x="51" y="21" width="10" height="17"><path d="M51.5156 21.411H60.795V37.6182H51.5156V21.411Z" fill="white"></path></mask><g mask="url(#mask36_1278_12104)"><mask id="mask37_1278_12104" style="mask-type:luminance" maskUnits="userSpaceOnUse" x="51" y="21" width="10" height="17"><path d="M51.5156 37.6182V21.4105H60.795V37.6182H51.5156Z" fill="white"></path></mask><g mask="url(#mask37_1278_12104)"><path d="M51.5156 21.411H60.795V37.6182H51.5156V21.411Z" fill="url(#paint9_linear_1278_12104)"></path></g></g></g><mask id="mask38_1278_12104" style="mask-type:luminance" maskUnits="userSpaceOnUse" x="43" y="18" width="41" height="15"><mask id="mask39_1278_12104" style="mask-type:luminance" maskUnits="userSpaceOnUse" x="43" y="18" width="41" height="15"><path d="M43.1484 18.3442H83.4033V32.3771H43.1484V18.3442Z" fill="white"></path></mask><g mask="url(#mask39_1278_12104)"><mask id="mask40_1278_12104" style="mask-type:luminance" maskUnits="userSpaceOnUse" x="42" y="17" width="42" height="16"><path d="M42.709 17.8944H83.8522V32.8165H42.709V17.894V17.8944Z" fill="white"></path></mask><g mask="url(#mask40_1278_12104)"><mask id="mask41_1278_12104" style="mask-type:luminance" maskUnits="userSpaceOnUse" x="43" y="18" width="41" height="15"><path d="M43.1484 32.3771H83.3966V18.3541H43.1484V32.3771Z" fill="white"></path></mask><g mask="url(#mask41_1278_12104)"><mask id="mask42_1278_12104" style="mask-type:luminance" maskUnits="userSpaceOnUse" x="43" y="18" width="41" height="15"><path d="M43.1484 18.3442H83.4033V32.3771H43.1484V18.3442Z" fill="white"></path></mask><g mask="url(#mask42_1278_12104)"><mask id="mask43_1278_12104" style="mask-type:luminance" maskUnits="userSpaceOnUse" x="43" y="18" width="41" height="15"><path d="M43.1484 32.3771H83.3966V18.3541H43.1484V32.3771Z" fill="white"></path></mask><g mask="url(#mask43_1278_12104)"><mask id="mask44_1278_12104" style="mask-type:luminance" maskUnits="userSpaceOnUse" x="43" y="18" width="41" height="15"><path d="M43.1484 18.3541H83.393V32.3771H43.1484V18.3541Z" fill="white"></path></mask><g mask="url(#mask44_1278_12104)"><mask id="mask45_1278_12104" style="mask-type:luminance" maskUnits="userSpaceOnUse" x="43" y="18" width="41" height="15"><path d="M83.4028 32.3667H43.1592V18.3437H83.4028V32.3667Z" fill="white"></path></mask><g mask="url(#mask45_1278_12104)"><mask id="mask46_1278_12104" style="mask-type:luminance" maskUnits="userSpaceOnUse" x="43" y="18" width="41" height="15"><path d="M83.4028 18.3442V32.3667H43.1592V18.3437H83.4028V18.3442Z" fill="white"></path></mask><g mask="url(#mask46_1278_12104)"><path d="M83.4028 32.3667H43.1592V18.3437H83.4028V32.3667Z" fill="url(#paint10_linear_1278_12104)"></path></g></g></g></g></g></g></g></g></mask><g mask="url(#mask38_1278_12104)"><mask id="mask47_1278_12104" style="mask-type:luminance" maskUnits="userSpaceOnUse" x="46" y="17" width="27" height="34"><path d="M46.4365 17.8534H72.8398V50.9713H46.4365V17.8534Z" fill="white"></path></mask><g mask="url(#mask47_1278_12104)"><mask id="mask48_1278_12104" style="mask-type:luminance" maskUnits="userSpaceOnUse" x="51" y="20" width="18" height="29"><path d="M51.1123 48.0925H68.1854V20.813H51.1123V48.0925Z" fill="white"></path></mask><g mask="url(#mask48_1278_12104)"><mask id="mask49_1278_12104" style="mask-type:luminance" maskUnits="userSpaceOnUse" x="51" y="20" width="18" height="29"><path d="M51.5982 47.8609L51.1143 48.0925C57.29 45.3384 64.6569 34.4132 68.1842 20.813H67.4645C59.3618 35.2876 56.7557 44.9763 51.5942 47.8609" fill="white"></path></mask><g mask="url(#mask49_1278_12104)"><mask id="mask50_1278_12104" style="mask-type:luminance" maskUnits="userSpaceOnUse" x="46" y="17" width="27" height="34"><path d="M72.8348 21.5948L67.6549 50.9668L46.4355 47.2253L51.6155 17.8534L72.8348 21.5948Z" fill="white"></path></mask><g mask="url(#mask50_1278_12104)"><mask id="mask51_1278_12104" style="mask-type:luminance" maskUnits="userSpaceOnUse" x="46" y="17" width="27" height="34"><path d="M72.8348 21.5948L67.6549 50.9668L46.4355 47.2253L51.6155 17.8534L72.8348 21.5948Z" fill="white"></path></mask><g mask="url(#mask51_1278_12104)"><path d="M72.8348 21.5948L67.6549 50.9668L46.4355 47.2253L51.6155 17.8534L72.8348 21.5948Z" fill="url(#paint11_linear_1278_12104)"></path></g></g></g></g></g></g><path d="M47.5659 46.6456C48.9096 45.0047 50.0049 42.2166 51.4975 37.6226C49.775 39.9903 48.0431 42.0245 46.3036 43.6844C46.3015 43.6895 46.3014 43.6938 46.2979 43.6999C46.6768 44.8334 47.0924 45.8366 47.5659 46.6456Z" fill="#079AE1"></path><path d="M47.5663 46.6455C47.1093 47.204 46.6253 47.6279 46.0856 47.9431L45.7275 48.1356C46.312 48.4515 46.9513 48.6531 47.6113 48.7293H47.616L47.9236 48.7567H47.9431L48.087 48.7639H48.1072L48.2594 48.766L48.4231 48.7639L48.4735 48.7603L48.5886 48.7567L48.6451 48.7495L48.7531 48.7423C48.7588 48.7423 48.7621 48.7423 48.7657 48.7387C48.7801 48.7387 48.7937 48.7365 48.8074 48.7365L48.9276 48.7239C48.9312 48.7239 48.933 48.7225 48.9384 48.7225C48.9492 48.72 48.9625 48.7182 48.9744 48.7167L49.1039 48.698C49.1169 48.698 49.128 48.6944 49.1421 48.6926L49.2871 48.6689H49.2954C49.299 48.6663 49.3054 48.6663 49.3083 48.6653L49.5973 48.6041C48.8006 48.3162 48.1338 47.6235 47.5588 46.6444" fill="#1969BC"></path><path d="M36.1807 48.7661C36.7673 48.765 37.3526 48.7088 37.9288 48.598C38.47 48.4984 39.014 48.3479 39.5588 48.1576C40.0112 48.3793 40.4865 48.5426 40.9896 48.6463C41.3796 48.7254 41.7812 48.7664 42.213 48.7664H36.1843L36.1807 48.7661Z" fill="#1E5CB3"></path><path d="M42.2094 48.7661C43.6372 48.7661 44.7671 48.598 45.7272 48.1364C46.3113 48.453 46.9508 48.6545 47.611 48.7301H47.6156L47.9233 48.7574H47.9427L48.0867 48.7646H48.1068L48.259 48.7668H42.2051L42.2094 48.7661Z" fill="#1E5CB3"></path><path d="M48.2634 48.7661L48.4271 48.7639L48.4775 48.7603L48.5926 48.7567L48.6491 48.7495L48.7571 48.7423C48.7628 48.7423 48.765 48.7423 48.7697 48.7401C48.7841 48.7401 48.7974 48.7365 48.8128 48.7365L48.9316 48.724C48.9352 48.724 48.937 48.7225 48.9424 48.7225C48.9532 48.72 48.9665 48.7182 48.9784 48.7168L49.1079 48.698C49.1208 48.6978 49.1336 48.696 49.1461 48.6926L49.2911 48.6689H49.2983C49.3037 48.6664 49.3091 48.6664 49.3127 48.6653L49.602 48.6041C49.8848 48.7081 50.184 48.7605 50.4854 48.7589L48.2598 48.7646L48.2634 48.7661Z" fill="#1D60B5"></path><path d="M46.2949 43.6999C46.2949 43.6974 46.2927 43.6942 46.2927 43.692L44.3856 45.361L43.3906 46.108L44.2521 47.0436C44.7055 47.4826 45.1877 47.8532 45.7202 48.14L46.0783 47.9475C46.618 47.6323 47.1024 47.2084 47.559 46.6499C47.0862 45.8403 46.6702 44.8381 46.2909 43.7043" fill="#175FAB"></path><mask id="mask52_1278_12104" style="mask-type:luminance" maskUnits="userSpaceOnUse" x="47" y="20" width="21" height="29"><path d="M65.205 20.813H62.2013C62.1 20.813 62.0011 20.8153 61.9021 20.8166L61.6197 20.8198H61.6129L61.043 20.8468L60.7731 21.4144C57.7955 27.7575 54.6684 33.2532 51.4938 37.6221C50.0004 42.2163 48.9056 45.0047 47.5625 46.6451C48.1373 47.6243 48.8039 48.3129 49.6001 48.6062C49.6235 48.5986 49.6415 48.5954 49.6617 48.5914C49.6662 48.5882 49.6707 48.5882 49.6752 48.5882C49.6887 48.586 49.7036 48.5801 49.7179 48.5792C49.7508 48.5716 49.7854 48.5644 49.8169 48.5531L49.8772 48.5374C49.9064 48.5293 49.9383 48.5216 49.9662 48.5149C49.9842 48.5068 50.0022 48.5028 50.022 48.4983C50.0683 48.4834 50.1097 48.4735 50.1543 48.4591C50.174 48.4501 50.1961 48.4429 50.2199 48.4375C50.2447 48.4285 50.2707 48.4213 50.2932 48.4105C50.3202 48.4024 50.3463 48.397 50.3697 48.3867C50.3904 48.3813 50.4129 48.3719 50.4327 48.3629C50.4844 48.3449 50.5352 48.3291 50.5888 48.3089C50.6022 48.3044 50.6157 48.2963 50.6306 48.2936C50.6621 48.2801 50.6949 48.2711 50.7205 48.2558C50.7331 48.2513 50.7466 48.2455 50.7655 48.241C50.8777 48.1957 50.9889 48.1483 51.0993 48.0988C51.1002 48.0988 51.106 48.0966 51.1096 48.0943C51.2702 48.0233 51.4317 47.945 51.5923 47.8627C56.7551 44.9786 59.3612 35.2899 67.4639 20.8148H65.2005L65.205 20.813Z" fill="white"></path></mask><g mask="url(#mask52_1278_12104)"><mask id="mask53_1278_12104" style="mask-type:luminance" maskUnits="userSpaceOnUse" x="47" y="20" width="21" height="29"><path d="M67.4554 48.6089H47.5518V20.8112H67.4554V48.6089Z" fill="white"></path></mask><g mask="url(#mask53_1278_12104)"><mask id="mask54_1278_12104" style="mask-type:luminance" maskUnits="userSpaceOnUse" x="47" y="20" width="21" height="29"><path d="M67.4554 20.8157V48.6134H47.5518V20.8157H67.4554Z" fill="white"></path></mask><g mask="url(#mask54_1278_12104)"><path d="M67.4554 48.6089H47.5518V20.8112H67.4554V48.6089Z" fill="url(#paint12_linear_1278_12104)"></path></g></g></g><mask id="mask55_1278_12104" style="mask-type:luminance" maskUnits="userSpaceOnUse" x="14" y="20" width="18" height="5"><mask id="mask56_1278_12104" style="mask-type:luminance" maskUnits="userSpaceOnUse" x="14" y="20" width="18" height="5"><path d="M14.5498 20.2949H31.6359V24.2351H14.5498V20.2949Z" fill="white"></path></mask><g mask="url(#mask56_1278_12104)"><mask id="mask57_1278_12104" style="mask-type:luminance" maskUnits="userSpaceOnUse" x="14" y="19" width="19" height="6"><path d="M14.0996 19.8487H32.0808V24.6849H14.0996V19.8487Z" fill="white"></path></mask><g mask="url(#mask57_1278_12104)"><mask id="mask58_1278_12104" style="mask-type:luminance" maskUnits="userSpaceOnUse" x="14" y="20" width="18" height="5"><path d="M14.5508 24.2319H31.6342V20.2948H14.5508V24.2319Z" fill="white"></path></mask><g mask="url(#mask58_1278_12104)"><mask id="mask59_1278_12104" style="mask-type:luminance" maskUnits="userSpaceOnUse" x="14" y="20" width="18" height="5"><path d="M14.5498 20.2949H31.6359V24.2351H14.5498V20.2949Z" fill="white"></path></mask><g mask="url(#mask59_1278_12104)"><mask id="mask60_1278_12104" style="mask-type:luminance" maskUnits="userSpaceOnUse" x="14" y="20" width="18" height="5"><path d="M14.5508 24.2319H31.6342V20.2948H14.5508V24.2319Z" fill="white"></path></mask><g mask="url(#mask60_1278_12104)"><mask id="mask61_1278_12104" style="mask-type:luminance" maskUnits="userSpaceOnUse" x="14" y="20" width="18" height="5"><path d="M31.6363 24.2319H14.5547V20.2948H31.6363V24.2319Z" fill="white"></path></mask><g mask="url(#mask61_1278_12104)"><mask id="mask62_1278_12104" style="mask-type:luminance" maskUnits="userSpaceOnUse" x="14" y="20" width="18" height="5"><path d="M14.5498 20.2985H31.6314V24.2356H14.5498V20.2985Z" fill="white"></path></mask><g mask="url(#mask62_1278_12104)"><mask id="mask63_1278_12104" style="mask-type:luminance" maskUnits="userSpaceOnUse" x="14" y="20" width="18" height="5"><path d="M14.5498 24.2346V20.298H31.6314V24.2346H14.5498Z" fill="white"></path></mask><g mask="url(#mask63_1278_12104)"><path d="M14.5498 20.2985H31.6314V24.2356H14.5498V20.2985Z" fill="url(#paint13_linear_1278_12104)"></path></g></g></g></g></g></g></g></g></mask><g mask="url(#mask55_1278_12104)"><mask id="mask64_1278_12104" style="mask-type:luminance" maskUnits="userSpaceOnUse" x="19" y="18" width="14" height="9"><path d="M19.3369 18.1754H32.8669V26.3474H19.3369V18.1754Z" fill="white"></path></mask><g mask="url(#mask64_1278_12104)"><mask id="mask65_1278_12104" style="mask-type:luminance" maskUnits="userSpaceOnUse" x="19" y="21" width="14" height="4"><path d="M19.7705 24.0607H32.0712V21.4177H19.7705V24.0607Z" fill="white"></path></mask><g mask="url(#mask65_1278_12104)"><path d="M20.3942 21.4491L20.432 21.4536C20.4634 21.4549 20.4947 21.4584 20.5256 21.4639C20.5368 21.4639 20.5467 21.4662 20.5557 21.4675L20.728 21.49C20.7379 21.4923 20.7473 21.4923 20.7563 21.4954L20.9011 21.5193C20.9128 21.5229 20.9249 21.5254 20.9371 21.5265L21.2709 21.5998L21.3015 21.607L21.4364 21.6448C21.4499 21.6484 21.4602 21.6506 21.4724 21.6565L21.6321 21.7014C21.6339 21.7041 21.6366 21.7041 21.6429 21.7059L21.7778 21.7536L21.8318 21.7716L21.9307 21.8166C21.9487 21.8211 21.9681 21.8283 21.9874 21.8359L22.1197 21.8912L22.184 21.9191L22.2649 21.9533C22.2874 21.9659 22.3131 21.9767 22.3351 21.9871L22.4062 22.023C22.981 22.3055 23.5104 22.6807 23.9998 23.1385C24.1753 22.9539 24.364 22.7822 24.5643 22.6249C23.4938 21.8661 22.2793 21.4329 20.8796 21.4329C20.7164 21.4324 20.5532 21.4393 20.3906 21.4536" fill="#7DCBEC"></path><path d="M24.004 23.1341C24.304 23.4139 24.5914 23.7247 24.8586 24.0607L25.6439 23.5371C25.3012 23.1944 24.9391 22.8867 24.5635 22.6204C24.3683 22.7733 24.1803 22.9443 23.999 23.1341" fill="#5EC5ED"></path><mask id="mask66_1278_12104" style="mask-type:luminance" maskUnits="userSpaceOnUse" x="19" y="21" width="10" height="2"><path d="M20.3945 21.4491L20.8834 21.4284C22.2832 21.4284 23.4922 21.8615 24.5682 22.6204C25.6994 21.7298 27.0659 21.4176 28.9641 21.4176H19.7715C19.9829 21.4176 20.1907 21.4293 20.3945 21.4491Z" fill="white"></path></mask><g mask="url(#mask66_1278_12104)"><mask id="mask67_1278_12104" style="mask-type:luminance" maskUnits="userSpaceOnUse" x="19" y="18" width="11" height="8"><path d="M21.1123 18.1755L29.3819 21.6052L27.6065 25.8855L19.3369 22.4553L21.1123 18.1755Z" fill="white"></path></mask><g mask="url(#mask67_1278_12104)"><mask id="mask68_1278_12104" style="mask-type:luminance" maskUnits="userSpaceOnUse" x="19" y="18" width="11" height="8"><path d="M21.1123 18.1759L29.3819 21.6061L27.6065 25.8864L19.3369 22.4562L21.1123 18.1759Z" fill="white"></path></mask><g mask="url(#mask68_1278_12104)"><path d="M21.1123 18.1755L29.3819 21.6052L27.6065 25.8855L19.3369 22.4553L21.1123 18.1755Z" fill="url(#paint14_linear_1278_12104)"></path></g></g></g><mask id="mask69_1278_12104" style="mask-type:luminance" maskUnits="userSpaceOnUse" x="24" y="21" width="9" height="3"><path d="M28.9643 21.4177C27.0661 21.4177 25.6996 21.7294 24.5684 22.6204C24.9439 22.8867 25.306 23.1944 25.6488 23.5371C27.2217 22.5359 28.7807 21.8737 30.3177 21.585C30.9047 21.4743 31.4899 21.4186 32.0665 21.4186H28.9643V21.4177Z" fill="white"></path></mask><g mask="url(#mask69_1278_12104)"><mask id="mask70_1278_12104" style="mask-type:luminance" maskUnits="userSpaceOnUse" x="23" y="18" width="10" height="9"><path d="M23.7744 21.7649L30.7913 18.5848L32.8667 23.1625L25.8498 26.3425L23.7744 21.7649Z" fill="white"></path></mask><g mask="url(#mask70_1278_12104)"><mask id="mask71_1278_12104" style="mask-type:luminance" maskUnits="userSpaceOnUse" x="23" y="18" width="10" height="9"><path d="M23.7744 21.7649L30.7913 18.5839L32.8662 23.1615L25.8493 26.3425L23.7744 21.7649Z" fill="white"></path></mask><g mask="url(#mask71_1278_12104)"><path d="M23.7744 21.7649L30.7913 18.5848L32.8667 23.1625L25.8498 26.3425L23.7744 21.7649Z" fill="url(#paint15_linear_1278_12104)"></path></g></g></g></g></g></g><mask id="mask72_1278_12104" style="mask-type:luminance" maskUnits="userSpaceOnUse" x="33" y="22" width="42" height="24"><mask id="mask73_1278_12104" style="mask-type:luminance" maskUnits="userSpaceOnUse" x="33" y="22" width="42" height="24"><path d="M33.8818 22.951H74.139V45.051H33.8818V22.951Z" fill="white"></path></mask><g mask="url(#mask73_1278_12104)"><mask id="mask74_1278_12104" style="mask-type:luminance" maskUnits="userSpaceOnUse" x="33" y="22" width="42" height="24"><path d="M33.4463 22.5179H74.5895V45.5009H33.4463V22.5179Z" fill="white"></path></mask><g mask="url(#mask74_1278_12104)"><mask id="mask75_1278_12104" style="mask-type:luminance" maskUnits="userSpaceOnUse" x="33" y="22" width="42" height="24"><path d="M33.8818 45.0344H74.1309V22.951H33.8818V45.0344Z" fill="white"></path></mask><g mask="url(#mask75_1278_12104)"><mask id="mask76_1278_12104" style="mask-type:luminance" maskUnits="userSpaceOnUse" x="33" y="22" width="42" height="24"><path d="M33.8818 22.951H74.139V45.051H33.8818V22.951Z" fill="white"></path></mask><g mask="url(#mask76_1278_12104)"><mask id="mask77_1278_12104" style="mask-type:luminance" maskUnits="userSpaceOnUse" x="33" y="22" width="42" height="24"><path d="M33.8818 45.0344H74.1309V22.951H33.8818V45.0344Z" fill="white"></path></mask><g mask="url(#mask77_1278_12104)"><mask id="mask78_1278_12104" style="mask-type:luminance" maskUnits="userSpaceOnUse" x="33" y="22" width="42" height="24"><path d="M74.1284 45.0344H33.8848V22.951H74.1284V45.0344Z" fill="white"></path></mask><g mask="url(#mask78_1278_12104)"><mask id="mask79_1278_12104" style="mask-type:luminance" maskUnits="userSpaceOnUse" x="33" y="22" width="42" height="24"><path d="M33.8965 22.9676H74.1401V45.051H33.8965V22.9681V22.9676Z" fill="white"></path></mask><g mask="url(#mask79_1278_12104)"><mask id="mask80_1278_12104" style="mask-type:luminance" maskUnits="userSpaceOnUse" x="33" y="22" width="42" height="24"><path d="M33.8975 45.051V22.9681H74.1411V45.051H33.8975Z" fill="white"></path></mask><g mask="url(#mask80_1278_12104)"><path d="M33.8965 22.9676H74.1401V45.051H33.8965V22.9681V22.9676Z" fill="url(#paint16_linear_1278_12104)"></path></g></g></g></g></g></g></g></g></mask><g mask="url(#mask72_1278_12104)"><mask id="mask81_1278_12104" style="mask-type:luminance" maskUnits="userSpaceOnUse" x="46" y="20" width="16" height="24"><path d="M46.3047 20.8406H61.1067V43.6846H46.3047V20.8406Z" fill="white"></path></mask><g mask="url(#mask81_1278_12104)"><mask id="mask82_1278_12104" style="mask-type:luminance" maskUnits="userSpaceOnUse" x="46" y="20" width="16" height="24"><path d="M46.3057 43.6846H61.038V20.8473H46.3057V43.6846Z" fill="white"></path></mask><g mask="url(#mask82_1278_12104)"><mask id="mask83_1278_12104" style="mask-type:luminance" maskUnits="userSpaceOnUse" x="46" y="20" width="16" height="24"><path d="M51.4933 37.6249L54.4048 28.3428C55.4484 25.0017 57.2984 22.5057 60.7731 21.415L61.0398 20.8473C55.3723 21.186 52.7307 24.0679 51.3984 28.3329C49.0693 35.7807 47.6587 40.6088 46.3008 43.6846C48.0357 42.0257 49.7696 39.9899 51.4933 37.6249Z" fill="white"></path></mask><g mask="url(#mask83_1278_12104)"><mask id="mask84_1278_12104" style="mask-type:luminance" maskUnits="userSpaceOnUse" x="46" y="20" width="16" height="24"><path d="M61.1071 43.6779H46.3672V20.8406H61.1071V43.6779Z" fill="white"></path></mask><g mask="url(#mask84_1278_12104)"><mask id="mask85_1278_12104" style="mask-type:luminance" maskUnits="userSpaceOnUse" x="46" y="20" width="16" height="24"><path d="M61.1071 20.8406V43.677H46.3672V20.8406H61.1071Z" fill="white"></path></mask><g mask="url(#mask85_1278_12104)"><path d="M61.1071 43.6779H46.3672V20.8406H61.1071V43.6779Z" fill="url(#paint17_linear_1278_12104)"></path></g></g></g></g></g></g></g><defs><linearGradient id="paint0_linear_1278_12104" x1="2364.48" y1="-9489.82" x2="2364.48" y2="-7730.44" gradientUnits="userSpaceOnUse"><stop stop-color="#0994DC"></stop><stop offset="0.11" stop-color="#0994DC"></stop><stop offset="0.35" stop-color="#66CEF5"></stop><stop offset="0.45" stop-color="#66CEF5"></stop><stop offset="0.846" stop-color="#127BCA"></stop><stop offset="1" stop-color="#127BCA"></stop></linearGradient><linearGradient id="paint1_linear_1278_12104" x1="2523.08" y1="-9777.32" x2="2523.08" y2="-7927.11" gradientUnits="userSpaceOnUse"><stop stop-color="#0E76BC"></stop><stop offset="0.176" stop-color="#0E76BC"></stop><stop offset="0.36" stop-color="#36AEE8"></stop><stop offset="0.52" stop-color="#36AEE8"></stop><stop offset="0.846" stop-color="#00ADEF"></stop><stop offset="1" stop-color="#00ADEF"></stop></linearGradient><linearGradient id="paint2_linear_1278_12104" x1="2527.77" y1="-10350.4" x2="2527.77" y2="-8355.89" gradientUnits="userSpaceOnUse"><stop stop-color="#166AB8"></stop><stop offset="0.099" stop-color="#166AB8"></stop><stop offset="0.4" stop-color="#36AEE8"></stop><stop offset="0.516" stop-color="#36AEE8"></stop><stop offset="0.846" stop-color="#0798DD"></stop><stop offset="1" stop-color="#0798DD"></stop></linearGradient><linearGradient id="paint3_linear_1278_12104" x1="3155.39" y1="-10997.1" x2="3155.39" y2="-8741.93" gradientUnits="userSpaceOnUse"><stop stop-color="#124379"></stop><stop offset="0.11" stop-color="#124379"></stop><stop offset="0.39" stop-color="#1487CB"></stop><stop offset="0.52" stop-color="#1487CB"></stop><stop offset="0.78" stop-color="#165197"></stop><stop offset="1" stop-color="#165197"></stop></linearGradient><linearGradient id="paint4_linear_1278_12104" x1="1898.01" y1="-7372.15" x2="1898.01" y2="-8671.86" gradientUnits="userSpaceOnUse"><stop stop-color="#318ED5"></stop><stop offset="0.675" stop-color="#38A7E4"></stop><stop offset="1" stop-color="#38A7E4"></stop></linearGradient><linearGradient id="paint5_linear_1278_12104" x1="8908.58" y1="-24272.9" x2="5286.2" y2="-17879.6" gradientUnits="userSpaceOnUse"><stop stop-color="#231F20"></stop><stop offset="0.129" stop-color="white"></stop><stop offset="0.4" stop-color="white"></stop><stop offset="1" stop-color="white"></stop></linearGradient><linearGradient id="paint6_linear_1278_12104" x1="1818.01" y1="-5685.48" x2="1818.01" y2="-6663.12" gradientUnits="userSpaceOnUse"><stop stop-color="#05A1E6"></stop><stop offset="1" stop-color="#05A1E6"></stop></linearGradient><linearGradient id="paint7_linear_1278_12104" x1="2142.47" y1="-8018.92" x2="2142.47" y2="-9191.61" gradientUnits="userSpaceOnUse"><stop stop-color="#1959A6"></stop><stop offset="0.154" stop-color="#1959A6"></stop><stop offset="0.484" stop-color="#05A1E6"></stop><stop offset="0.5" stop-color="#05A1E6"></stop><stop offset="0.918" stop-color="#7EC5EA"></stop><stop offset="1" stop-color="#7EC5EA"></stop></linearGradient><linearGradient id="paint8_linear_1278_12104" x1="4383.15" y1="-12390.6" x2="3989.03" y2="-14312.8" gradientUnits="userSpaceOnUse"><stop stop-color="#165096"></stop><stop offset="0.104" stop-color="#165096"></stop><stop offset="1" stop-color="#0D82CA"></stop></linearGradient><linearGradient id="paint9_linear_1278_12104" x1="2242.04" y1="-6217.77" x2="2242.04" y2="-6686.69" gradientUnits="userSpaceOnUse"><stop stop-color="#05A1E6"></stop><stop offset="0.649" stop-color="#05A1E6"></stop><stop offset="0.874" stop-color="#0495D6"></stop><stop offset="1" stop-color="#0495D6"></stop></linearGradient><linearGradient id="paint10_linear_1278_12104" x1="10180.8" y1="-5864.64" x2="10180.8" y2="-5427.46" gradientUnits="userSpaceOnUse"><stop stop-color="#231F20"></stop><stop offset="1" stop-color="white"></stop></linearGradient><linearGradient id="paint11_linear_1278_12104" x1="6635.53" y1="-13778.8" x2="6155.21" y2="-11607.2" gradientUnits="userSpaceOnUse"><stop stop-color="#38A7E4"></stop><stop offset="0.357" stop-color="#38A7E4"></stop><stop offset="0.962" stop-color="#0E88D3"></stop><stop offset="1" stop-color="#0E88D3"></stop></linearGradient><linearGradient id="paint12_linear_1278_12104" x1="4805.78" y1="-11493.3" x2="4805.78" y2="-9738.76" gradientUnits="userSpaceOnUse"><stop stop-color="#168CD4"></stop><stop offset="0.5" stop-color="#1C87CC"></stop><stop offset="1" stop-color="#154B8D"></stop></linearGradient><linearGradient id="paint13_linear_1278_12104" x1="2791.25" y1="-1579.85" x2="2791.25" y2="-1614.31" gradientUnits="userSpaceOnUse"><stop stop-color="white"></stop><stop offset="0.363" stop-color="white"></stop><stop offset="1" stop-color="#918F90"></stop></linearGradient><linearGradient id="paint14_linear_1278_12104" x1="1612.09" y1="-3185.35" x2="1744.57" y2="-3113.76" gradientUnits="userSpaceOnUse"><stop stop-color="#97D6EE"></stop><stop offset="0.703" stop-color="#55C1EA"></stop><stop offset="1" stop-color="#55C1EA"></stop></linearGradient><linearGradient id="paint15_linear_1278_12104" x1="1542.15" y1="-3148.94" x2="1640.3" y2="-3201.08" gradientUnits="userSpaceOnUse"><stop stop-color="#7ACCEC"></stop><stop offset="0.335" stop-color="#7ACCEC"></stop><stop offset="0.841" stop-color="#3FB7ED"></stop><stop offset="1" stop-color="#3FB7ED"></stop></linearGradient><linearGradient id="paint16_linear_1278_12104" x1="9342.77" y1="-7930.37" x2="9342.77" y2="-9014.6" gradientUnits="userSpaceOnUse"><stop stop-color="#231F20"></stop><stop offset="1" stop-color="white"></stop></linearGradient><linearGradient id="paint17_linear_1278_12104" x1="3446.7" y1="-9359.43" x2="3446.7" y2="-7949.52" gradientUnits="userSpaceOnUse"><stop stop-color="#1DA7E7"></stop><stop offset="1" stop-color="#37ABE7"></stop></linearGradient><clipPath id="clip0_1278_12104"><rect width="72" height="72" fill="white"></rect></clipPath></defs></svg>