<svg xmlns="http://www.w3.org/2000/svg" width="56" height="56" viewBox="0 0 56 56" fill="none"><g clip-path="url(#clip0_1283_13264)"><path d="M44.3333 2.33301H11.6667C8.57361 2.33671 5.6083 3.56707 3.42118 5.75419C1.23406 7.94131 0.003705 10.9066 0 13.9997L0 32.6663C0.003705 35.7594 1.23406 38.7247 3.42118 40.9118C5.6083 43.099 8.57361 44.3293 11.6667 44.333H25.6667V48.9997H16.3333C15.7145 48.9997 15.121 49.2455 14.6834 49.6831C14.2458 50.1207 14 50.7142 14 51.333C14 51.9519 14.2458 52.5453 14.6834 52.9829C15.121 53.4205 15.7145 53.6663 16.3333 53.6663H39.6667C40.2855 53.6663 40.879 53.4205 41.3166 52.9829C41.7542 52.5453 42 51.9519 42 51.333C42 50.7142 41.7542 50.1207 41.3166 49.6831C40.879 49.2455 40.2855 48.9997 39.6667 48.9997H30.3333V44.333H44.3333C47.4264 44.3293 50.3917 43.099 52.5788 40.9118C54.7659 38.7247 55.9963 35.7594 56 32.6663V13.9997C55.9963 10.9066 54.7659 7.94131 52.5788 5.75419C50.3917 3.56707 47.4264 2.33671 44.3333 2.33301ZM11.6667 6.99967H44.3333C46.1898 6.99967 47.9703 7.73717 49.2831 9.04993C50.5958 10.3627 51.3333 12.1432 51.3333 13.9997V30.333H4.66667V13.9997C4.66667 12.1432 5.40416 10.3627 6.71692 9.04993C8.02967 7.73717 9.81015 6.99967 11.6667 6.99967ZM44.3333 39.6663H11.6667C10.2241 39.6604 8.81853 39.2088 7.64237 38.3735C6.46621 37.5381 5.57686 36.3598 5.096 34.9997H50.904C50.4231 36.3598 49.5338 37.5381 48.3576 38.3735C47.1815 39.2088 45.7759 39.6604 44.3333 39.6663Z" fill="#2F4445"></path></g><defs><clipPath id="clip0_1283_13264"><rect width="56" height="56" fill="white"></rect></clipPath></defs></svg>