<svg xmlns="http://www.w3.org/2000/svg" width="49" height="48" viewBox="0 0 49 48" fill="none"><path d="M4.71495 26.1198C3.54423 24.9491 3.54423 23.0509 4.71495 21.8802L22.7171 3.87804C23.8879 2.70732 25.786 2.70732 26.9567 3.87804L44.9588 21.8802C46.1296 23.0509 46.1296 24.9491 44.9588 26.1198L26.9567 44.1219C25.786 45.2927 23.8879 45.2927 22.7171 44.1219L4.71495 26.1198Z" fill="#EE513B"></path><path d="M19.0603 7.59229L17.2373 9.4153L21.9457 14.1237C21.7552 14.5323 21.6488 14.988 21.6488 15.4686C21.6488 16.833 22.5061 17.9972 23.7113 18.4518V29.9697C22.5061 30.4244 21.6488 31.5885 21.6488 32.9529C21.6488 34.7133 23.0759 36.1404 24.8363 36.1404C26.5967 36.1404 28.0238 34.7133 28.0238 32.9529C28.0238 31.716 27.3193 30.6435 26.2895 30.1152V18.4676L30.7903 22.9683C30.6091 23.3687 30.5083 23.8131 30.5083 24.2811C30.5083 26.0415 31.9354 27.4686 33.6958 27.4686C35.4562 27.4686 36.8833 26.0415 36.8833 24.2811C36.8833 22.5207 35.4562 21.0936 33.6958 21.0936C33.3536 21.0936 33.0242 21.1475 32.7152 21.2472L27.8815 16.4135C27.974 16.115 28.0238 15.7976 28.0238 15.4686C28.0238 13.7082 26.5967 12.2811 24.8363 12.2811C24.5074 12.2811 24.1901 12.3309 23.8915 12.4235L19.0603 7.59229Z" fill="white"></path></svg>