<svg xmlns="http://www.w3.org/2000/svg" width="73" height="72" viewBox="0 0 73 72" fill="none"><g clip-path="url(#clip0_1410_12694)"><path d="M6.01523 30.7125C5.90273 30.7125 5.79023 30.6 5.90273 30.4875L6.69023 29.5875C6.80273 29.475 6.91523 29.3625 7.02773 29.3625H19.5152C19.6277 29.3625 19.7402 29.475 19.6277 29.5875L19.0652 30.4875C18.9527 30.6 18.8402 30.7125 18.7277 30.7125H6.01523ZM0.727734 33.975C0.615234 33.975 0.615234 33.8625 0.615234 33.75L1.40273 32.85C1.40273 32.7375 1.62773 32.625 1.74023 32.625H17.7152C17.8277 32.625 17.9402 32.7375 17.9402 32.85L17.7152 33.6375C17.7152 33.75 17.4902 33.8625 17.3777 33.8625L0.727734 33.975ZM9.27773 37.125C9.16523 37.125 9.05273 37.0125 9.16523 36.9L9.61523 36.1125C9.72773 36 9.84023 35.8875 9.95273 35.8875H16.9277C17.0402 35.8875 17.1527 36 17.1527 36.1125L17.0402 36.9C17.0402 37.0125 16.9277 37.125 16.8152 37.125H9.27773ZM45.6152 30.0375L39.7652 31.6125C39.2027 31.725 39.2027 31.8375 38.7527 31.275C38.1902 30.7125 37.8527 30.2625 37.0652 29.925C34.8152 28.8 32.6777 29.1375 30.7652 30.4875C28.4027 32.0625 27.1652 34.3125 27.1652 37.125C27.1652 39.9375 29.0777 42.1875 31.8902 42.6375C34.2527 42.975 36.2777 42.075 37.8527 40.275C38.1902 39.9375 38.4152 39.4875 38.7527 38.925H32.0027C31.2152 38.925 31.1027 38.475 31.3277 37.9125C31.7777 36.7875 32.6777 34.9875 33.1277 34.0875C33.2402 33.8625 33.4652 33.525 34.0277 33.525H46.7402C46.6277 34.425 46.6277 35.4375 46.5152 36.3375C46.1777 38.8125 45.1652 41.175 43.5902 43.2C41.1152 46.575 37.7402 48.6 33.5777 49.1625C30.0902 49.6125 26.9402 48.9375 24.1277 46.8C21.5402 44.8875 20.0777 42.1875 19.6277 39.0375C19.1777 35.2125 20.3027 31.8375 22.5527 28.8C25.0277 25.5375 28.2902 23.5125 32.3402 22.725C35.6027 22.1625 38.7527 22.5 41.6777 24.4125C43.5902 25.65 44.8277 27.3375 45.7277 29.3625C46.1777 29.8125 46.0652 29.925 45.6152 30.0375Z" fill="#00ACD7"></path><path d="M57.2025 49.5001C54.0525 49.3876 51.1275 48.4876 48.6525 46.4626C46.6275 44.6626 45.2775 42.4126 44.8275 39.7126C44.1525 35.7751 45.2775 32.2876 47.64 29.1376C50.2275 25.7626 53.265 24.0751 57.4275 23.2876C61.0275 22.6126 64.4025 23.0626 67.44 25.0876C70.2525 27.0001 71.94 29.5876 72.39 32.8501C72.9525 37.5751 71.6025 41.4001 68.34 44.7751C65.9775 47.1376 63.165 48.6001 59.9025 49.2751C59.115 49.2751 58.1025 49.3876 57.2025 49.5001ZM65.5275 35.3251C65.5275 34.8751 65.5275 34.5376 65.415 34.2001C64.74 30.7126 61.59 28.8001 58.215 29.5876C54.9525 30.3751 52.815 32.4001 52.0275 35.6626C51.3525 38.3626 52.7025 41.1751 55.29 42.3001C57.2025 43.0876 59.115 43.0876 61.0275 42.0751C63.84 40.5001 65.415 38.2501 65.5275 35.3251Z" fill="#00ACD7"></path></g><defs><clipPath id="clip0_1410_12694"><rect width="72" height="72" fill="white" transform="translate(0.615234)"></rect></clipPath></defs></svg>