<svg xmlns="http://www.w3.org/2000/svg" width="145" height="48" viewBox="0 0 145 48" fill="none"><g clip-path="url(#clip0_1335_15131)"><path d="M61.6086 24.6156C61.6086 31.2782 56.3198 36.1878 49.8292 36.1878C43.3386 36.1878 38.0498 31.2782 38.0498 24.6156C38.0498 17.9061 43.3386 13.0435 49.8292 13.0435C56.3198 13.0435 61.6086 17.9061 61.6086 24.6156ZM56.4522 24.6156C56.4522 20.4522 53.3869 17.6035 49.8292 17.6035C46.2716 17.6035 43.2063 20.4522 43.2063 24.6156C43.2063 28.7374 46.2716 31.6278 49.8292 31.6278C53.3869 31.6278 56.4522 28.7322 56.4522 24.6156Z" fill="#EA4335"></path><path d="M87.0198 24.6156C87.0198 31.2782 81.7309 36.1878 75.2403 36.1878C68.7498 36.1878 63.4609 31.2782 63.4609 24.6156C63.4609 17.9113 68.7498 13.0435 75.2403 13.0435C81.7309 13.0435 87.0198 17.9061 87.0198 24.6156ZM81.8633 24.6156C81.8633 20.4522 78.798 17.6035 75.2403 17.6035C71.6827 17.6035 68.6174 20.4522 68.6174 24.6156C68.6174 28.7374 71.6827 31.6278 75.2403 31.6278C78.798 31.6278 81.8633 28.7322 81.8633 24.6156Z" fill="#FBBC05"></path><path d="M111.373 13.7426V34.5182C111.373 43.0643 106.259 46.5548 100.213 46.5548C94.5217 46.5548 91.0964 42.8035 89.8047 39.7356L94.2941 37.8939C95.0935 39.7774 97.0523 42 100.208 42C104.078 42 106.476 39.6469 106.476 35.2174V33.553H106.296C105.142 34.9565 102.918 36.1826 100.112 36.1826C94.2411 36.1826 88.8623 31.1426 88.8623 24.6574C88.8623 18.1252 94.2411 13.0435 100.112 13.0435C102.913 13.0435 105.136 14.2695 106.296 15.6313H106.476V13.7478H111.373V13.7426ZM106.841 24.6574C106.841 20.5826 104.083 17.6035 100.573 17.6035C97.0153 17.6035 94.0347 20.5826 94.0347 24.6574C94.0347 28.6904 97.0153 31.6278 100.573 31.6278C104.083 31.6278 106.841 28.6904 106.841 24.6574Z" fill="#4285F4"></path><path d="M119.446 1.56519V35.4782H114.417V1.56519H119.446Z" fill="#34A853"></path><path d="M139.046 28.4243L143.048 31.0539C141.756 32.9373 138.643 36.1826 133.265 36.1826C126.594 36.1826 121.612 31.1008 121.612 24.6104C121.612 17.7286 126.636 13.0382 132.688 13.0382C138.781 13.0382 141.762 17.8173 142.736 20.3999L143.271 21.7147L127.573 28.1217C128.775 30.4434 130.644 31.6278 133.265 31.6278C135.891 31.6278 137.712 30.3547 139.046 28.4243ZM126.726 24.2608L137.219 19.9669C136.642 18.5217 134.906 17.5147 132.862 17.5147C130.242 17.5147 126.594 19.7947 126.726 24.2608Z" fill="#EA4335"></path><path d="M19.0119 21.6052V16.6957H35.7995C35.9636 17.5513 36.0484 18.5635 36.0484 19.6592C36.0484 23.3426 35.0266 27.8974 31.7337 31.1426C28.5307 34.4296 24.4384 36.1826 19.0172 36.1826C8.96894 36.1826 0.519531 28.1165 0.519531 18.2139C0.519531 8.31133 8.96894 0.245239 19.0172 0.245239C24.576 0.245239 28.536 2.3948 31.5113 5.19654L27.996 8.66089C25.8625 6.68872 22.9719 5.1548 19.0119 5.1548C11.6742 5.1548 5.93541 10.9826 5.93541 18.2139C5.93541 25.4452 11.6742 31.2731 19.0119 31.2731C23.7713 31.2731 26.4819 29.3896 28.2184 27.6783C29.6266 26.2905 30.5531 24.3078 30.9184 21.6L19.0119 21.6052Z" fill="#4285F4"></path></g><defs><clipPath id="clip0_1335_15131"><rect width="144" height="48" fill="white" transform="translate(0.329102)"></rect></clipPath></defs></svg>