<svg xmlns="http://www.w3.org/2000/svg" width="70" height="56" viewBox="0 0 70 56" fill="none"><path d="M67.375 38.5H2.625C1.02083 38.6458 0.145833 39.5208 0 41.125V42.875C0.0729167 45.5729 1.02083 47.8333 2.84375 49.6562C4.66667 51.4792 6.92708 52.4271 9.625 52.5H60.375C63.0729 52.4271 65.3333 51.4792 67.1562 49.6562C68.9792 47.8333 69.9271 45.5729 70 42.875V41.125C69.8542 39.5208 68.9792 38.6458 67.375 38.5ZM60.375 47.25H9.625C8.53125 47.25 7.61979 46.9219 6.89062 46.2656C6.08854 45.6094 5.57812 44.7708 5.35938 43.75H64.6406C64.4219 44.7708 63.9115 45.6094 63.1094 46.2656C62.3802 46.9219 61.4688 47.25 60.375 47.25ZM12.25 9.625C12.3229 9.11458 12.6146 8.82292 13.125 8.75H56.875C57.3854 8.82292 57.6771 9.11458 57.75 9.625V35H63V9.625C62.9271 7.875 62.3438 6.41667 61.25 5.25C60.0833 4.15625 58.625 3.57292 56.875 3.5H13.125C11.375 3.57292 9.91667 4.15625 8.75 5.25C7.65625 6.41667 7.07292 7.875 7 9.625V35H12.25V9.625ZM40.0312 28.6562C40.4688 29.0938 40.9792 29.3125 41.5625 29.3125C42.1458 29.3125 42.6562 29.0938 43.0938 28.6562L48.3438 23.4062C49.2188 22.3854 49.2188 21.3646 48.3438 20.3438L43.0938 15.0938C42.0729 14.2188 41.0521 14.2188 40.0312 15.0938C39.1562 16.1146 39.1562 17.1354 40.0312 18.1562L43.75 21.875L40.0312 25.5938C39.1562 26.6146 39.1562 27.6354 40.0312 28.6562ZM29.9688 15.0938C28.9479 14.2188 27.9271 14.2188 26.9062 15.0938L21.6562 20.3438C20.7812 21.3646 20.7812 22.3854 21.6562 23.4062L26.9062 28.6562C27.3438 29.0938 27.8542 29.3125 28.4375 29.3125C29.0208 29.3125 29.5312 29.0938 29.9688 28.6562C30.8438 27.6354 30.8438 26.6146 29.9688 25.5938L26.25 21.875L29.9688 18.1562C30.7708 17.1354 30.7708 16.1146 29.9688 15.0938Z" fill="#2F4445"></path></svg>