<svg xmlns="http://www.w3.org/2000/svg" width="56" height="56" viewBox="0 0 56 56" fill="none"><path d="M16.3334 44.3333H11.2351C10.4991 44.3354 9.77504 44.1473 9.13318 43.7871C8.49132 43.4269 7.95345 42.9069 7.57177 42.2776C7.20523 41.6456 7.01141 40.9282 7.00978 40.1975C7.00814 39.4669 7.19874 38.7487 7.56244 38.115L16.7908 22.1666" stroke="#2F4445" stroke-width="4" stroke-linecap="round" stroke-linejoin="round"></path><path d="M25.6667 44.3333H44.8071C45.5396 44.3277 46.2583 44.1337 46.8941 43.77C47.5299 43.4063 48.0615 42.8852 48.4378 42.2567C48.7992 41.6264 48.9894 40.9124 48.9894 40.1858C48.9894 39.4592 48.7992 38.7453 48.4378 38.115L45.5771 33.1683" stroke="#2F4445" stroke-width="4" stroke-linecap="round" stroke-linejoin="round"></path><path d="M32.6667 37.3334L25.6667 44.3334L32.6667 51.3334" stroke="#2F4445" stroke-width="4" stroke-linecap="round" stroke-linejoin="round"></path><path d="M19.3504 31.724L16.7907 22.1666L7.2334 24.7286" stroke="#2F4445" stroke-width="4" stroke-linecap="round" stroke-linejoin="round"></path><path d="M21.8027 13.559L24.3531 9.14434C24.7193 8.50593 25.2443 7.97302 25.8772 7.59731C26.51 7.2216 27.2293 7.01584 27.9651 7.00001C28.6953 6.99865 29.413 7.18938 30.0461 7.55307C30.6793 7.91675 31.2057 8.44059 31.5724 9.07201L40.7727 25.039" stroke="#2F4445" stroke-width="4" stroke-linecap="round" stroke-linejoin="round"></path><path d="M31.2153 22.477L40.7727 25.039L43.3323 15.4817" stroke="#2F4445" stroke-width="4" stroke-linecap="round" stroke-linejoin="round"></path></svg>