<svg xmlns="http://www.w3.org/2000/svg" width="56" height="56" viewBox="0 0 56 56" fill="none"><path d="M9.33331 23.3333V9.33329C9.33331 8.09562 9.82498 6.90863 10.7001 6.03346C11.5753 5.15829 12.7623 4.66663 14 4.66663H33.8333L46.6666 17.5V46.6666C46.6666 47.9043 46.175 49.0913 45.2998 49.9665C44.4246 50.8416 43.2377 51.3333 42 51.3333H9.33331" stroke="#2F4445" stroke-width="4" stroke-linecap="round" stroke-linejoin="round"></path><path d="M32.6667 4.66663V18.6666H46.6667" stroke="#2F4445" stroke-width="4" stroke-linecap="round" stroke-linejoin="round"></path><path d="M9.33335 42C11.9107 42 14 39.9106 14 37.3333C14 34.756 11.9107 32.6666 9.33335 32.6666C6.75602 32.6666 4.66669 34.756 4.66669 37.3333C4.66669 39.9106 6.75602 42 9.33335 42Z" stroke="#2F4445" stroke-width="4" stroke-linecap="round" stroke-linejoin="round"></path><path d="M23.3333 23.3334L12.8333 33.8334" stroke="#2F4445" stroke-width="4" stroke-linecap="round" stroke-linejoin="round"></path><path d="M21 25.6666L23.3333 28" stroke="#2F4445" stroke-width="4" stroke-linecap="round" stroke-linejoin="round"></path></svg>