<svg xmlns="http://www.w3.org/2000/svg" width="57" height="57" viewBox="0 0 57 57" fill="none"><path d="M40.7969 3.73438C43.8594 0.671875 48.7812 0.671875 51.8438 3.73438L53.2656 5.15625C56.3281 8.21875 56.3281 13.1406 53.2656 16.2031L31.6094 37.8594C30.7344 38.7344 29.5312 39.5 28.2188 39.8281L17.2812 43C16.4062 43.2188 15.4219 43 14.7656 42.2344C14 41.5781 13.7812 40.5938 14 39.7188L17.1719 28.7812C17.5 27.4688 18.2656 26.2656 19.1406 25.3906L40.7969 3.73438ZM48.125 7.45312C47.1406 6.46875 45.5 6.46875 44.5156 7.45312L41.2344 10.625L46.375 15.7656L49.5469 12.4844C50.5312 11.5 50.5312 9.85938 49.5469 8.875L48.125 7.45312ZM22.2031 30.2031L20.3438 36.6562L26.7969 34.7969C27.2344 34.6875 27.5625 34.4688 27.8906 34.1406L42.6562 19.375L37.625 14.3438L22.8594 29.1094C22.5312 29.4375 22.3125 29.7656 22.2031 30.2031ZM21.875 8C23.2969 8 24.5 9.20312 24.5 10.625C24.5 12.1562 23.2969 13.25 21.875 13.25H9.625C7.10938 13.25 5.25 15.2188 5.25 17.625V47.375C5.25 49.8906 7.10938 51.75 9.625 51.75H39.375C41.7812 51.75 43.75 49.8906 43.75 47.375V35.125C43.75 33.7031 44.8438 32.5 46.375 32.5C47.7969 32.5 49 33.7031 49 35.125V47.375C49 52.7344 44.625 57 39.375 57H9.625C4.26562 57 0 52.7344 0 47.375V17.625C0 12.375 4.26562 8 9.625 8H21.875Z" fill="#2F4445"></path></svg>