<svg xmlns="http://www.w3.org/2000/svg" width="56" height="56" viewBox="0 0 56 56" fill="none"><path d="M37.3334 49V44.3333C37.3334 41.858 36.35 39.484 34.5997 37.7337C32.8493 35.9833 30.4754 35 28 35H14C11.5247 35 9.1507 35.9833 7.40036 37.7337C5.65002 39.484 4.66669 41.858 4.66669 44.3333V49" stroke="#2F4445" stroke-width="4" stroke-linecap="round" stroke-linejoin="round"></path><path d="M21 25.6667C26.1547 25.6667 30.3334 21.488 30.3334 16.3333C30.3334 11.1787 26.1547 7 21 7C15.8454 7 11.6667 11.1787 11.6667 16.3333C11.6667 21.488 15.8454 25.6667 21 25.6667Z" stroke="#2F4445" stroke-width="4" stroke-linecap="round" stroke-linejoin="round"></path><path d="M51.3334 49V44.3333C51.3318 42.2654 50.6435 40.2565 49.3766 38.6221C48.1096 36.9877 46.3357 35.8203 44.3334 35.3033" stroke="#2F4445" stroke-width="4" stroke-linecap="round" stroke-linejoin="round"></path><path d="M37.3334 7.30334C39.341 7.81738 41.1205 8.98498 42.3912 10.6221C43.6619 12.2592 44.3517 14.2726 44.3517 16.345C44.3517 18.4174 43.6619 20.4309 42.3912 22.068C41.1205 23.705 39.341 24.8726 37.3334 25.3867" stroke="#2F4445" stroke-width="4" stroke-linecap="round" stroke-linejoin="round"></path></svg>