<svg xmlns="http://www.w3.org/2000/svg" width="56" height="56" viewBox="0 0 56 56" fill="none"><path d="M9.33337 23.3334V9.33335C9.33337 8.09568 9.82504 6.90869 10.7002 6.03352C11.5754 5.15835 12.7624 4.66669 14 4.66669H33.8334L46.6667 17.5V46.6667C46.6667 47.9044 46.175 49.0913 45.2999 49.9665C44.4247 50.8417 43.2377 51.3334 42 51.3334H9.33337" stroke="#2F4445" stroke-width="4" stroke-linecap="round" stroke-linejoin="round"></path><path d="M32.6666 4.66669V18.6667H46.6666" stroke="#2F4445" stroke-width="4" stroke-linecap="round" stroke-linejoin="round"></path><path d="M9.33329 42C11.9106 42 14 39.9107 14 37.3334C14 34.756 11.9106 32.6667 9.33329 32.6667C6.75596 32.6667 4.66663 34.756 4.66663 37.3334C4.66663 39.9107 6.75596 42 9.33329 42Z" stroke="#2F4445" stroke-width="4" stroke-linecap="round" stroke-linejoin="round"></path><path d="M23.3334 23.3333L12.8334 33.8333" stroke="#2F4445" stroke-width="4" stroke-linecap="round" stroke-linejoin="round"></path><path d="M21 25.6667L23.3333 28" stroke="#2F4445" stroke-width="4" stroke-linecap="round" stroke-linejoin="round"></path></svg>