<svg xmlns="http://www.w3.org/2000/svg" width="56" height="56" viewBox="0 0 56 56" fill="none"><path d="M40.8334 49H21C17.9711 48.9993 15.002 48.1562 12.4245 46.5651C9.84709 44.974 7.76286 42.6976 6.40475 39.9901C5.04663 37.2827 4.46813 34.2509 4.7339 31.2336C4.99966 28.2163 6.09921 25.3324 7.90969 22.904C9.72017 20.4756 12.1702 18.5986 14.9861 17.4825C17.802 16.3665 20.8727 16.0554 23.8552 16.5841C26.8377 17.1128 29.6144 18.4605 31.8751 20.4765C34.1357 22.4924 35.7913 25.0973 36.6567 28H40.8334C42.2123 28 43.5776 28.2716 44.8516 28.7993C46.1255 29.327 47.283 30.1004 48.258 31.0754C49.233 32.0504 50.0064 33.208 50.5341 34.4819C51.0618 35.7558 51.3334 37.1212 51.3334 38.5C51.3334 39.8789 51.0618 41.2443 50.5341 42.5182C50.0064 43.7921 49.233 44.9497 48.258 45.9247C47.283 46.8997 46.1255 47.6731 44.8516 48.2008C43.5776 48.7285 42.2123 49 40.8334 49Z" stroke="#2F4445" stroke-width="4" stroke-linecap="round" stroke-linejoin="round"></path><path d="M51.3333 23.3333C51.3333 21.4768 50.5958 19.6964 49.283 18.3836C47.9703 17.0708 46.1898 16.3333 44.3333 16.3333H39.1836C38.392 13.5481 36.6821 11.1123 34.3316 9.42138C31.981 7.73049 29.1279 6.88387 26.2355 7.019C23.3431 7.15413 20.5814 8.26308 18.3987 10.1658C16.2161 12.0684 14.7407 14.6531 14.2123 17.5" stroke="#2F4445" stroke-width="4" stroke-linecap="round" stroke-linejoin="round"></path></svg>