<svg xmlns="http://www.w3.org/2000/svg" width="56" height="56" viewBox="0 0 56 56" fill="none"><path d="M56 32.375C55.9271 29.3125 54.9427 26.651 53.0469 24.3906C53.2656 23.5885 53.375 22.75 53.375 21.875C53.2292 18.1562 51.7344 15.276 48.8906 13.2344C48.3073 10.026 46.6302 7.54688 43.8594 5.79688C43.0573 4.11979 41.8906 2.73438 40.3594 1.64062C38.8281 0.546875 37.0417 0 35 0C32.1562 0.0729167 29.8229 1.09375 28 3.0625C26.1771 1.09375 23.8438 0.0729167 21 0C18.9583 0 17.1719 0.546875 15.6406 1.64062C14.1094 2.73438 12.9427 4.11979 12.1406 5.79688C9.36979 7.54688 7.69271 10.026 7.10938 13.2344C4.26562 15.276 2.77083 18.1562 2.625 21.875C2.625 22.75 2.73438 23.5885 2.95312 24.3906C1.05729 26.651 0.0729167 29.3125 0 32.375C0.0729167 35.7292 1.23958 38.5729 3.5 40.9062C3.5 40.9792 3.5 41.0521 3.5 41.125C3.57292 43.75 4.41146 46.0104 6.01562 47.9062C7.61979 49.8021 9.66146 51.0052 12.1406 51.5156C14.0365 54.3594 16.8438 55.8542 20.5625 56C23.625 55.9271 26.1042 54.8333 28 52.7188C29.8958 54.8333 32.375 55.9271 35.4375 56C39.1562 55.8542 41.9635 54.3594 43.8594 51.5156C46.3385 51.0052 48.3802 49.8021 49.9844 47.9062C51.5885 46.0104 52.4271 43.75 52.5 41.125C52.5 41.0521 52.5 40.9792 52.5 40.9062C54.7604 38.5729 55.9271 35.7292 56 32.375ZM25.375 15.75H23.2969C22.4948 14.0729 21.1458 13.1979 19.25 13.125C18.0104 13.125 16.9896 13.5625 16.1875 14.4375C15.3125 15.2396 14.875 16.2604 14.875 17.5C14.875 18.7396 15.3125 19.7604 16.1875 20.5625C16.9896 21.4375 18.0104 21.875 19.25 21.875C21.1458 21.8021 22.4948 20.9271 23.2969 19.25H25.375V26.25H19.25C17.7917 26.3229 16.5521 26.8333 15.5312 27.7812C14.5833 28.8021 14.0729 30.0417 14 31.5V33.5781C12.3229 34.3802 11.4479 35.7292 11.375 37.625C11.375 38.8646 11.8125 39.8854 12.6875 40.6875C13.4896 41.5625 14.5104 42 15.75 42C16.9896 42 18.0104 41.5625 18.8125 40.6875C19.6875 39.8854 20.125 38.8646 20.125 37.625C20.0521 35.7292 19.1771 34.3802 17.5 33.5781V31.5C17.5729 30.4062 18.1562 29.8229 19.25 29.75H25.375V45.8281C25.375 47.2135 24.901 48.3802 23.9531 49.3281C23.0781 50.276 21.9479 50.75 20.5625 50.75C19.25 50.75 18.1198 50.276 17.1719 49.3281C16.2969 48.4531 15.8229 47.3594 15.75 46.0469C15.1667 46.2656 14.5833 46.375 14 46.375C12.5417 46.3021 11.3021 45.7917 10.2812 44.8438C9.33333 43.8229 8.82292 42.5833 8.75 41.125C8.75 40.25 8.96875 39.4479 9.40625 38.7188C6.78125 37.4792 5.39583 35.3646 5.25 32.375C5.25 30.8438 5.6875 29.4948 6.5625 28.3281C7.36458 27.2344 8.42188 26.3958 9.73438 25.8125C8.56771 24.8646 7.94792 23.5521 7.875 21.875C7.875 20.4896 8.3125 19.3229 9.1875 18.375C10.1354 17.4271 11.2656 16.8438 12.5781 16.625C12.3594 16.1146 12.25 15.5312 12.25 14.875C12.25 13.5625 12.6875 12.4323 13.5625 11.4844C14.3646 10.5365 15.3854 9.95312 16.625 9.73438C16.625 9.73438 16.625 9.69792 16.625 9.625C16.625 8.38542 17.0625 7.36458 17.9375 6.5625C18.7396 5.6875 19.7604 5.25 21 5.25C22.2396 5.25 23.2604 5.6875 24.0625 6.5625C24.9375 7.36458 25.375 8.38542 25.375 9.625V15.75ZM21 17.5C20.9271 18.5938 20.3438 19.1771 19.25 19.25C18.1562 19.1771 17.5729 18.5938 17.5 17.5C17.5729 16.4062 18.1562 15.8229 19.25 15.75C20.3438 15.8229 20.9271 16.4062 21 17.5ZM17.5 37.625C17.4271 38.7188 16.8438 39.3021 15.75 39.375C14.6562 39.3021 14.0729 38.7188 14 37.625C14.0729 36.5312 14.6562 35.9479 15.75 35.875C16.8438 35.9479 17.4271 36.5312 17.5 37.625ZM46.7031 38.7188C47.0677 39.4479 47.25 40.25 47.25 41.125C47.1771 42.5833 46.6667 43.8229 45.7188 44.8438C44.6979 45.7917 43.4583 46.3021 42 46.375C41.3438 46.375 40.7604 46.2656 40.25 46.0469C40.1771 47.3594 39.7031 48.4531 38.8281 49.3281C37.8802 50.276 36.75 50.75 35.4375 50.75C34.0521 50.75 32.9219 50.276 32.0469 49.3281C31.099 48.4531 30.625 47.3229 30.625 45.9375V39.375H34.4531C35.2552 41.0521 36.6042 41.9271 38.5 42C39.7396 42 40.7604 41.5625 41.5625 40.6875C42.4375 39.8854 42.875 38.8646 42.875 37.625C42.875 36.3854 42.4375 35.3646 41.5625 34.5625C40.7604 33.6875 39.7396 33.25 38.5 33.25C36.6042 33.3229 35.2552 34.1979 34.4531 35.875H30.625V29.75H33.25C34.7083 29.6771 35.9479 29.1667 36.9688 28.2188C37.9167 27.1979 38.4271 25.9583 38.5 24.5V21.5469C40.1771 20.7448 41.0521 19.3958 41.125 17.5C41.125 16.2604 40.6875 15.2396 39.8125 14.4375C39.0104 13.5625 37.9896 13.125 36.75 13.125C35.5104 13.125 34.4896 13.5625 33.6875 14.4375C32.8125 15.2396 32.375 16.2604 32.375 17.5C32.4479 19.3958 33.3229 20.7448 35 21.5469V24.5C34.9271 25.5938 34.3438 26.1771 33.25 26.25H30.625V9.625C30.625 8.38542 31.0625 7.36458 31.9375 6.5625C32.7396 5.6875 33.7604 5.25 35 5.25C36.2396 5.25 37.2604 5.6875 38.0625 6.5625C38.9375 7.36458 39.375 8.38542 39.375 9.625C39.375 9.69792 39.375 9.73438 39.375 9.73438C40.6146 9.95312 41.6354 10.5365 42.4375 11.4844C43.3125 12.4323 43.75 13.5625 43.75 14.875C43.75 15.5312 43.6406 16.1146 43.4219 16.625C44.7344 16.7708 45.8646 17.3542 46.8125 18.375C47.6875 19.3229 48.125 20.4896 48.125 21.875C48.0521 23.5521 47.4323 24.8646 46.2656 25.8125C47.5781 26.3958 48.6354 27.2344 49.4375 28.3281C50.3125 29.4948 50.75 30.8438 50.75 32.375C50.6042 35.3646 49.2552 37.4792 46.7031 38.7188ZM36.75 37.625C36.8229 36.5312 37.4062 35.9479 38.5 35.875C39.5938 35.9479 40.1771 36.5312 40.25 37.625C40.1771 38.7188 39.5938 39.3021 38.5 39.375C37.4062 39.3021 36.8229 38.7188 36.75 37.625ZM35 17.5C35.0729 16.4062 35.6562 15.8229 36.75 15.75C37.8438 15.8229 38.4271 16.4062 38.5 17.5C38.4271 18.5938 37.8438 19.1771 36.75 19.25C35.6562 19.1771 35.0729 18.5938 35 17.5Z" fill="#2F4445"></path></svg>