<svg xmlns="http://www.w3.org/2000/svg" width="56" height="56" viewBox="0 0 56 56" fill="none"><path d="M12.7392 6.83606C9.54259 6.83606 6.97827 9.40038 6.97827 12.597V19.7417C6.97827 22.9384 9.54259 25.5027 12.7392 25.5027H19.8839C23.0806 25.5027 25.6449 22.9384 25.6449 19.7417V12.597C25.6449 9.40038 23.0806 6.83606 19.8839 6.83606H12.7392ZM34.9782 6.83606C32.3999 6.83606 30.3116 8.92439 30.3116 11.5027V20.8361C30.3116 23.4144 32.3999 25.5027 34.9782 25.5027H44.3115C46.8899 25.5027 48.9782 23.4144 48.9782 20.8361V11.5027C48.9782 8.92439 46.8899 6.83606 44.3115 6.83606H34.9782ZM34.9782 11.5027H44.3115V20.8361H34.9782V11.5027ZM19.0089 13.0334C19.4663 12.5761 20.1569 12.5761 20.6142 13.0334C21.0716 13.4931 21.0716 14.1814 20.6142 14.6387L15.9476 19.3054C15.4902 19.7627 14.7996 19.7627 14.3423 19.3054L12.0089 16.972C11.5516 16.5124 11.5516 15.8241 12.0089 15.3667C12.4663 14.9094 13.1569 14.9094 13.6142 15.3667L15.1449 16.8974L19.0089 13.0334ZM11.6449 30.1694C9.0666 30.1694 6.97827 32.2577 6.97827 34.8361V44.1694C6.97827 46.7477 9.0666 48.8361 11.6449 48.8361H20.9782C23.5566 48.8361 25.6449 46.7477 25.6449 44.1694V34.8361C25.6449 32.2577 23.5566 30.1694 20.9782 30.1694H11.6449ZM34.9782 30.1694C32.3999 30.1694 30.3116 32.2577 30.3116 34.8361V44.1694C30.3116 46.7477 32.3999 48.8361 34.9782 48.8361H44.3115C46.8899 48.8361 48.9782 46.7477 48.9782 44.1694V34.8361C48.9782 32.2577 46.8899 30.1694 44.3115 30.1694H34.9782ZM11.6449 34.8361H20.9782V44.1694H11.6449V34.8361ZM34.9782 34.8361H44.3115V44.1694H34.9782V34.8361Z" fill="#2F4445"></path><rect x="0.0005" y="0.0005" width="55.999" height="55.9989" stroke="#2F4445" stroke-width="0.001"></rect></svg>