<svg xmlns="http://www.w3.org/2000/svg" width="64" height="64" viewBox="0 0 64 64" fill="none"><g filter="url(#filter0_d_1555_18031)"><path d="M44.8334 49H25C21.9711 48.9993 19.002 48.1562 16.4245 46.5651C13.8471 44.974 11.7629 42.6976 10.4047 39.9901C9.04663 37.2827 8.46813 34.2509 8.7339 31.2336C8.99966 28.2163 10.0992 25.3324 11.9097 22.904C13.7202 20.4756 16.1702 18.5986 18.9861 17.4825C21.802 16.3665 24.8727 16.0554 27.8552 16.5841C30.8377 17.1128 33.6144 18.4605 35.8751 20.4765C38.1357 22.4924 39.7913 25.0973 40.6567 28H44.8334C46.2123 28 47.5776 28.2716 48.8516 28.7993C50.1255 29.327 51.283 30.1004 52.258 31.0754C53.233 32.0504 54.0064 33.208 54.5341 34.4819C55.0618 35.7558 55.3334 37.1212 55.3334 38.5C55.3334 39.8789 55.0618 41.2443 54.5341 42.5182C54.0064 43.7921 53.233 44.9497 52.258 45.9247C51.283 46.8997 50.1255 47.6731 48.8516 48.2008C47.5776 48.7285 46.2123 49 44.8334 49Z" stroke="white" stroke-width="4" stroke-linecap="round" stroke-linejoin="round"></path><path d="M55.3333 23.3333C55.3333 21.4768 54.5958 19.6964 53.283 18.3836C51.9703 17.0708 50.1898 16.3333 48.3333 16.3333H43.1836C42.392 13.5481 40.6821 11.1123 38.3316 9.42138C35.981 7.73049 33.1279 6.88387 30.2355 7.019C27.3431 7.15413 24.5814 8.26308 22.3987 10.1658C20.2161 12.0684 18.7407 14.6531 18.2123 17.5" stroke="white" stroke-width="4" stroke-linecap="round" stroke-linejoin="round"></path></g><defs><filter id="filter0_d_1555_18031" x="0" y="0" width="64" height="64" filterUnits="userSpaceOnUse" color-interpolation-filters="sRGB"><feGaussianBlur stdDeviation="2"></feGaussianBlur></filter></defs></svg>