<svg xmlns="http://www.w3.org/2000/svg" width="151" height="56" viewBox="0 0 151 56" fill="none"><path d="M14.8211 42.4092C14.8211 42.4092 12.7148 43.6914 16.2862 44.0583C20.5914 44.6069 22.8805 44.5154 27.6439 43.6012C28.6013 44.1871 29.6137 44.6779 30.6668 45.0663C19.9502 49.6457 6.3925 44.792 14.8199 42.4103L14.8211 42.4092ZM13.4474 36.4549C13.4474 36.4549 11.1571 38.1954 14.7296 38.5612C19.4016 39.0183 23.0645 39.1097 29.3856 37.8297C30.0004 38.4535 30.7533 38.9241 31.5834 39.2034C18.6691 43.0503 4.19593 39.5692 13.4462 36.456L13.4474 36.4549ZM38.7274 46.8972C38.7274 46.8972 40.2851 48.1794 36.9868 49.1874C30.8496 51.0194 11.2474 51.5692 5.7525 49.1874C3.82907 48.3646 7.49307 47.1726 8.68393 46.9897C9.87479 46.7154 10.5159 46.7154 10.5159 46.7154C8.40964 45.2503 -3.49893 49.7383 4.45879 51.0206C26.3502 54.5932 44.3948 49.464 38.7159 46.8983L38.7274 46.8972ZM15.8291 30.2263C15.8291 30.2263 5.84507 32.608 12.2565 33.432C15.0039 33.7977 20.4085 33.7063 25.4451 33.3406C29.5674 32.9749 33.6885 32.2412 33.6885 32.2412C33.6885 32.2412 32.2234 32.8812 31.2154 33.5234C21.0485 36.1794 1.53764 34.9886 7.12393 32.2412C11.8874 29.9509 15.8256 30.2263 15.8256 30.2263H15.8291ZM33.6919 40.2103C43.9502 34.896 39.1891 29.768 35.8908 30.4092C35.0679 30.592 34.6999 30.7749 34.6999 30.7749C34.6999 30.7749 34.9742 30.2263 35.6142 30.0434C42.1171 27.7532 47.2485 36.912 33.5079 40.4857C33.5079 40.4857 33.5994 40.3943 33.6908 40.2114L33.6919 40.2103ZM16.8371 54.6823C26.7296 55.3223 41.8428 54.3166 42.2085 49.6446C42.2085 49.6446 41.4771 51.4766 34.0565 52.8503C25.6291 54.408 15.1994 54.224 9.05079 53.216C9.05079 53.216 10.3331 54.3154 16.8359 54.6812L16.8371 54.6823Z" fill="#4E7896"></path><path d="M27.4607 0C27.4607 0 33.1407 5.77143 22.055 14.472C13.1704 21.5234 20.0402 25.5554 22.055 30.1349C16.8344 25.464 13.079 21.3417 15.655 17.4949C19.4013 11.8171 29.751 9.06857 27.4607 0ZM24.5293 26.288C27.1853 29.3109 23.7979 32.0594 23.7979 32.0594C23.7979 32.0594 30.575 28.5783 27.4619 24.2731C24.6219 20.1509 22.4242 18.136 34.3304 11.2674C34.3304 11.2674 15.5533 15.9383 24.5293 26.288Z" fill="#F58219"></path><path d="M95.1028 45.2378V24.4538C95.1028 19.1509 92.1336 15.5463 84.7108 15.5463C80.4708 15.5463 76.8639 16.6069 73.6822 17.8778L74.7428 21.6949C77.0742 20.8469 80.0457 19.9978 83.2262 19.9978C87.2559 19.9978 89.1645 21.6949 89.1645 25.088V27.8446H87.0434C76.8639 27.8446 72.1862 31.6618 72.1862 37.8126C72.1862 42.9029 75.3679 45.872 81.0936 45.872C84.6994 45.872 87.4559 44.1749 90.0011 42.0549L90.4239 45.2366H95.0902L95.1028 45.2378ZM89.1645 38.4515C87.0434 40.36 84.7108 41.4206 82.5896 41.4206C79.8331 41.4206 78.1359 39.7235 78.1359 36.7543C78.1359 33.7852 79.8331 31.664 86.6194 31.664H89.1645V38.4515ZM115.039 45.2378H107.616L98.7085 16.1829H105.071L110.585 33.9978L111.857 39.3006C114.615 31.6663 116.735 23.8183 117.583 16.184H123.945C122.248 25.7269 119.28 36.1189 115.038 45.2389L115.039 45.2378ZM149.395 45.2378V24.4538C149.395 19.1509 146.426 15.5463 139.003 15.5463C134.763 15.5463 131.157 16.6069 127.975 17.8778L128.823 21.6949C131.368 20.8469 134.337 19.9978 137.518 19.9978C141.547 19.9978 143.456 21.6949 143.456 25.088V27.8446H141.335C131.155 27.8446 126.478 31.6618 126.478 37.8126C126.478 42.9029 129.447 45.872 135.173 45.872C138.99 45.872 141.747 44.1749 144.293 42.0549L144.715 45.2366H149.382L149.395 45.2378ZM143.457 38.4515C141.336 40.36 139.003 41.4206 136.882 41.4206C134.126 41.4206 132.428 39.7235 132.428 36.7543C132.428 33.7852 134.124 31.664 140.912 31.664H143.457V38.4515ZM65.6239 50.1143C63.9268 52.6595 61.3839 54.568 58.2011 55.6286L55.4434 52.2343C57.5645 50.9623 59.6856 49.0538 60.5336 47.3566C61.3816 45.8709 61.5942 43.7509 61.5942 38.8732V5.78748H67.9565V38.448C67.9565 45.0229 67.3199 47.568 65.6251 50.112L65.6239 50.1143Z" fill="#4E7896"></path></svg>