<svg xmlns="http://www.w3.org/2000/svg" width="169" height="56" viewBox="0 0 169 56" fill="none"><path d="M65.6924 13.7311H72.135V26.5385L84.022 13.7311H91.7998L79.8739 26.0977L92.3442 42.9626H84.5989L75.5248 30.4922L72.135 34.0052V42.9626H65.6924V13.7311ZM88.922 31.9311V31.8468C88.922 25.4042 94.1072 20.1802 101.107 20.1802C108.055 20.1802 113.202 25.3264 113.202 31.8468V31.9311C113.202 38.3737 108.016 43.5977 101.016 43.5977C94.0683 43.5977 88.922 38.4514 88.922 31.9311ZM106.915 31.9311V31.8468C106.915 28.6061 104.529 25.6505 101.081 25.6505C97.4387 25.6505 95.2609 28.457 95.2609 31.7626V31.8468C95.2609 35.0876 97.6461 38.0431 101.094 38.0431C104.737 38.0431 106.908 35.2366 106.908 31.9311H106.915Z" fill="#000400"></path><path d="M114.951 36.6625V26.0977H112.274V20.6533H114.951V14.9172H121.303V20.6533H126.579V26.0977H121.303V35.6903C121.303 37.1551 121.932 37.8681 123.351 37.8681C124.448 37.8725 125.527 37.5982 126.488 37.0709V42.1783C125.147 42.9755 123.604 43.4746 121.465 43.4746C117.576 43.4746 114.938 41.919 114.938 36.7338L114.951 36.6625ZM128.413 12.4736H134.765V43.0209H128.413V12.4736ZM137.073 12.4736H143.768V18.1255H137.079L137.073 12.4736ZM137.241 20.5949H143.593V43.0209H137.241V20.5949ZM146.023 20.5949H152.375V23.7709C153.84 21.8912 155.726 20.1736 158.948 20.1736C163.763 20.1736 166.563 23.3496 166.563 28.5023V43.0209H160.211V30.5051C160.211 27.4912 158.786 25.9422 156.361 25.9422C153.937 25.9422 152.388 27.4977 152.388 30.5051V43.0144H146.036L146.023 20.5949Z" fill="#000400"></path><path d="M29.2277 0.450462L1.55176 29.5329V55.5431L29.1758 27.8671L56.6573 0.4375L29.2277 0.450462Z" fill="url(#paint0_linear_1278_12109)"></path><path d="M1.55176 55.5496L29.1758 27.8737L56.6573 55.5496H1.55176Z" fill="url(#paint1_linear_1278_12109)"></path><path d="M1.55176 0.450439H29.2277L1.55176 29.5328V0.450439Z" fill="url(#paint2_linear_1278_12109)"></path><defs><linearGradient id="paint0_linear_1278_12109" x1="-7.71676" y1="51.1097" x2="43.5582" y2="-0.165271" gradientUnits="userSpaceOnUse"><stop offset="0.108" stop-color="#C757BC"></stop><stop offset="0.173" stop-color="#CD5CA9"></stop><stop offset="0.492" stop-color="#E8744F"></stop><stop offset="0.716" stop-color="#F88316"></stop><stop offset="0.823" stop-color="#FF8900"></stop></linearGradient><linearGradient id="paint1_linear_1278_12109" x1="19.1425" y1="65.4922" x2="44.1351" y2="40.4996" gradientUnits="userSpaceOnUse"><stop offset="0.296" stop-color="#00AFFF"></stop><stop offset="0.694" stop-color="#5282FF"></stop><stop offset="1" stop-color="#945DFF"></stop></linearGradient><linearGradient id="paint2_linear_1278_12109" x1="0.897128" y1="15.656" x2="18.4295" y2="-1.87641" gradientUnits="userSpaceOnUse"><stop offset="0.296" stop-color="#00AFFF"></stop><stop offset="0.694" stop-color="#5282FF"></stop><stop offset="1" stop-color="#945DFF"></stop></linearGradient></defs></svg>