<svg xmlns="http://www.w3.org/2000/svg" width="135" height="36" viewBox="0 0 135 36" fill="none"><g clip-path="url(#clip0_1410_12635)"><path d="M66.4477 7.24862C66.3993 7.36282 66.3535 7.51054 66.3109 7.68865L66.2796 7.82788C66.2694 7.87616 66.2594 7.92629 66.2496 7.97822L66.2208 8.13936L66.1935 8.31101L66.1676 8.49289L66.1432 8.68469L66.1205 8.88613L66.0993 9.09691C66.0959 9.1328 66.0926 9.16907 66.0893 9.20571L66.0708 9.42994L66.0539 9.66278L66.039 9.90394C66.0367 9.9448 66.0344 9.98601 66.0322 10.0275L67.526 10.7505C67.5034 9.87842 67.5314 9.05379 67.61 8.29614L67.6254 8.16111L67.6148 8.28483L67.6015 8.48937L67.5966 8.58696L67.5884 8.80961L67.5854 8.93482L67.582 9.21343L67.5825 9.44734L67.586 9.70294L67.5903 9.88552L67.5999 10.1779L67.6087 10.3852L67.6196 10.6025C67.6216 10.6396 67.6236 10.6771 67.6258 10.715C67.904 10.4881 68.2373 10.1903 68.5838 9.8647L68.8163 9.64403C68.8553 9.60672 68.8943 9.56919 68.9332 9.5315L69.1665 9.30383L69.3969 9.07506L69.6216 8.84803L69.8379 8.6256C69.5989 8.13732 69.3412 7.77858 69.1014 7.51654L69.0222 7.43273C68.9699 7.37918 68.9187 7.33023 68.869 7.28552L68.7957 7.22158L68.7248 7.16372C68.7017 7.14542 68.679 7.12809 68.6568 7.11168L68.592 7.06517L68.5306 7.02395L68.4456 6.9714L68.3701 6.92919L68.2859 6.88743L68.2228 6.86028L68.1076 6.81864L68.0237 6.79172L67.9417 6.76858L67.8794 6.75289L67.8116 6.73771C67.7999 6.73526 67.788 6.73285 67.7759 6.7305L67.7013 6.71723L67.623 6.70599C67.21 6.65423 66.6765 6.7085 66.4477 7.24862Z" fill="url(#paint0_linear_1410_12635)"></path><path d="M67.9164 15.1597C67.8475 14.6627 67.7845 14.1738 67.7276 13.6931C67.6814 13.2939 67.6436 12.9007 67.6126 12.5113L67.586 12.1622C67.5855 12.1529 67.5853 12.144 67.5854 12.1356C67.5527 11.6622 67.5291 11.2012 67.5185 10.7494L66.0278 10.0305L66.0237 10.1219L66.0137 10.3115C65.9989 10.6687 65.9878 11.0482 65.9847 11.4471C65.9811 11.8967 65.9853 12.3657 65.9935 12.857C66.004 13.3088 66.0225 13.78 66.0469 14.2593C66.0651 14.5671 66.0849 14.8771 66.1077 15.1912L66.135 15.5544L68.1293 16.5647L68.059 16.0941L67.9164 15.1597Z" fill="url(#paint1_linear_1410_12635)"></path><path d="M70.8008 26.7407L70.8317 26.8471L71.0297 27.5201C71.0582 27.6157 71.087 27.7118 71.1163 27.8083L71.2108 28.1143L71.2432 28.2244C71.2489 28.2423 71.255 28.2602 71.2619 28.2782L71.5832 29.3077C71.8677 29.2489 72.2145 29.355 72.5809 29.5149L72.7283 29.5815C72.4587 29.2569 72.0854 29.0399 71.6393 28.9896C72.8607 28.175 73.6643 27.1256 73.5514 25.874C73.5393 25.7632 73.5243 25.6483 73.5021 25.5324C73.4837 25.9938 73.2995 26.3325 72.7657 26.6945L72.6999 26.7381C73.252 25.7663 73.404 25.1071 73.3387 24.2548C73.3225 24.0527 73.2974 23.8382 73.2602 23.6074C73.0836 24.8764 72.4021 25.6976 71.4054 26.1836L70.8008 26.7407Z" fill="url(#paint2_linear_1410_12635)"></path><path d="M70.0861 25.2513L69.9592 24.7758L69.7041 23.8132C69.583 23.348 69.4661 22.8799 69.3502 22.4047C69.2343 21.9295 69.1226 21.4512 69.0108 20.973C68.8971 20.4836 68.7905 19.9953 68.688 19.504L68.5868 19.0182L68.3925 18.0464C68.3578 17.8704 68.3261 17.6985 68.2954 17.5196C68.2397 17.2206 68.188 16.9186 68.1363 16.6166L68.1256 16.5678L66.1426 15.5555L66.1491 15.6184C66.1498 15.6293 66.1502 15.6402 66.1497 15.651C66.1897 16.1001 66.2286 16.5562 66.2818 17.0146C66.3338 17.48 66.3929 17.9465 66.4621 18.4182C66.5209 18.8157 66.5838 19.2102 66.6497 19.6087L66.6929 19.8477C66.7843 20.341 66.8819 20.817 66.9879 21.2617C67.1065 21.7663 67.2336 22.2396 67.362 22.6805C67.4483 22.9696 67.5327 23.2476 67.6193 23.5114L67.6961 23.7336L67.855 24.1757C68.0446 24.6912 68.2546 25.1918 68.4809 25.6803L70.4853 26.6958C70.3784 26.3273 70.2798 25.9527 70.1711 25.573L70.1155 25.3601L70.0861 25.2513Z" fill="url(#paint3_linear_1410_12635)"></path><path d="M68.5107 25.7465C68.7523 26.2633 69.0157 26.7639 69.3066 27.2445L69.4679 27.5053C69.278 27.4289 69.0378 27.3908 68.8045 27.3739L68.6886 27.3671C68.6695 27.3662 68.6505 27.3654 68.6316 27.3648L68.5204 27.3624L68.3637 27.3629L68.2238 27.367L68.1061 27.3731L67.9413 27.3867C67.9399 27.3869 67.9395 27.387 67.9395 27.387C68.9529 27.7385 69.8417 28.169 70.4024 28.8214C70.1796 29.0667 69.7625 29.2532 69.2382 29.4051C69.6285 29.4474 69.9259 29.4302 70.1403 29.3952L70.2272 29.3793C70.2408 29.3765 70.254 29.3736 70.2668 29.3707L70.3388 29.3529L70.401 29.3347L70.4765 29.3083L70.5152 29.2925C70.1932 29.5609 69.9917 30.0184 69.8242 30.5311L69.7664 30.7142C69.7569 30.745 69.7476 30.7759 69.7383 30.807C70.1647 30.11 70.5877 29.6485 70.9996 29.4721C71.4596 30.9974 71.9916 32.6209 72.5755 34.3149L72.8485 35.1017C72.9407 35.3656 73.0341 35.631 73.1285 35.898C73.2643 35.7228 73.2795 35.529 73.2227 35.3315L73.036 34.8042L72.8233 34.1878L72.4938 33.2103L72.2238 32.3906L71.9255 31.4657L71.6407 30.5635L71.3792 29.7179L71.1868 29.0847L71.0303 28.5619C71.0094 28.4934 70.9902 28.4235 70.9696 28.3528L70.9106 28.1587L70.7416 27.5746L70.5697 26.9737L70.4924 26.6968L70.4894 26.6927L68.485 25.6772C68.4896 25.6949 68.4946 25.7094 68.5007 25.724L68.5107 25.7465Z" fill="url(#paint4_linear_1410_12635)"></path><path d="M68.3626 16.6078L68.3982 16.802C68.4239 16.9342 68.4478 17.0678 68.4731 17.2021L68.69 18.3146L68.7696 18.702L68.8856 19.2495C68.9054 19.342 68.9254 19.4351 68.9455 19.529C69.0053 19.8061 69.0684 20.0876 69.1345 20.3751L69.2707 20.9585L69.4062 21.5275C69.4294 21.6236 69.4529 21.7204 69.4766 21.8176L69.6221 22.4065L69.7676 22.9788C69.8415 23.268 69.9175 23.562 69.9978 23.8619C70.0565 24.0832 70.1173 24.3077 70.1795 24.5351L70.388 25.2941L70.5455 25.8519L70.7082 26.4216C70.7357 26.5174 70.7635 26.6136 70.7915 26.7101C70.7935 26.7213 70.7954 26.7325 70.8014 26.7407L71.406 26.1836L71.3914 26.1897L71.3591 26.2055C72.0766 25.5277 72.6916 24.1699 72.8322 22.9462C72.8969 22.3825 72.8909 21.7826 72.8134 21.1281C72.7576 20.6403 72.6583 20.1277 72.522 19.5731C72.4031 19.0938 72.2561 18.5848 72.0769 18.049C71.966 18.2752 71.8084 18.4979 71.6153 18.7152L71.5106 18.8298L71.4747 18.867L71.3988 18.9433C71.928 18.1205 71.9909 17.2371 71.834 16.3199C71.7378 16.592 71.5489 16.995 71.2355 17.3572C71.1954 17.4055 71.1483 17.4527 71.1011 17.4999C71.0929 17.5059 71.086 17.5137 71.0775 17.5218L71.0632 17.534C71.2388 17.2415 71.3685 16.9637 71.4516 16.6824C71.4649 16.6433 71.475 16.6037 71.484 16.5639L71.4971 16.5042C71.5183 16.4131 71.5325 16.3209 71.5466 16.2286L71.5668 16.0502C71.5747 15.9452 71.577 15.8373 71.5718 15.7278L71.558 15.5262C71.5567 15.5113 71.5549 15.4965 71.5524 15.4816L71.5313 15.3525C71.5277 15.3318 71.524 15.3115 71.5198 15.2915C71.4788 15.0518 71.4338 14.8382 71.3873 14.6487L71.3438 14.4786L71.3045 14.335L71.2534 14.1651L71.1869 13.966C71.1799 13.946 71.1728 13.9267 71.1657 13.9084L71.1255 13.808C71.1127 13.7771 71.1003 13.7488 71.0886 13.7234L71.0556 13.6555C71.0493 13.6812 71.0411 13.7081 71.0302 13.7353L71.0117 13.7759C70.8869 14.0689 70.5965 14.4709 70.3317 14.7534C70.3276 14.7564 70.3235 14.7594 70.3224 14.7665L70.2678 14.821C70.2585 14.8309 70.2493 14.8412 70.2403 14.8519L70.2507 14.8317L68.3457 16.5761C68.3618 16.5895 68.3637 16.6007 68.3626 16.6078Z" fill="url(#paint5_linear_1410_12635)"></path><path d="M67.625 10.715C67.6327 10.8541 67.6419 10.9991 67.6525 11.1499L67.6756 11.459C67.6798 11.5117 67.6841 11.5651 67.6885 11.6192L67.7168 11.9507C67.7218 12.0071 67.727 12.0642 67.7322 12.1219L67.7367 12.1769C67.7378 12.1857 67.7393 12.1944 67.7415 12.2032C67.7577 12.3731 67.7756 12.5479 67.7955 12.7282L67.8377 13.0962C67.8527 13.2214 67.8685 13.3492 67.8852 13.4798L67.9645 14.0783C68.0016 14.3501 68.0417 14.6316 68.0866 14.9252L68.1211 15.1477C68.1553 15.3744 68.1933 15.6062 68.2334 15.8443L68.3591 16.5783L70.2641 14.8339C70.6613 14.1143 70.7481 13.6665 70.7427 13.1102C70.7408 12.9983 70.7356 12.8818 70.7282 12.7624L70.7202 12.6421C70.6897 12.1546 70.6311 11.6373 70.548 11.1381C70.4697 10.6541 70.3741 10.1892 70.2645 9.79122C70.1951 9.5337 70.1214 9.30455 70.0462 9.10787C69.978 8.93765 69.9075 8.78163 69.836 8.63269L69.62 8.8532C69.5832 8.89045 69.5461 8.9279 69.5086 8.96551L69.281 9.1924L69.049 9.41993L68.8153 9.64521C68.7764 9.68241 68.7376 9.71939 68.6988 9.7561L68.468 9.97259C68.1631 10.2556 67.8723 10.5133 67.625 10.715Z" fill="url(#paint6_linear_1410_12635)"></path><path d="M56.0765 8.08519C57.1341 8.19952 58.063 8.41389 58.8633 8.7283C59.6922 9.04271 60.3639 9.47145 60.8784 10.0145C61.4215 10.529 61.7788 11.2007 61.9503 12.0296C62.036 12.5155 62.036 13.0729 61.9503 13.7017C61.8645 14.3305 61.7502 14.9736 61.6073 15.631L59.678 25.1919C59.5922 25.735 59.4922 26.2924 59.3778 26.864C59.2635 27.4071 59.2206 27.9073 59.2492 28.3646C59.2492 28.4504 59.2349 28.5504 59.2063 28.6647V28.922C59.2063 29.2364 59.1778 29.5508 59.1206 29.8652C59.0634 30.1796 58.8776 30.394 58.5632 30.5083C58.3631 30.5941 58.1488 30.6369 57.9201 30.6369H54.1472C53.9185 30.6084 53.747 30.5369 53.6327 30.4226C53.4612 30.3082 53.3469 30.151 53.2897 29.951C53.2326 29.7223 53.1325 29.5365 52.9896 29.3936C52.9324 29.3364 52.861 29.2935 52.7752 29.265C52.7181 29.2078 52.618 29.1935 52.4751 29.2221C52.3036 29.2793 52.1464 29.3507 52.0035 29.4365C51.8606 29.5222 51.7177 29.5937 51.5748 29.6508C51.4033 29.7652 51.2175 29.8652 51.0174 29.951C50.8459 30.0367 50.6601 30.1224 50.46 30.2082C50.0599 30.3797 49.6454 30.5226 49.2167 30.6369C48.7879 30.7227 48.3592 30.8227 47.9305 30.9371C47.7018 30.9942 47.4874 31.0228 47.2874 31.0228C47.1159 31.0514 46.9301 31.08 46.73 31.1085H46.4728C46.387 31.1371 46.3013 31.1514 46.2155 31.1514H45.7439C45.4295 31.2086 45.1437 31.2086 44.8864 31.1514H44.5005C44.3005 31.0943 44.1004 31.0657 43.9003 31.0657C43.7288 31.0943 43.5573 31.08 43.3858 31.0228C43.1286 30.9656 42.8713 30.9085 42.6141 30.8513C42.3568 30.8227 42.1282 30.7513 41.9281 30.6369C41.1564 30.3225 40.5276 29.9224 40.0416 29.4365C39.5557 28.922 39.227 28.2503 39.0555 27.4214C38.9984 27.2213 38.9555 27.0069 38.9269 26.7783C38.9269 26.5496 38.9126 26.3067 38.884 26.0494C38.8555 25.9065 38.8555 25.7636 38.884 25.6207C38.9412 25.4778 38.9698 25.3348 38.9698 25.1919C38.9698 25.1062 38.9841 24.9347 39.0127 24.6774C39.0698 24.3916 39.127 24.1915 39.1842 24.0772C39.2985 23.7914 39.37 23.5484 39.3985 23.3483L39.8273 22.4051C39.9988 22.0621 40.1846 21.762 40.3846 21.5048C41.0135 20.6759 41.6852 20.047 42.3997 19.6183C43.1143 19.1896 44.0003 18.818 45.0579 18.5036C45.4581 18.3607 45.8582 18.2606 46.2584 18.2035C46.6585 18.1463 47.073 18.0748 47.5017 17.9891C47.7304 17.9319 47.9733 17.9033 48.2306 17.9033C48.5164 17.8748 48.7879 17.8319 49.0452 17.7747C49.2453 17.7176 49.4453 17.7033 49.6454 17.7319C49.8455 17.7319 50.0742 17.7033 50.3314 17.6461C50.5315 17.5889 50.7316 17.5604 50.9317 17.5604C51.1317 17.5604 51.3461 17.5318 51.5748 17.4746C52.2036 17.3317 52.7752 17.2174 53.2897 17.1316C53.8328 17.0173 54.3473 16.76 54.8332 16.3599C55.119 16.1026 55.3477 15.8168 55.5192 15.5024C55.5478 15.4167 55.562 15.3452 55.562 15.288C55.562 15.2309 55.5763 15.1737 55.6049 15.1165C55.6621 15.0594 55.6907 14.9736 55.6907 14.8593C55.7193 14.745 55.7478 14.6592 55.7764 14.602V13.9589C55.6621 13.1015 55.1762 12.5155 54.3187 12.2011C54.09 12.1154 53.7899 12.0582 53.4183 12.0296C53.0754 11.9724 52.7181 11.9581 52.3465 11.9867C51.9749 11.9867 51.6033 12.0153 51.2318 12.0725C50.8888 12.1296 50.5887 12.2011 50.3314 12.2868C50.1313 12.344 49.9455 12.4298 49.7741 12.5441C49.6026 12.6298 49.4311 12.7299 49.2596 12.8442C49.0881 12.9585 48.9023 13.1157 48.7022 13.3158C48.5021 13.5159 48.3592 13.7017 48.2735 13.8732C48.0734 14.159 47.9019 14.4306 47.759 14.6878C47.6161 14.945 47.3731 15.1165 47.0301 15.2023C46.8015 15.2594 46.5585 15.288 46.3013 15.288H43.9003C43.7574 15.288 43.6002 15.3023 43.4287 15.3309C43.2858 15.3309 43.1715 15.3166 43.0857 15.288H42.6998C42.6427 15.2594 42.5712 15.2452 42.4855 15.2452C42.3997 15.2452 42.3283 15.2166 42.2711 15.1594C42.071 15.1022 41.9567 14.9165 41.9281 14.602C41.9281 14.4591 41.9567 14.3162 42.0139 14.1733C42.071 14.0304 42.1282 13.9018 42.1853 13.7874C42.3283 13.473 42.4712 13.1872 42.6141 12.93C42.7856 12.6441 42.9571 12.3869 43.1286 12.1582L43.4716 11.7295C43.5859 11.5866 43.7002 11.4437 43.8146 11.3007C44.1004 10.9863 44.4434 10.6862 44.8435 10.4004C44.9293 10.3718 45.0293 10.3004 45.1437 10.186C45.3152 10.0717 45.4581 9.97165 45.5724 9.8859C45.7153 9.80015 45.8725 9.71441 46.044 9.62866C46.5871 9.31425 47.1444 9.0713 47.7161 8.8998C48.3163 8.69972 48.9166 8.51393 49.5168 8.34244C49.8884 8.25669 50.26 8.19952 50.6315 8.17094C51.0031 8.14236 51.389 8.08519 51.7891 7.99944C51.9035 7.97086 52.075 7.97086 52.3036 7.99944C52.5323 8.02803 52.6895 8.01374 52.7752 7.95657C53.9471 7.92799 55.0476 7.97086 56.0765 8.08519ZM103.742 8.42819C104.714 8.77118 105.557 9.2285 106.271 9.80015C106.5 9.97165 106.714 10.1717 106.914 10.4004C107.143 10.6005 107.329 10.8148 107.472 11.0435C107.529 11.1864 107.629 11.3007 107.772 11.3865C107.943 11.7009 108.086 12.0296 108.201 12.3726C108.344 12.687 108.501 13.0157 108.672 13.3587C108.758 13.6159 108.815 13.8875 108.844 14.1733C108.901 14.4306 108.958 14.7164 109.015 15.0308C109.072 15.4024 109.101 15.7882 109.101 16.1884C109.13 16.5885 109.158 16.9887 109.187 17.3889C109.187 17.6175 109.144 17.8748 109.058 18.1606C109.001 18.4178 108.987 18.6608 109.015 18.8894L108.929 19.3611C108.929 19.5897 108.872 19.847 108.758 20.1328C108.644 20.4186 108.501 20.6044 108.329 20.6902C108.186 20.8045 107.972 20.8902 107.686 20.9474C107.4 20.976 107.086 21.0046 106.743 21.0332H105.757C105.442 21.0046 105.157 20.9903 104.899 20.9903H93.8378C93.6663 20.9903 93.5091 21.0189 93.3662 21.076C93.109 21.1904 92.9375 21.3047 92.8517 21.419C92.7946 21.4762 92.7088 21.5905 92.5945 21.762C92.5087 21.9049 92.4659 22.0478 92.4659 22.1908C92.4945 22.3622 92.4945 22.5337 92.4659 22.7052C92.4659 22.8482 92.4802 23.0054 92.5087 23.1769C92.5945 23.8628 92.7517 24.4345 92.9804 24.8918C93.2376 25.3206 93.6092 25.7064 94.0951 26.0494C94.2952 26.1923 94.5095 26.2924 94.7382 26.3495C94.9954 26.3781 95.2384 26.4353 95.467 26.521C95.6957 26.5782 95.9958 26.6211 96.3674 26.6496C96.7676 26.6782 97.1248 26.6639 97.4393 26.6068H97.8251C98.1109 26.5496 98.3825 26.4924 98.6397 26.4353L99.4115 26.178C99.7259 26.0351 100.083 25.8493 100.483 25.6207C100.883 25.392 101.198 25.1634 101.427 24.9347C101.598 24.7346 101.784 24.5488 101.984 24.3773C102.184 24.1772 102.398 24.0343 102.627 23.9486C102.941 23.8057 103.313 23.7485 103.742 23.7771H105.5C105.7 23.7485 105.871 23.7628 106.014 23.82H106.443C106.7 23.8771 106.886 23.9486 107 24.0343C107.086 24.0915 107.115 24.2201 107.086 24.4202C107.086 24.6203 107.043 24.7918 106.957 24.9347C106.729 25.3348 106.486 25.6921 106.228 26.0065C106 26.3209 105.743 26.6354 105.457 26.9498C104.656 27.893 103.799 28.6504 102.884 29.2221C101.97 29.7937 100.869 30.2796 99.583 30.6798C99.24 30.7941 98.9113 30.8656 98.5969 30.8942C98.2824 30.9228 97.9395 30.9799 97.5679 31.0657C97.4536 31.0943 97.3249 31.0943 97.182 31.0657C97.0677 31.0657 96.9534 31.08 96.839 31.1085H96.3674C96.1959 31.1657 96.0244 31.18 95.8529 31.1514C95.6814 31.1514 95.5242 31.1371 95.3813 31.1085C95.1526 31.08 94.9526 31.08 94.7811 31.1085C94.6096 31.1371 94.4238 31.1228 94.2237 31.0657C94.0808 31.0085 93.9236 30.9799 93.7521 30.9799C93.5806 30.9799 93.4377 30.9513 93.3233 30.8942C93.0089 30.837 92.6945 30.7656 92.3801 30.6798C92.0943 30.6226 91.8371 30.5226 91.6084 30.3797C91.3226 30.2654 91.051 30.1653 90.7938 30.0796C90.5365 29.9652 90.3079 29.8366 90.1078 29.6937C89.3075 29.1221 88.6215 28.4646 88.0499 27.7215C87.5068 26.9498 87.1066 26.0637 86.8494 25.0633C86.7636 24.7489 86.7065 24.4345 86.6779 24.1201C86.6779 23.7771 86.635 23.4341 86.5493 23.0911V22.791C86.5778 22.6767 86.5921 22.5623 86.5921 22.448C86.5635 22.105 86.5635 21.7334 86.5921 21.3333L86.7636 20.1328C86.7922 19.9899 86.8065 19.8327 86.8065 19.6612C86.8351 19.4897 86.878 19.3325 86.9351 19.1896L87.0637 18.6751L87.4067 17.6461C87.6068 17.1602 87.7926 16.6886 87.9641 16.2313C88.1356 15.7739 88.35 15.3452 88.6072 14.945C90.4365 11.9724 92.9518 9.87161 96.153 8.64256C96.5818 8.47106 97.0105 8.35673 97.4393 8.29956C97.868 8.21381 98.3253 8.11378 98.8112 7.99944C99.0399 7.97086 99.2543 7.95657 99.4543 7.95657C99.6544 7.95657 99.8688 7.94228 100.097 7.9137C101.555 7.88511 102.77 8.05661 103.742 8.42819ZM14.9496 0.067749C15.4355 0.067749 15.7785 0.167788 15.9786 0.367867C16.1501 0.510781 16.2501 0.725151 16.2787 1.01098C16.3073 1.26822 16.3502 1.52547 16.4073 1.78271C16.4645 2.24003 16.5217 2.71165 16.5788 3.19755C16.6646 3.65488 16.736 4.12649 16.7932 4.6124C17.1076 6.41311 17.3649 8.2424 17.5649 10.1003C17.7936 11.9581 18.0651 13.8017 18.3795 15.631C18.4939 16.2027 18.5796 16.7886 18.6368 17.3889C18.6939 17.9891 18.7797 18.575 18.894 19.1467C18.9226 19.2896 18.9512 19.4325 18.9798 19.5754C19.0084 19.7183 19.0798 19.8327 19.1941 19.9184C19.2513 19.947 19.2942 19.9756 19.3228 20.0042C19.3799 20.0328 19.4514 20.0185 19.5371 19.9613C19.7658 19.9041 19.9516 19.7326 20.0945 19.4468C20.2374 19.161 20.3803 18.9037 20.5232 18.6751C20.8662 18.0177 21.1949 17.3746 21.5093 16.7457C21.8238 16.0883 22.1667 15.4309 22.5383 14.7735C23.453 13.03 24.3676 11.2865 25.2823 9.54291C26.2255 7.77078 27.1544 5.99866 28.0691 4.22653C28.2977 3.76921 28.5264 3.32618 28.7551 2.89744C29.0123 2.44011 29.2553 1.98279 29.4839 1.52547C29.5982 1.2968 29.7269 1.06814 29.8698 0.839482C30.0127 0.61082 30.2128 0.425033 30.47 0.282119C30.6701 0.139206 30.8988 0.067749 31.156 0.067749H38.5303C38.8162 0.067749 39.0162 0.124914 39.1306 0.239245C39.4164 0.410741 39.5021 0.739442 39.3878 1.22535C39.3021 1.68267 39.2163 2.15429 39.1306 2.64019L37.8444 9.0713L34.6288 25.0204L33.8999 28.7505C33.8428 29.0649 33.7713 29.3793 33.6856 29.6937C33.5998 29.9795 33.4569 30.1939 33.2568 30.3368C33.0568 30.4797 32.8281 30.5655 32.5708 30.5941H28.4978C28.2977 30.5369 28.1119 30.494 27.9404 30.4654C27.7975 30.4369 27.6832 30.3368 27.5975 30.1653C27.5117 30.0224 27.4831 29.8366 27.5117 29.608C27.5689 29.3793 27.626 29.1363 27.6832 28.8791L28.1119 26.6925L30.3414 15.6739C30.3986 15.2737 30.4557 14.9022 30.5129 14.5592C30.5986 14.1876 30.6701 13.816 30.7273 13.4444C30.7844 13.2158 30.8416 12.9871 30.8988 12.7585C30.9559 12.5012 30.9845 12.2583 30.9845 12.0296C30.9559 11.8295 30.9559 11.6152 30.9845 11.3865C31.0417 11.1578 30.9988 11.0149 30.8559 10.9578C30.7701 10.9292 30.6987 10.9435 30.6415 11.0006L30.5129 11.1292C30.37 11.2436 30.2414 11.3865 30.127 11.558L29.8698 11.9867C29.6125 12.4155 29.3553 12.8585 29.098 13.3158C28.8694 13.7731 28.6121 14.2305 28.3263 14.6878L28.0691 15.2023C28.0119 15.3738 27.9262 15.5453 27.8118 15.7168C27.5832 16.0883 27.3688 16.4599 27.1687 16.8315C26.9972 17.2031 26.7971 17.5746 26.5685 17.9462C26.5113 18.032 26.4684 18.132 26.4399 18.2463C26.4113 18.3321 26.3684 18.4178 26.3112 18.5036C26.1397 18.7608 25.9825 19.0324 25.8396 19.3182C25.7253 19.604 25.5681 19.8898 25.368 20.1757C25.1965 20.4329 25.0393 20.7044 24.8964 20.9903C24.7821 21.2761 24.6391 21.5619 24.4677 21.8478C23.9532 22.6767 23.4815 23.5198 23.0528 24.3773C22.6241 25.2062 22.181 26.0351 21.7237 26.864C21.638 26.9498 21.5808 27.0355 21.5522 27.1213C21.5522 27.207 21.5093 27.2928 21.4236 27.3785C21.2235 27.6929 21.0377 28.0216 20.8662 28.3646C20.7233 28.679 20.5518 28.9934 20.3517 29.3078C20.2374 29.5079 20.1231 29.6937 20.0088 29.8652C19.8944 30.0367 19.7658 30.1796 19.6229 30.2939C19.4514 30.4083 19.2942 30.4797 19.1513 30.5083C19.0084 30.5083 18.8226 30.5369 18.5939 30.5941H17.6078C17.4077 30.5941 17.1648 30.6084 16.8789 30.6369H16.0643C15.8071 30.6369 15.5641 30.6226 15.3355 30.5941C15.1068 30.5655 14.9496 30.5083 14.8639 30.4226C14.6638 30.2796 14.5352 30.1224 14.478 29.951C14.4494 29.7509 14.3923 29.5222 14.3065 29.265C14.2493 28.922 14.2065 28.579 14.1779 28.236C14.1493 27.8644 14.0921 27.5071 14.0064 27.1641L13.9635 26.7783C13.8778 26.4353 13.8206 26.078 13.792 25.7064C13.7634 25.3063 13.7063 24.9347 13.6205 24.5917V24.3773C13.6205 24.2916 13.6062 24.2058 13.5776 24.1201C13.4919 23.8628 13.4347 23.5913 13.4062 23.3055C13.3776 23.0196 13.3347 22.7338 13.2775 22.448V22.2336C13.2775 22.1479 13.2632 22.0764 13.2347 22.0193C13.1775 21.7334 13.1346 21.4476 13.106 21.1618C13.106 20.8759 13.0632 20.5901 12.9774 20.3043C12.8631 19.7326 12.763 19.1324 12.6773 18.5036C12.6201 17.8748 12.5344 17.2602 12.42 16.66C12.3057 15.9454 12.2057 15.2166 12.1199 14.4734C12.0628 13.7303 11.9341 13.0157 11.7341 12.3297C11.6769 11.9296 11.5912 11.6009 11.4768 11.3436C11.4197 11.2865 11.3625 11.2436 11.3053 11.215C11.2767 11.1578 11.2196 11.1578 11.1338 11.215C10.9623 11.3007 10.848 11.4437 10.7908 11.6437C10.7623 11.8438 10.7051 12.0439 10.6193 12.244C10.505 12.4441 10.4336 12.6584 10.405 12.8871C10.3764 13.0872 10.3478 13.3015 10.3192 13.5302C10.2621 13.8446 10.1906 14.159 10.1049 14.4734C10.0477 14.7878 9.97623 15.1022 9.89048 15.4167L7.61816 26.8211L7.18942 28.922L7.01792 29.608C6.98934 29.8366 6.90359 30.0224 6.76068 30.1653C6.61776 30.3654 6.37481 30.494 6.03182 30.5512C5.83174 30.6084 5.61737 30.6369 5.38871 30.6369C5.16005 30.6084 4.93138 30.5941 4.70272 30.5941H1.61579C1.35855 30.5655 1.15847 30.4797 1.01556 30.3368C0.872642 30.1939 0.815477 29.9795 0.84406 29.6937L1.01556 28.7505L1.74441 24.9776L4.95997 9.02842L6.16044 3.02606C6.18902 2.85456 6.21761 2.65448 6.24619 2.42582C6.30335 2.16858 6.36052 1.92562 6.41768 1.69696C6.47485 1.4683 6.53201 1.25393 6.58918 1.05385C6.67493 0.82519 6.74639 0.653694 6.80355 0.539363C6.97505 0.339285 7.23229 0.196371 7.57528 0.110623C7.66103 0.0820404 7.7182 0.0820404 7.74678 0.110623C7.80394 0.110623 7.8754 0.0963317 7.96115 0.067749H14.9496ZM131.533 8.68543C132.591 9.2285 133.334 10.0288 133.763 11.0864C133.906 11.4008 133.992 11.7438 134.02 12.1154C134.077 12.4583 134.12 12.8156 134.149 13.1872C134.177 13.4159 134.177 13.6302 134.149 13.8303C134.12 14.0304 134.12 14.2305 134.149 14.4305C134.092 14.602 134.077 14.7164 134.106 14.7735C134.077 15.1737 134.02 15.5881 133.934 16.0169C133.849 16.4456 133.763 16.8601 133.677 17.2602L132.948 21.076L131.533 28.0216C131.419 28.5647 131.305 29.0935 131.19 29.608C131.076 30.0939 130.805 30.4083 130.376 30.5512C130.204 30.6084 130.004 30.6369 129.776 30.6369H126.774C126.431 30.6369 126.131 30.6226 125.874 30.5941C125.617 30.5369 125.431 30.4083 125.317 30.2082C125.231 30.0367 125.202 29.8223 125.231 29.5651C125.288 29.2793 125.345 28.9791 125.403 28.6647L126.003 25.6635L127.289 19.2753C127.489 18.2178 127.632 17.2459 127.718 16.3599C127.832 15.4452 127.732 14.6735 127.418 14.0447C127.132 13.473 126.632 13.0729 125.917 12.8442C125.774 12.787 125.617 12.7585 125.445 12.7585C125.302 12.7585 125.16 12.7299 125.017 12.6727C124.874 12.6441 124.688 12.6441 124.459 12.6727C124.259 12.6727 124.102 12.687 123.988 12.7156C123.845 12.7442 123.73 12.7585 123.645 12.7585C123.559 12.7585 123.473 12.7728 123.387 12.8013C122.701 12.9728 122.13 13.2015 121.672 13.4873C120.615 14.1447 119.872 15.1022 119.443 16.3599C119.043 17.6175 118.686 19.0324 118.371 20.6044L117.299 25.9637L116.785 28.579C116.728 28.8362 116.67 29.0935 116.613 29.3507C116.556 29.608 116.47 29.8223 116.356 29.9938C116.156 30.3082 115.884 30.494 115.541 30.5512C115.227 30.6084 114.841 30.6369 114.384 30.6369H112.24C111.926 30.6369 111.611 30.6226 111.297 30.5941C110.983 30.5655 110.782 30.4654 110.697 30.2939C110.525 30.0367 110.497 29.6651 110.611 29.1792C110.725 28.6933 110.825 28.236 110.911 27.8072L112.069 21.9764L113.955 12.5441L114.427 10.3575C114.484 10.0431 114.541 9.75728 114.598 9.50004C114.655 9.24279 114.784 9.02842 114.984 8.85693C115.041 8.77118 115.141 8.71401 115.284 8.68543C115.427 8.62826 115.57 8.58539 115.713 8.55681H115.927C116.07 8.52822 116.213 8.51393 116.356 8.51393H118.628C118.857 8.51393 119.071 8.52822 119.272 8.55681C119.5 8.55681 119.7 8.58539 119.872 8.64256C120.043 8.7283 120.143 8.85693 120.172 9.02842C120.229 9.19992 120.258 9.4 120.258 9.62866C120.258 9.74299 120.243 9.84303 120.215 9.92878C120.186 10.0145 120.186 10.1003 120.215 10.186C120.243 10.3289 120.272 10.4147 120.3 10.4433C120.358 10.4718 120.429 10.5147 120.515 10.5719C120.801 10.6005 121.072 10.5004 121.329 10.2718C121.587 10.0145 121.844 9.81445 122.101 9.67153C122.987 9.09988 123.93 8.64256 124.931 8.29956C125.217 8.21381 125.488 8.15665 125.745 8.12807C126.031 8.09948 126.346 8.05661 126.689 7.99944C126.774 7.97086 126.903 7.97086 127.075 7.99944C127.246 7.99944 127.36 7.98515 127.418 7.95657C129.133 7.89941 130.505 8.14236 131.533 8.68543ZM53.7185 20.3472C53.6041 20.3757 53.5041 20.4043 53.4183 20.4329C53.3326 20.4329 53.2183 20.4472 53.0754 20.4758C52.8753 20.533 52.6609 20.5758 52.4322 20.6044C52.2036 20.633 51.9606 20.6759 51.7034 20.733C51.6176 20.7616 51.489 20.7759 51.3175 20.7759C50.9174 20.8617 50.5315 20.9188 50.1599 20.9474C49.7883 20.976 49.4168 21.0474 49.0452 21.1618L48.3592 21.3333C48.1591 21.3619 47.959 21.419 47.759 21.5048C47.1016 21.762 46.5156 22.1479 46.0011 22.6624C45.4866 23.1769 45.1865 23.8914 45.1008 24.8061C45.0722 25.292 45.1579 25.6921 45.358 26.0065C45.4724 26.3209 45.7153 26.5782 46.0869 26.7783C46.4585 26.9498 46.8729 27.0784 47.3302 27.1641C47.7876 27.2499 48.2735 27.2785 48.7879 27.2499C49.331 27.1927 49.8455 27.0927 50.3314 26.9498C51.1317 26.7211 51.7891 26.3638 52.3036 25.8779C52.8467 25.3634 53.304 24.7346 53.6756 23.9915C53.7613 23.7914 53.8328 23.5913 53.89 23.3912C53.9471 23.1626 54.0329 22.9339 54.1472 22.7052L54.233 22.3194C54.2901 22.1765 54.333 22.0193 54.3616 21.8478C54.3902 21.6477 54.4044 21.4762 54.4044 21.3333C54.4044 21.1618 54.4187 21.0046 54.4473 20.8617C54.4759 20.7187 54.433 20.6044 54.3187 20.5187C54.2044 20.4043 54.0043 20.3472 53.7185 20.3472ZM99.24 12.4155C99.1542 12.4726 99.0542 12.4869 98.9398 12.4583C98.8255 12.4298 98.7255 12.4298 98.6397 12.4583C98.4682 12.5155 98.2967 12.5584 98.1252 12.587C97.9537 12.587 97.7965 12.6155 97.6536 12.6727C96.3102 13.0729 95.2241 13.8589 94.3952 15.0308C94.3094 15.1451 94.2094 15.3023 94.0951 15.5024C93.9808 15.6739 93.895 15.8597 93.8378 16.0598C93.7807 16.2313 93.7521 16.4028 93.7521 16.5743C93.7521 16.7457 93.8235 16.8887 93.9665 17.003C94.1665 17.1459 94.4667 17.2174 94.8668 17.2174H102.027C102.484 17.1888 102.799 17.0602 102.97 16.8315C103.227 16.5457 103.313 16.2027 103.227 15.8025C103.17 15.3738 103.127 15.0594 103.099 14.8593C102.841 14.0876 102.427 13.5016 101.855 13.1015C101.284 12.6727 100.412 12.4441 99.24 12.4155Z" fill="black"></path><path d="M85.9662 7.62286C85.9052 7.64803 85.8387 7.67963 85.7671 7.71746L85.6559 7.77882C85.5793 7.82281 85.4977 7.87291 85.4114 7.92892L85.2786 8.01734L85.139 8.11446L84.9929 8.22012L84.8405 8.33418C84.8146 8.35388 84.7884 8.37392 84.762 8.3943L84.6007 8.52065L84.4337 8.65499L84.2612 8.79717L84.0835 8.94703L83.9008 9.10442L83.7133 9.26919L83.5214 9.44116C83.4891 9.47042 83.4565 9.49997 83.4238 9.52981L84.0519 11.2986C84.7313 10.5736 85.4139 9.92812 86.0835 9.37811L86.3192 9.18697L86.3362 9.17393L86.1742 9.30577L86.0153 9.44314L85.8431 9.59891L85.6797 9.75202L85.5423 9.88416L85.4438 9.98073L85.2302 10.1948L85.0557 10.3742L84.8041 10.6393L84.6703 10.7833L84.5312 10.9351L84.3127 11.1776L84.1605 11.3493C84.3167 11.3642 84.488 11.377 84.6704 11.388L84.9518 11.403L85.2469 11.4151L85.5528 11.4246L85.8666 11.4314L86.1853 11.4357C86.2387 11.4362 86.2921 11.4366 86.3456 11.4369L86.6661 11.4374C86.7194 11.4373 86.7726 11.4371 86.8256 11.4368L87.1414 11.4337C87.1936 11.433 87.2454 11.4322 87.2969 11.4313L87.6013 11.4249C87.8512 10.68 87.9084 10.0811 87.889 9.63382L87.8823 9.52059L87.8726 9.41427C87.8708 9.39712 87.8688 9.38027 87.8668 9.3637L87.8534 9.26778L87.8381 9.17882C87.8354 9.16458 87.8327 9.15063 87.8299 9.13696L87.8127 9.05849L87.7948 8.98704L87.7766 8.92263L87.7586 8.86529L87.725 8.77189L87.6977 8.70703L87.6328 8.57322L87.5949 8.5018L87.5633 8.44569L87.5267 8.38405L87.485 8.31799L87.4385 8.2486L87.3872 8.17699C87.1006 7.79103 86.6112 7.35672 85.9662 7.62286Z" fill="url(#paint7_linear_1410_12635)"></path><path d="M80.8638 15.1586C81.2033 14.7037 81.541 14.2601 81.8771 13.8279C82.2271 13.3803 82.5802 12.9506 82.9373 12.5331C82.9585 12.5072 82.9797 12.4813 83.0001 12.4611C83.3499 12.0541 83.6972 11.6641 84.0477 11.292L83.4187 9.52893L83.3429 9.59924L83.1841 9.74397C82.8884 10.0197 82.578 10.3164 82.2586 10.635C82.0785 10.8146 81.8962 10.9996 81.7109 11.1899L81.3361 11.5778C81.2729 11.6436 81.2093 11.71 81.1454 11.777C80.7949 12.1491 80.4354 12.5431 80.0743 12.9484C79.8443 13.2105 79.614 13.4759 79.3828 13.7468L79.1162 14.061L79.9189 16.4587L80.2362 16.024L80.8638 15.1586Z" fill="url(#paint8_linear_1410_12635)"></path><path d="M73.9849 26.7733L73.8655 26.9936L73.5499 27.5826C73.4969 27.6821 73.4438 27.7824 73.3907 27.8834L73.2237 28.2048C73.1918 28.2639 73.1608 28.3174 73.1346 28.3774L72.959 28.7161L72.5752 29.4614C72.8878 29.6639 73.0964 30.1006 73.2796 30.5916C73.3204 30.1161 73.1923 29.6448 72.8731 29.2498C74.5036 29.5645 75.9842 29.3582 76.8878 28.2609C76.9661 28.1622 77.0452 28.0578 77.1195 27.9468C76.737 28.3047 76.3183 28.4306 75.5972 28.2961L75.5158 28.2801C76.7324 27.9364 77.3785 27.5265 78.0031 26.7885C78.1507 26.6129 78.3008 26.4203 78.4542 26.205C77.3038 27.0862 76.1028 27.2059 74.9142 26.8052L73.9849 26.7733Z" fill="url(#paint9_linear_1410_12635)"></path><path d="M74.5293 25.1169L74.8677 24.5223L75.4271 23.5447C75.6993 23.0741 75.977 22.6043 76.2613 22.1297C76.5456 21.6551 76.8356 21.1813 77.1256 20.7075C77.4229 20.2232 77.7251 19.7454 78.0329 19.2684C78.3342 18.7963 78.6469 18.3259 78.9531 17.8603C79.065 17.691 79.176 17.5275 79.2935 17.3591C79.4862 17.0741 79.6845 16.7899 79.8828 16.5057L79.9131 16.4579L79.1209 14.0675L79.0762 14.1233C79.0682 14.1326 79.0597 14.1417 79.0508 14.15C78.7262 14.5433 78.3951 14.9415 78.0737 15.3526C77.7458 15.7686 77.4228 16.1911 77.1037 16.6259C76.8352 16.9926 76.5725 17.3601 76.3088 17.7333L76.1538 17.96C75.8354 18.4297 75.5357 18.8904 75.2678 19.3326C74.9623 19.8331 74.6885 20.3151 74.4416 20.772C74.2814 21.0734 74.1285 21.3642 73.9886 21.6454C73.8724 21.8836 73.7611 22.1283 73.6506 22.3674C73.3936 22.933 73.1649 23.5028 72.959 24.076L73.7657 26.4859L73.9227 26.1999L74.2437 25.6244C74.2975 25.5277 74.3513 25.4304 74.4048 25.3324L74.5293 25.1169Z" fill="url(#paint10_linear_1410_12635)"></path><path d="M72.9301 24.153C72.714 24.7609 72.5283 25.3732 72.3807 25.9912L72.3033 26.3294C72.2307 26.1619 72.1139 25.9888 71.9823 25.8255L71.9018 25.7288C71.8882 25.713 71.8744 25.6972 71.8607 25.6816L71.7774 25.5898L71.6942 25.5023L71.6122 25.4196L71.4949 25.3065L71.3885 25.2086L71.2718 25.1062L71.1669 25.0197C71.7034 26.1079 72.0769 27.1606 72.0099 28.1312C71.6356 28.1517 71.1517 27.9705 70.6089 27.6762C70.8425 27.9627 71.0571 28.1648 71.238 28.3066L71.3191 28.3678C71.3322 28.3773 71.3451 28.3865 71.3577 28.3953L71.4311 28.4447L71.4988 28.4867L71.5607 28.522L71.6164 28.5511L71.6656 28.5746L71.7079 28.5928C71.7144 28.5954 71.7206 28.5979 71.7264 28.6001C71.2716 28.5619 70.7676 28.7533 70.2469 29.0171L70.0728 29.1075L69.8977 29.202C70.7947 28.9798 71.5019 28.9443 71.9737 29.1295C71.742 29.5682 71.5088 30.0172 71.2741 30.4757L70.9212 31.1705C70.3903 32.2232 69.8525 33.322 69.3094 34.4581L68.9465 35.2208C68.8252 35.4768 68.7038 35.7346 68.582 35.994C68.8306 35.9608 68.9967 35.817 69.1079 35.6128L69.5188 34.7415L69.897 33.9581L70.3803 32.9742L70.8072 32.119L71.2301 31.2832L71.6319 30.4994L72.1895 29.4274L72.5855 28.6771L72.7215 28.4213L72.8388 28.2047L72.9456 28.0016L73.1082 27.7013L73.4417 27.0889C73.4982 26.9855 73.5552 26.8814 73.6126 26.7767L73.7704 26.4924L73.7712 26.4867L72.9645 24.0768C72.9541 24.0946 72.9467 24.1103 72.94 24.1269L72.9301 24.153Z" fill="url(#paint11_linear_1410_12635)"></path><path d="M80.072 16.6785L79.9462 16.8631C79.8619 16.99 79.775 17.1164 79.6887 17.2447L79.2748 17.8688L78.9794 18.3126L78.9045 18.4275C78.7922 18.5996 78.6795 18.7745 78.5657 18.9521L78.2202 19.4932C77.9909 19.854 77.76 20.2258 77.5241 20.6109L77.3463 20.9023C77.0636 21.3656 76.772 21.8507 76.4787 22.3472L76.1411 22.9236C75.9708 23.2151 75.7984 23.5122 75.6248 23.8174C75.5218 23.9972 75.4185 24.1797 75.3144 24.3646L74.801 25.2803L74.6436 25.5656L74.3242 26.1468C74.2169 26.3428 74.109 26.5409 74.0007 26.7409C73.9934 26.7514 73.986 26.7619 73.9844 26.7733L74.9137 26.8052C74.8975 26.797 74.8805 26.7945 74.8586 26.7855C75.9747 26.8101 77.5486 26.2056 78.634 25.3322C79.1339 24.9298 79.6058 24.4421 80.0634 23.8537C80.406 23.4166 80.7334 22.9251 81.0643 22.3703C81.3494 21.89 81.6355 21.3635 81.9169 20.7898C81.6479 20.8837 81.3441 20.9378 81.016 20.9593L80.8407 20.9684C80.8017 20.9704 80.7631 20.9699 80.7227 20.97L80.6604 20.9709C81.7402 20.7291 82.4928 20.0679 83.0951 19.2048C82.8015 19.3474 82.3293 19.5218 81.7893 19.5643C81.7186 19.5714 81.6431 19.5719 81.5676 19.5724C81.5563 19.5708 81.5445 19.5716 81.5312 19.5714L81.51 19.5698C81.8838 19.4738 82.2089 19.3533 82.4993 19.1928C82.5411 19.1719 82.5807 19.148 82.6196 19.1232L82.6775 19.0855C82.767 19.029 82.8517 18.966 82.9364 18.9031L83.0943 18.7754C83.2141 18.6711 83.3298 18.5547 83.4358 18.4252L83.5036 18.3466C83.5143 18.3336 83.5247 18.3203 83.5345 18.3062L83.6201 18.1856C83.6337 18.1661 83.6468 18.1467 83.6593 18.1273C83.82 17.8971 83.9558 17.6854 84.0704 17.4928L84.1183 17.4114C84.1804 17.3045 84.2351 17.2081 84.2834 17.1166L84.3398 17.0088L84.4254 16.8355C84.4429 16.7996 84.4591 16.7653 84.4732 16.7325L84.4981 16.6743L84.5406 16.5691C84.5531 16.5366 84.564 16.5068 84.5731 16.4798L84.5855 16.4415C84.56 16.4571 84.532 16.4724 84.5017 16.4855L84.4545 16.5035C84.1212 16.6403 83.568 16.7332 83.1304 16.7502C83.1247 16.7493 83.1191 16.7485 83.1126 16.7533L83.0252 16.7539C83.0099 16.7544 82.9943 16.7553 82.9786 16.7569L83.003 16.7489L80.0835 16.6396C80.0858 16.6631 80.0785 16.6736 80.072 16.6785Z" fill="url(#paint12_linear_1410_12635)"></path><path d="M84.1604 11.3494C84.056 11.4675 83.9482 11.5916 83.837 11.7213L83.61 11.9885L83.3739 12.2706L83.0887 12.615C83.0826 12.6229 83.0769 12.6311 83.0718 12.64C82.9091 12.8395 82.7421 13.0485 82.5698 13.2683L82.3075 13.6064C82.2631 13.6642 82.2183 13.7226 82.1732 13.7818L81.7962 14.2802L81.5498 14.6104C81.4251 14.7786 81.2979 14.9518 81.1683 15.1309L81.0379 15.3119C80.9071 15.4917 80.7755 15.6766 80.6419 15.8665L80.3713 16.2531L80.0928 16.6526L83.0123 16.7619C83.9038 16.4983 84.3295 16.2068 84.7671 15.7547C84.8545 15.6631 84.9429 15.5651 85.0318 15.4631L85.1209 15.3599C85.4837 14.9432 85.8475 14.4803 86.1773 14.0123C86.4988 13.5606 86.7911 13.1103 87.0191 12.7029C87.1679 12.4404 87.2906 12.1974 87.3864 11.9794C87.4667 11.7881 87.5339 11.6065 87.5947 11.4298L87.2918 11.4351L86.9804 11.4383L86.6633 11.4394L86.3436 11.4383C86.2903 11.4379 86.2369 11.4374 86.1837 11.4368L85.8655 11.4322L85.5522 11.425C85.5005 11.4237 85.4491 11.4222 85.3982 11.4205L85.0975 11.4096C85.0483 11.4075 84.9996 11.4053 84.9515 11.4031L84.6702 11.388C84.4879 11.3771 84.3166 11.3642 84.1604 11.3494Z" fill="url(#paint13_linear_1410_12635)"></path></g><defs><linearGradient id="paint0_linear_1410_12635" x1="144.743" y1="264.732" x2="628.901" y2="106.851" gradientUnits="userSpaceOnUse"><stop stop-color="#F69923"></stop><stop offset="0.3123" stop-color="#F79A23"></stop><stop offset="0.8383" stop-color="#E97826"></stop></linearGradient><linearGradient id="paint1_linear_1410_12635" x1="111.388" y1="2590.85" x2="705.433" y2="232.431" gradientUnits="userSpaceOnUse"><stop offset="0.3233" stop-color="#9E2064"></stop><stop offset="0.6302" stop-color="#C92037"></stop><stop offset="0.7514" stop-color="#CD2335"></stop><stop offset="1" stop-color="#E97826"></stop></linearGradient><linearGradient id="paint2_linear_1410_12635" x1="167.204" y1="1172.48" x2="557.449" y2="-728.105" gradientUnits="userSpaceOnUse"><stop stop-color="#282662"></stop><stop offset="0.0954839" stop-color="#662E8D"></stop><stop offset="0.7882" stop-color="#9F2064"></stop><stop offset="0.9487" stop-color="#CD2032"></stop></linearGradient><linearGradient id="paint3_linear_1410_12635" x1="197.454" y1="1914.94" x2="1061.2" y2="-185.424" gradientUnits="userSpaceOnUse"><stop offset="0.3233" stop-color="#9E2064"></stop><stop offset="0.6302" stop-color="#C92037"></stop><stop offset="0.7514" stop-color="#CD2335"></stop><stop offset="1" stop-color="#E97826"></stop></linearGradient><linearGradient id="paint4_linear_1410_12635" x1="235.497" y1="815.79" x2="931.019" y2="-50.7862" gradientUnits="userSpaceOnUse"><stop stop-color="#282662"></stop><stop offset="0.0954839" stop-color="#662E8D"></stop><stop offset="0.7882" stop-color="#9F2064"></stop><stop offset="0.9487" stop-color="#CD2032"></stop></linearGradient><linearGradient id="paint5_linear_1410_12635" x1="248.851" y1="2469.48" x2="883.9" y2="-536.614" gradientUnits="userSpaceOnUse"><stop offset="0.3233" stop-color="#9E2064"></stop><stop offset="0.6302" stop-color="#C92037"></stop><stop offset="0.7514" stop-color="#CD2335"></stop><stop offset="1" stop-color="#E97826"></stop></linearGradient><linearGradient id="paint6_linear_1410_12635" x1="137.164" y1="3709.71" x2="734.81" y2="230.774" gradientUnits="userSpaceOnUse"><stop offset="0.3233" stop-color="#9E2064"></stop><stop offset="0.6302" stop-color="#C92037"></stop><stop offset="0.7514" stop-color="#CD2335"></stop><stop offset="1" stop-color="#E97826"></stop></linearGradient><linearGradient id="paint7_linear_1410_12635" x1="157.756" y1="242.534" x2="786.143" y2="75.0473" gradientUnits="userSpaceOnUse"><stop stop-color="#F69923"></stop><stop offset="0.3123" stop-color="#F79A23"></stop><stop offset="0.8383" stop-color="#E97826"></stop></linearGradient><linearGradient id="paint8_linear_1410_12635" x1="-342.146" y1="2746.59" x2="936.426" y2="404.08" gradientUnits="userSpaceOnUse"><stop offset="0.3233" stop-color="#9E2064"></stop><stop offset="0.6302" stop-color="#C92037"></stop><stop offset="0.7514" stop-color="#CD2335"></stop><stop offset="1" stop-color="#E97826"></stop></linearGradient><linearGradient id="paint9_linear_1410_12635" x1="-48.6419" y1="593.101" x2="528.726" y2="-376.629" gradientUnits="userSpaceOnUse"><stop stop-color="#282662"></stop><stop offset="0.0954839" stop-color="#662E8D"></stop><stop offset="0.7882" stop-color="#9F2064"></stop><stop offset="0.9487" stop-color="#CD2032"></stop></linearGradient><linearGradient id="paint10_linear_1410_12635" x1="137.064" y1="2131.37" x2="1433.65" y2="-63.4358" gradientUnits="userSpaceOnUse"><stop offset="0.3233" stop-color="#9E2064"></stop><stop offset="0.6302" stop-color="#C92037"></stop><stop offset="0.7514" stop-color="#CD2335"></stop><stop offset="1" stop-color="#E97826"></stop></linearGradient><linearGradient id="paint11_linear_1410_12635" x1="260.821" y1="945.334" x2="971.995" y2="-112.737" gradientUnits="userSpaceOnUse"><stop stop-color="#282662"></stop><stop offset="0.0954839" stop-color="#662E8D"></stop><stop offset="0.7882" stop-color="#9F2064"></stop><stop offset="0.9487" stop-color="#CD2032"></stop></linearGradient><linearGradient id="paint12_linear_1410_12635" x1="-294.355" y1="1898.31" x2="1200.36" y2="-496.741" gradientUnits="userSpaceOnUse"><stop offset="0.3233" stop-color="#9E2064"></stop><stop offset="0.6302" stop-color="#C92037"></stop><stop offset="0.7514" stop-color="#CD2335"></stop><stop offset="1" stop-color="#E97826"></stop></linearGradient><linearGradient id="paint13_linear_1410_12635" x1="-894.134" y1="1453.53" x2="63.1276" y2="-124.133" gradientUnits="userSpaceOnUse"><stop offset="0.3233" stop-color="#9E2064"></stop><stop offset="0.6302" stop-color="#C92037"></stop><stop offset="0.7514" stop-color="#CD2335"></stop><stop offset="1" stop-color="#E97826"></stop></linearGradient><clipPath id="clip0_1410_12635"><rect width="133.333" height="36" fill="white" transform="translate(0.836914)"></rect></clipPath></defs></svg>