<svg xmlns="http://www.w3.org/2000/svg" width="125" height="48" viewBox="0 0 125 48" fill="none"><g clip-path="url(#clip0_1410_12636)"><path d="M10.8789 0.180298L12.155 2.5803C12.4328 3.01322 12.7562 3.41512 13.1197 3.77913C14.1886 4.848 15.2059 5.9684 16.1168 7.1684C18.2803 10.0098 19.7402 13.1649 20.7833 16.5811C21.4085 18.6673 21.748 20.8051 21.7737 22.9686C21.8791 29.4345 19.6617 34.9873 15.1778 39.6023C14.4513 40.3339 13.6667 41.0054 12.8317 41.6101C12.3868 41.6101 12.1796 41.2589 11.9969 40.9581C11.6457 40.3727 11.449 39.7323 11.3448 39.0814C11.188 38.2993 11.0838 37.5173 11.1365 36.7083V36.343C11.1107 36.2646 10.7197 0.364103 10.8754 0.181469L10.8789 0.180298Z" fill="#599636"></path><path d="M10.8789 0.102965C10.8262 -0.00240048 10.7736 0.0772097 10.7221 0.128722C10.7478 0.649697 10.5652 1.11916 10.2772 1.56287C9.96459 2.00775 9.54664 2.34492 9.12986 2.71019C6.80947 4.71799 4.98547 7.14258 3.52439 9.85399C1.59503 13.5043 0.578832 17.4146 0.293174 21.5344C0.164393 23.0212 0.761466 28.2614 1.2321 29.7728C2.5082 33.7884 4.80283 37.1508 7.7882 40.0706C8.51873 40.773 9.30078 41.4263 10.1086 42.0515C10.3427 42.0515 10.3697 41.8431 10.4212 41.6862C10.5239 41.3532 10.6022 41.0132 10.6553 40.6688C10.8895 39.3658 11.0206 38.0616 11.1763 36.7586L10.8895 0.102965H10.8789Z" fill="#6CAC48"></path><path d="M12.1579 43.2C12.2106 42.6006 12.5092 42.1053 12.81 41.6101C12.4975 41.4813 12.2621 41.2191 12.0795 40.9311C11.9226 40.67 11.7927 40.3457 11.6885 40.0706C11.3232 38.976 11.2436 37.8287 11.1406 36.7071V36.0281C11.0118 36.1334 10.9837 37.0185 10.9837 37.1496C10.9053 38.3485 10.7496 39.5227 10.5154 40.6689C10.437 41.1372 10.3866 41.6078 10.0986 42.0246C10.0986 42.0773 10.0986 42.1299 10.1244 42.2072C10.5927 43.5887 10.7238 44.9971 10.8034 46.4312V46.9522C10.8034 47.5773 10.7777 47.4474 11.2986 47.6546C11.507 47.7331 11.7435 47.76 11.9507 47.9157C12.1076 47.9157 12.1334 47.7869 12.1334 47.6815L12.0549 46.8211V44.4211C12.0292 44.0043 12.1076 43.5863 12.1603 43.1953L12.1579 43.2Z" fill="#C2BFBF"></path><path d="M31.9558 32.2962V34.7791C31.953 34.8775 31.9586 34.9758 31.9726 35.0732C32.0048 35.3673 32.1854 35.5466 32.4507 35.6291C32.6984 35.6943 32.9499 35.7434 33.2039 35.7762C33.3509 35.7929 33.3999 35.8574 33.4167 36.0152C33.4334 36.5711 33.3844 36.6369 32.8452 36.6034C31.5876 36.5377 30.3288 36.5221 29.0712 36.6034H28.9516C28.5595 36.6202 28.5272 36.5867 28.5272 36.1946C28.5272 36.1288 28.544 36.0475 28.544 35.9818C28.544 35.8622 28.6253 35.8025 28.74 35.8025C29.003 35.7702 29.2469 35.7044 29.4932 35.6554C29.8363 35.5741 30.0311 35.3613 30.0646 35.0182C30.1124 34.6429 30.1124 34.2507 30.1124 33.8742L30.1292 29.4964C30.1345 29.3694 30.1037 29.2435 30.0402 29.1335C29.9767 29.0234 29.8831 28.9336 29.7705 28.8748C29.4749 28.7105 29.1622 28.579 28.8381 28.4826C28.74 28.4504 28.642 28.4348 28.5607 28.3846C28.3216 28.2698 28.3156 28.0583 28.544 27.9268C28.6253 27.8789 28.7233 27.8455 28.8213 27.8287C29.8128 27.6824 30.7869 27.4361 31.7287 27.0935C31.9247 27.0278 31.9738 27.0457 31.9917 27.2406C32.0084 27.3601 31.9917 27.5036 31.9749 27.6159C31.9427 27.8287 31.9427 28.0403 31.9427 28.2376C31.9427 28.3189 31.9594 28.4013 32.0407 28.4504C32.122 28.4994 32.2045 28.4504 32.2798 28.4025C32.6229 28.1395 32.966 27.8957 33.3414 27.6853C33.8793 27.3912 34.4531 27.1294 35.0748 27.0481C35.8279 26.9501 36.4795 27.1461 37.0521 27.6363C37.2888 27.8482 37.4974 28.0896 37.6725 28.3547C37.8363 28.5938 37.8518 28.5998 38.0646 28.436C38.6863 27.9782 39.339 27.5705 40.0419 27.2764C40.7771 26.9656 41.5291 26.9178 42.2798 27.1784C43.0473 27.4557 43.5709 27.9949 43.8818 28.7301C44.1448 29.3183 44.2571 29.9256 44.2571 30.5592V34.9369C44.2571 35.231 44.3767 35.4151 44.666 35.5586C44.9768 35.6781 45.3199 35.7379 45.6463 35.8036C45.859 35.8515 45.8591 35.8515 45.8591 36.0667C45.8268 36.6046 45.7778 36.6381 45.2541 36.6046C43.943 36.5311 42.6287 36.5311 41.3175 36.6046C41.0545 36.6213 41.0545 36.6213 41.0401 36.3595V36.2782C41.0234 35.8359 41.0234 35.8359 41.449 35.7403L41.8734 35.6255C42.0172 35.5917 42.1454 35.5104 42.2373 35.3948C42.3293 35.2792 42.3796 35.1361 42.3803 34.9883L42.4281 33.763L42.3958 30.5615C42.3833 30.2757 42.3226 29.994 42.2165 29.7283C41.8076 28.7313 40.9098 28.3727 40.0431 28.4707C39.3892 28.5364 38.8178 28.797 38.2786 29.1736C38.1639 29.2549 38.0826 29.3529 38.0993 29.5167C38.2463 30.5627 38.1471 31.6088 38.1651 32.6536V34.925C38.1651 35.3338 38.3288 35.5299 38.7209 35.6279L39.4741 35.7917C39.5889 35.8084 39.6534 35.8574 39.6534 35.9878V36.1073C39.6367 36.5652 39.6056 36.5855 39.1465 36.5807C37.8399 36.515 36.5321 36.5329 35.2421 36.5807C34.7998 36.5974 34.764 36.5484 34.7843 36.1025C34.801 35.8395 34.8321 35.8252 35.0784 35.7762L35.6163 35.6781C36.0945 35.5801 36.2702 35.4008 36.3025 34.8939L36.3503 33.7989L36.3181 30.5149C36.2858 30.1061 36.1985 29.714 35.975 29.3386C35.6486 28.7337 35.1381 28.4241 34.4388 28.3906C33.7359 28.3428 33.1154 28.6034 32.5261 28.9285C32.1172 29.1676 31.9379 29.451 31.9702 29.9256V32.3105L31.9558 32.2962ZM62.7354 32.3954V34.699C62.738 34.8629 62.7488 35.0264 62.7677 35.1892C62.7747 35.2977 62.8167 35.4009 62.8874 35.4835C62.9581 35.5661 63.0537 35.6235 63.1598 35.647C63.4417 35.7292 63.7321 35.7786 64.0253 35.7941C64.1891 35.8108 64.2214 35.8754 64.2381 36.0069V36.1216C64.2214 36.6931 64.1568 36.7588 63.6009 36.7265C62.3576 36.6453 61.1179 36.6608 59.8758 36.7265L59.3977 36.7433C59.2996 36.7433 59.2781 36.6955 59.2506 36.6285C59.2029 36.4023 59.2029 36.1686 59.2506 35.9423C59.2674 35.8443 59.3319 35.8228 59.4299 35.7953C59.669 35.763 59.8723 35.714 60.0994 35.6757C60.5082 35.5777 60.6553 35.4127 60.6708 34.9895L60.7186 33.6172V29.598C60.7186 29.3039 60.6039 29.1246 60.3433 28.9931C60.0492 28.8293 59.7384 28.7158 59.4108 28.601C59.3128 28.5687 59.2148 28.5352 59.1335 28.4862C58.9207 28.3392 58.8944 28.1276 59.1012 27.9638C59.1939 27.8876 59.3079 27.8417 59.4275 27.8323C60.4736 27.6685 61.4861 27.4402 62.4664 27.0481C62.5812 27.0003 62.6302 27.0313 62.6792 27.1294C62.7282 27.2274 62.745 27.3422 62.727 27.4557L62.6792 28.2232C62.6792 28.3213 62.6314 28.4623 62.7115 28.5006C62.8095 28.5663 62.8753 28.4193 62.9566 28.381C63.4389 27.9764 63.9718 27.636 64.5417 27.3685C65.0486 27.1294 65.5698 26.9764 66.1592 27.0098C67.2542 27.0756 68.0385 27.6315 68.5441 28.595C68.8071 29.1019 68.9195 29.6566 68.9685 30.2292L69.0164 31.4247L69.0331 35.035C69.0498 35.3123 69.1479 35.4928 69.4252 35.5909C69.7127 35.6867 70.0079 35.7579 70.3074 35.8036C70.5704 35.8359 70.5848 35.8849 70.6015 36.13V36.2113C70.5693 36.7672 70.5358 36.7827 69.9799 36.7493C68.761 36.6839 67.5395 36.6839 66.3206 36.7493C66.1568 36.766 65.9942 36.7493 65.8424 36.766C65.7444 36.766 65.6786 36.7493 65.6631 36.6512C65.6308 36.4384 65.5973 36.2268 65.6463 35.9973C65.6631 35.8993 65.7121 35.8503 65.8257 35.8335L66.5788 35.714C66.8418 35.6482 66.9876 35.4749 67.0211 35.2358L67.0534 34.7779L67.0367 31.3637C67.0367 30.9716 67.0199 30.5795 66.9386 30.1874C66.7426 29.3505 66.1054 28.7528 65.2411 28.6691C64.4879 28.5878 63.8065 28.7839 63.1825 29.1915C62.8717 29.3876 62.7402 29.665 62.7402 30.008V32.4755C62.7402 32.4277 62.7402 32.4277 62.7569 32.4277L62.7354 32.3954Z" fill="#47474A"></path><path d="M110.585 27.7713C110.406 26.5783 109.964 25.5167 109.196 24.5854C108.527 23.7627 107.662 23.1221 106.68 22.7229C105.652 22.2985 104.555 22.167 103.445 22.1347C102.987 22.118 96.7466 22.216 96.2887 22.1347C96.174 22.118 96.0927 22.1515 96.0257 22.2495C95.9444 22.369 95.8619 22.4946 95.8129 22.6249C95.6169 23.0672 95.6169 23.0337 96.0903 23.0983C96.4824 23.164 96.8578 23.1963 97.2343 23.3111C97.5774 23.4258 97.8225 23.6219 97.9038 23.9973C97.9361 24.1766 97.9695 29.9268 97.9695 32.607L97.9038 34.5197C97.887 34.6668 97.8715 34.8138 97.8225 34.9441C97.7568 35.1402 97.6432 35.3028 97.4471 35.3864C97.2314 35.4879 96.9988 35.5487 96.7609 35.5658C96.3186 35.6136 96.254 35.6315 96.107 36.1216L96.0592 36.301C96.0269 36.5138 96.0425 36.546 96.2552 36.546L101.14 36.5939L103.053 36.5616L104.376 36.3978C105.879 36.1205 107.219 35.4988 108.362 34.503C109.015 33.9264 109.548 33.2269 109.93 32.4444C110.388 31.5299 110.584 30.5317 110.633 29.5203C110.714 28.9489 110.681 28.3607 110.585 27.7725V27.7713ZM108.216 30.0905C108.15 31.1366 107.938 32.1491 107.399 33.0637C106.713 34.2567 105.733 35.09 104.377 35.3828C103.789 35.5024 103.201 35.5622 102.584 35.4809C102.142 35.4331 101.719 35.3829 101.31 35.2358C100.574 34.9728 100.313 34.5185 100.297 33.8013L100.28 23.9506C100.28 23.3625 100.543 23.2334 100.967 23.2154C101.604 23.1676 102.258 23.1832 102.895 23.2477C103.573 23.3133 104.239 23.4743 104.872 23.7259C105.343 23.922 105.779 24.1924 106.163 24.5269C107.045 25.28 107.634 26.2244 107.956 27.3362C108.219 28.2352 108.267 29.1497 108.219 30.0642L108.216 30.0905ZM124.163 31.6925C124.163 31.5944 124.163 31.5131 124.147 31.4151C124 30.5161 123.525 29.8299 122.791 29.3075C122.318 28.9644 121.778 28.7361 121.222 28.5723C121.124 28.54 121.043 28.5066 120.945 28.491C120.962 28.4097 121.011 28.393 121.06 28.3762C121.386 28.2125 121.697 28.0331 121.974 27.7881C122.481 27.3637 122.811 26.8401 122.987 26.2029C123.085 25.8598 123.085 25.5167 123.053 25.1569C123.026 24.7359 122.905 24.3264 122.698 23.9586C122.492 23.5909 122.205 23.2743 121.86 23.0325C121.107 22.4766 120.225 22.2483 119.311 22.2316C117.546 22.1993 115.766 22.2316 114.003 22.2316C113.496 22.2316 112.991 22.2638 112.467 22.1837C112.369 22.167 112.228 22.1359 112.156 22.2495C112.037 22.4623 111.893 22.6739 111.845 22.919C111.829 23.0337 111.862 23.0983 111.992 23.115L113.12 23.2788C113.562 23.3445 113.873 23.5896 113.904 23.9817C113.936 24.2527 113.952 24.5254 113.952 24.7982L113.919 27.8526L113.903 33.8969C113.903 34.2555 113.855 34.5998 113.788 34.9585C113.772 35.0723 113.723 35.1791 113.648 35.2661C113.573 35.353 113.474 35.4164 113.364 35.4486C113.037 35.5466 112.726 35.6447 112.383 35.6447C112.292 35.636 112.2 35.6587 112.122 35.7091C112.045 35.7594 111.988 35.8345 111.959 35.922C111.893 36.069 111.839 36.2328 111.812 36.3799C111.78 36.5759 111.829 36.6429 112.025 36.619C112.172 36.6022 117.563 36.7337 118.576 36.6357C119.181 36.5699 119.771 36.4887 120.373 36.3093C121.401 35.983 122.35 35.5084 123.101 34.7074C123.722 34.0535 124.081 33.2693 124.113 32.3547C124.161 32.142 124.161 31.9304 124.161 31.7008L124.163 31.6925ZM116.24 24.9979L116.288 23.6912C116.288 23.4462 116.386 23.3326 116.631 23.2824C117.023 23.2011 117.415 23.2346 117.807 23.2501C118.199 23.2824 118.575 23.3314 118.967 23.4462C119.684 23.6589 120.241 24.0678 120.569 24.7528C120.717 25.0643 120.795 25.4047 120.797 25.7498C120.814 26.2077 120.78 26.6488 120.601 27.0887C120.323 27.6936 119.884 28.0857 119.245 28.2005C118.607 28.3153 116.794 28.2663 116.517 28.2663C116.272 28.2663 116.254 28.234 116.254 27.9889V26.4504C116.216 25.9719 116.21 25.4914 116.237 25.0122L116.24 24.9979ZM121.548 33.7869C121.27 34.5221 120.763 35.0302 120.045 35.3051C119.653 35.4522 119.261 35.5442 118.849 35.5179C118.343 35.5012 117.837 35.5179 117.331 35.4199C116.645 35.2729 116.334 34.6189 116.285 34.1455C116.204 33.3123 116.253 32.4623 116.237 31.8419V29.6853C116.237 29.4223 116.27 29.3422 116.548 29.3422L118.084 29.3589L119.13 29.4785C119.866 29.6422 120.535 29.9208 121.059 30.491C121.483 30.9489 121.713 31.5036 121.762 32.1085C121.809 32.6799 121.778 33.2358 121.566 33.775L121.548 33.7869Z" fill="#C2BFBF"></path><path d="M80.0368 28.8652L80.4612 28.931C80.9191 28.9477 81.4582 28.7839 81.6208 28.1467C81.7105 27.8424 81.7105 27.5186 81.6208 27.2143C81.5228 27.2143 81.4738 27.2956 81.4248 27.329C81.1797 27.5251 80.9023 27.6399 80.6083 27.6721C80.0201 27.7379 79.4319 27.7044 78.8605 27.4928L78.0595 27.2155C77.5009 27.0325 76.913 26.9555 76.3261 26.9883C75.4929 27.0541 74.7087 27.3314 73.9734 27.7235C73.1892 28.1479 72.6345 28.7851 72.3715 29.6518C72.2245 30.1587 72.2078 30.6799 72.2735 31.2035C72.4373 32.3966 73.0577 33.2298 74.1683 33.671C74.2341 33.6877 74.2831 33.7188 74.3476 33.7367C74.4947 33.818 74.5114 33.9005 74.3799 34.0141L73.9711 34.2914L72.9908 34.8963C72.7457 35.0434 72.7134 35.1593 72.7947 35.4187C72.892 35.7239 73.073 35.9956 73.3171 36.203C73.5413 36.3953 73.7953 36.5499 74.0691 36.6608C74.2484 36.7421 74.2484 36.7804 74.0858 36.9238L73.1534 37.5933C72.8425 37.8324 72.5317 38.0715 72.2711 38.3775C72.0899 38.5714 71.9593 38.8071 71.8909 39.0636C71.8225 39.3201 71.8184 39.5895 71.879 39.8479C72.0005 40.415 72.2975 40.9295 72.7278 41.3183C73.1526 41.7117 73.6693 41.9924 74.2305 42.1348C75.145 42.3978 76.093 42.4122 77.0243 42.2329C78.3632 41.9878 79.5347 41.396 80.4552 40.3871C81.0924 39.7176 81.4678 38.9334 81.5013 37.9961C81.5369 37.4541 81.3792 36.917 81.0561 36.4803C80.733 36.0436 80.2655 35.7356 79.7368 35.6112L78.8545 35.4474L76.1588 35.2083C75.8647 35.1916 75.5706 35.1426 75.3255 34.9955C75.0147 34.7995 74.9334 34.4241 75.1295 34.179C75.2765 33.9997 75.4558 33.885 75.6853 33.8682L76.2078 33.8204C77.2409 33.7153 78.2108 33.2734 78.9681 32.5628C79.3724 32.1885 79.6615 31.7066 79.8013 31.1736C79.9974 30.4707 79.9974 29.7391 79.8336 29.0218C79.7858 28.8425 79.8013 28.8258 80.0297 28.858L80.0368 28.8652ZM76.032 37.0027C76.1301 37.0195 76.2281 37.0027 76.3261 37.0027C77.0123 37.035 77.7152 37.084 78.3847 37.2657C78.6033 37.3303 78.8164 37.4123 79.0219 37.5108C79.6758 37.8694 79.9209 38.4911 79.8384 39.1605C79.7404 39.8957 79.3315 40.4182 78.6943 40.7624C78.2699 41.0015 77.7953 41.1055 77.3052 41.1546C77.1259 41.1713 76.9621 41.1546 76.7828 41.1546C76.2113 41.1713 75.6555 41.1067 75.1163 40.8772C74.7409 40.7302 74.4301 40.5186 74.1528 40.2233C73.5813 39.6519 73.3159 38.6058 74.1695 37.7559C74.6919 37.2777 75.2813 36.9394 76.032 37.0027ZM77.8946 31.9053C77.5515 32.7708 76.7995 33.0326 76.0488 32.9178C75.3626 32.8198 74.8557 32.4444 74.5305 31.8228C74.1061 30.9895 73.9926 30.1252 74.2364 29.225C74.4158 28.5556 74.8246 28.0487 75.5431 27.9339C76.4576 27.7702 77.3363 28.0977 77.7977 29.0122C78.0368 29.4546 78.1408 29.9925 78.1408 30.76C78.1241 31.0708 78.0595 31.4952 77.8958 31.9041L77.8946 31.9053ZM57.3111 30.7935C57.164 29.9112 56.8377 29.1103 56.2328 28.4408C55.3338 27.4438 54.1909 27.0063 52.8998 27.0027C51.7725 26.9859 50.7121 27.3135 49.7629 27.9017C48.8298 28.4601 48.1458 29.3545 47.8514 30.4014C47.5741 31.3494 47.5884 32.3141 47.8036 33.2765C48.375 35.8587 50.369 36.9681 52.7528 36.8055C53.4557 36.7576 54.1252 36.5281 54.7612 36.2173C55.7092 35.775 56.3954 35.0732 56.8688 34.142C57.2441 33.3745 57.4067 32.5568 57.3912 31.6255L57.3099 30.7923L57.3111 30.7935ZM54.9919 34.4205C54.8751 34.7881 54.6536 35.1137 54.3547 35.3574C54.0558 35.6011 53.6923 35.7525 53.3087 35.7929C52.5914 35.8909 51.9196 35.7116 51.3158 35.286C50.88 34.9654 50.5271 34.5453 50.2866 34.0607C49.6171 32.6883 49.5023 31.2513 49.8442 29.7809C49.9543 29.3259 50.1924 28.9118 50.5304 28.5879C51.1353 28.032 51.8371 27.9017 52.6225 28.0654C53.3756 28.2292 53.9459 28.6369 54.4157 29.2585C54.8855 29.8802 55.1019 30.5974 55.2322 31.3506C55.2979 31.7259 55.2979 32.1181 55.3135 32.3631C55.3135 33.1474 55.2477 33.7977 55.0027 34.4217L54.9919 34.4205ZM93.0076 30.925C92.8881 29.977 92.5342 29.1115 91.8635 28.393C90.9813 27.4295 89.8372 27.0206 88.5641 27.0039C87.469 26.9871 86.4565 27.298 85.5252 27.8371C84.4792 28.4587 83.7607 29.3398 83.4833 30.5329C83.1521 31.8345 83.291 33.2113 83.8755 34.4205C84.4134 35.5646 85.3291 36.2998 86.539 36.6261C87.8779 36.9848 89.1534 36.8222 90.3943 36.2173C91.4726 35.6949 92.2401 34.8784 92.6812 33.7666C92.9442 33.1127 93.0399 32.4109 93.0566 31.5933C93.0734 31.4462 93.0399 31.1844 93.0088 30.9238L93.0076 30.925ZM90.753 34.2089C90.49 35.0912 89.9365 35.6626 89.0052 35.7941C88.319 35.8921 87.6663 35.7284 87.0769 35.3362C86.57 34.9931 86.2114 34.5353 85.9496 33.9973C85.6555 33.4259 85.4917 32.821 85.4272 32.2005C85.3291 31.4331 85.3291 30.6823 85.5085 29.9136C85.5427 29.7621 85.5919 29.6143 85.6555 29.4725C86.1134 28.3284 87.1259 27.806 88.319 28.0678C89.12 28.2472 89.7237 28.6895 90.1815 29.3589C90.6238 30.0129 90.8354 30.7313 90.9347 31.5108C90.9825 31.8216 91.0004 32.1479 90.9825 32.4253C90.9825 33.0625 90.9347 33.6506 90.7434 34.2221L90.753 34.2089Z" fill="#47474A"></path></g><defs><clipPath id="clip0_1410_12636"><rect width="124.098" height="48" fill="white" transform="translate(0.169922)"></rect></clipPath></defs></svg>