<svg xmlns="http://www.w3.org/2000/svg" width="89" height="88" viewBox="0 0 89 88" fill="none"><g clip-path="url(#clip0_1278_12107)"><path d="M31.6081 35.0571L22.6119 40.0346C22.2745 40.2197 22.0674 40.5644 22.0674 40.9366V50.8971C22.0674 51.2692 22.2745 51.6121 22.6119 51.7991L31.6099 56.7802C31.9454 56.9654 32.3615 56.9654 32.6971 56.7802L41.6932 51.7991C42.0269 51.6121 42.234 51.2692 42.234 50.8971V40.9366C42.234 40.5644 42.0269 40.2216 41.6895 40.0346L32.6952 35.0571C32.5266 34.9636 32.3377 34.9177 32.1507 34.9177C31.9619 34.9177 31.7749 34.9636 31.6062 35.0571M77.8942 44.0239L76.3945 44.8526C76.3377 44.8837 76.3047 44.9406 76.3047 45.0029V46.6639C76.3047 46.7262 76.3395 46.7831 76.3945 46.8142L77.8942 47.6447C77.951 47.6759 78.0189 47.6759 78.0757 47.6447L79.5754 46.8142C79.6304 46.7831 79.6652 46.7262 79.6652 46.6639V45.0029C79.6652 44.9406 79.6304 44.8837 79.5735 44.8526L78.0739 44.0239C78.0464 44.0074 78.0152 44.0001 77.984 44.0001C77.9529 44.0001 77.9217 44.0074 77.8942 44.0239Z" fill="#388E3C"></path><path d="M65.6106 24.5007L61.2307 22.0569C61.0932 21.9799 60.9246 21.9817 60.7889 22.0624C60.6532 22.1431 60.5689 22.2879 60.5689 22.4456L60.5671 37.2076L56.5282 34.9727C56.3596 34.8792 56.1707 34.8334 55.9837 34.8334C55.7967 34.8334 55.6079 34.8792 55.4392 34.9727H55.4411L46.4449 39.9502C46.1076 40.1354 45.9004 40.4801 45.9004 40.8504V50.8109C45.9004 51.1831 46.1076 51.5259 46.4449 51.7129L55.4429 56.6941C55.7784 56.8792 56.1946 56.8792 56.5301 56.6941L65.5262 51.7129C65.8599 51.5277 66.0671 51.1831 66.0671 50.8109V25.2781C66.0671 24.9554 65.8911 24.6584 65.6106 24.5007ZM60.3214 48.5064L56.2331 50.7706C56.0809 50.8549 55.8921 50.8549 55.7399 50.7706L51.6497 48.5064C51.4939 48.4221 51.4004 48.2644 51.4004 48.0957V43.5674C51.4004 43.3987 51.4939 43.2429 51.6479 43.1567L55.7381 40.8944C55.8151 40.8522 55.8976 40.8321 55.9837 40.8321C56.0699 40.8321 56.1542 40.8541 56.2312 40.8944L60.3196 43.1567C60.4736 43.2429 60.5671 43.4006 60.5671 43.5692V48.0976C60.5671 48.2644 60.4736 48.4221 60.3214 48.5064Z" fill="#37474F"></path><path d="M31.6081 35.0571L22.0674 50.8971C22.0674 51.2692 22.2745 51.6121 22.6119 51.7991L31.6099 56.7802C31.9454 56.9654 32.3616 56.9654 32.6971 56.7802L42.2341 40.9366C42.2341 40.5644 42.0269 40.2216 41.6896 40.0346L32.6952 35.0571C32.5266 34.9636 32.3377 34.9177 32.1507 34.9177C31.9619 34.9177 31.7749 34.9636 31.6062 35.0571" fill="#2E7D32"></path><path d="M31.6081 35.0571L22.6119 40.0346C22.2745 40.2197 22.0674 40.5644 22.0674 40.9366L31.6081 56.7802C31.9436 56.9654 32.3597 56.9654 32.6952 56.7802L41.6914 51.7991C42.0269 51.6121 42.2341 51.2692 42.2341 50.8971L32.6952 35.0571C32.5266 34.9636 32.3377 34.9177 32.1507 34.9177C31.9619 34.9177 31.7749 34.9636 31.6062 35.0571" fill="#4CAF50"></path><path d="M87.5229 39.9502L78.5285 34.9727C78.3599 34.8792 78.1711 34.8334 77.9841 34.8334C77.7971 34.8334 77.6082 34.8792 77.4396 34.9727L68.4452 39.9502C68.1097 40.1354 67.9007 40.4874 67.9007 40.8724V50.7925C67.9007 51.1757 68.1097 51.5295 68.4452 51.7147L77.4432 56.6959C77.7806 56.8829 78.1931 56.8829 78.5304 56.6959L82.6792 54.3987C83.0587 54.1879 83.0569 53.6434 82.6755 53.4344L73.6482 48.5082C73.496 48.422 73.4007 48.2625 73.4007 48.0902V43.5692C73.4007 43.4005 73.4924 43.2447 73.6391 43.164L77.7366 40.898H77.7347C77.8117 40.8559 77.896 40.8357 77.9822 40.8357C78.0684 40.8357 78.1527 40.8577 78.2297 40.898L82.3272 43.1659C82.4739 43.2465 82.5656 43.4024 82.5656 43.571V47.2597C82.5656 47.4174 82.6499 47.564 82.7874 47.6429C82.9249 47.7199 83.0936 47.7199 83.231 47.641L87.6274 45.0872C87.8987 44.9295 88.0674 44.638 88.0674 44.3227V40.876C88.0674 40.4892 87.8584 40.1354 87.5229 39.9502ZM19.6896 39.9502L10.6952 34.9727C10.5265 34.8792 10.3377 34.8334 10.1507 34.8334C9.96372 34.8334 9.77488 34.8792 9.60622 34.9727L0.611883 39.9502C0.276383 40.1354 0.0673828 40.4874 0.0673828 40.8724V54.5582C0.0673828 54.7159 0.151716 54.8625 0.289216 54.9414C0.426716 55.0184 0.595383 55.0184 0.732883 54.9395L5.12922 52.3857C5.40055 52.228 5.56738 51.9365 5.56738 51.6212V43.5674C5.56738 43.3987 5.65905 43.2429 5.80572 43.1622L9.90322 40.8962C9.98022 40.854 10.0645 40.8339 10.1507 40.8339C10.2369 40.8339 10.3212 40.8559 10.3982 40.8962L14.4957 43.164C14.6424 43.2447 14.734 43.4005 14.734 43.5692V51.623C14.734 51.9384 14.9009 52.2299 15.174 52.3875L19.5704 54.9414C19.7079 55.0202 19.8766 55.0202 20.014 54.9432C20.1497 54.8625 20.2341 54.7159 20.2341 54.5582V40.8742C20.2341 40.4892 20.025 40.1354 19.6896 39.9502Z" fill="#37474F"></path></g><defs><clipPath id="clip0_1278_12107"><rect width="88" height="88" fill="white" transform="translate(0.0673828)"></rect></clipPath></defs></svg>