<svg xmlns="http://www.w3.org/2000/svg" width="215" height="28" viewBox="0 0 215 28" fill="none"><g clip-path="url(#clip0_1410_12692)"><path d="M92.4212 18.0968H106.56L99.084 6.0689L85.3627 27.8157H79.1183L95.8076 1.69296C96.5331 0.637731 97.7425 0 99.084 0C100.381 0 101.591 0.615582 102.294 1.64907L119.05 27.8157H112.805L109.859 22.9562H95.5443L92.4217 18.0968H92.4212ZM157.288 22.9558V0.263701H151.989V25.177C151.989 25.8586 152.253 26.5185 152.758 27.0242C153.264 27.5299 153.946 27.8157 154.693 27.8157H178.859L181.982 22.9562H157.288L157.288 22.9558ZM69.6188 18.8879C74.7645 18.8879 78.9424 14.7322 78.9424 9.58687C78.9424 4.44113 74.7645 0.263284 69.6188 0.263284H46.4361V27.8161H51.7335V5.12358H69.2673C71.7301 5.12358 73.7089 7.12496 73.7089 9.5877C73.7089 12.05 71.7301 14.051 69.2673 14.051L54.3283 14.0293L70.1466 27.8161H77.8428L67.2003 18.8887H69.6192L69.6188 18.8879ZM13.8273 27.8157C6.22137 27.8161 0.0488281 21.659 0.0488281 14.051C0.0488281 6.44251 6.22137 0.264119 13.8273 0.264119H29.8417C37.4493 0.264119 43.6172 6.44251 43.6172 14.051C43.6172 21.659 37.4493 27.8157 29.8412 27.8157H13.8273ZM29.4856 22.9562C34.4132 22.9562 38.4042 18.9761 38.4042 14.0506C38.4042 9.12549 34.4132 5.12358 29.4856 5.12358H14.1817C9.25581 5.12358 5.26268 9.12549 5.26268 14.051C5.26268 18.9761 9.25581 22.9562 14.1813 22.9562H29.4852H29.4856ZM130.11 27.8157C122.502 27.8157 116.323 21.659 116.323 14.051C116.323 6.44251 122.502 0.264119 130.11 0.264119H149.131L146.03 5.12358H130.462C125.536 5.12358 121.535 9.12549 121.535 14.051C121.535 18.9761 125.536 22.9562 130.462 22.9562H149.57L146.447 27.8157H130.11ZM194.911 22.9562C190.843 22.9562 187.391 20.2298 186.336 16.4694H208.984L212.106 11.61H186.336C187.391 7.87176 190.843 5.12358 194.911 5.12358H210.458L213.601 0.263284H194.559C186.951 0.263284 180.772 6.44209 180.772 14.0501C180.772 21.6586 186.951 27.8153 194.559 27.8153H210.897L214.019 22.9562H194.911H194.911Z" fill="#EA1B22"></path></g><defs><clipPath id="clip0_1410_12692"><rect width="214.067" height="28" fill="white"></rect></clipPath></defs></svg>