<svg xmlns="http://www.w3.org/2000/svg" width="57" height="56" viewBox="0 0 57 56" fill="none"><path d="M28.0677 39.6667C13.0177 39.6667 1.23438 34.5334 1.23438 28C1.23438 21.4667 13.0177 16.3334 28.0677 16.3334C43.1177 16.3334 54.901 21.4667 54.901 28C54.901 34.5334 43.1177 39.6667 28.0677 39.6667ZM28.0677 18.6667C13.3677 18.6667 3.56771 23.45 3.56771 28C3.56771 32.55 13.3677 37.3334 28.0677 37.3334C42.7677 37.3334 52.5677 32.55 52.5677 28C52.5677 23.45 42.7677 18.6667 28.0677 18.6667Z" fill="#80DEEA"></path><path d="M17.6842 52.0334C16.5176 52.0334 15.5842 51.8 14.6509 51.2167C8.93422 47.95 10.4509 35.2334 17.9176 22.1667C21.4176 16.1 25.7342 10.9667 29.9342 7.70004C34.4842 4.20004 38.5676 3.15004 41.3676 4.78337C44.2842 6.4167 45.3342 10.5 44.6342 16.2167C43.9342 21.5834 41.6009 27.8834 38.1009 33.95C34.6009 40.0167 30.2842 45.15 26.0842 48.4167C23.0509 50.75 20.1342 52.0334 17.6842 52.0334ZM38.4509 6.30004C36.5842 6.30004 34.1342 7.35004 31.4509 9.45004C27.4842 12.6 23.4009 17.5 20.0176 23.3334C12.6676 36.05 11.9676 47.0167 15.8176 49.2334C17.8009 50.4 21.0676 49.35 24.6842 46.55C28.6509 43.4 32.7342 38.5 36.1176 32.6667C39.5009 26.8334 41.7176 20.8834 42.4176 15.8667C43.0009 11.2 42.3009 7.93337 40.3176 6.7667C39.7342 6.53337 39.1509 6.30004 38.4509 6.30004Z" fill="#80DEEA"></path><path d="M38.5674 52.0333C32.734 52.0333 24.334 44.9166 18.034 33.8333C10.4507 20.7666 8.93403 8.04996 14.6507 4.78329C20.3674 1.51663 30.634 9.09996 38.2174 22.1666C41.7174 28.2333 44.0507 34.5333 44.7507 39.9C45.5674 45.6166 44.4007 49.5833 41.484 51.3333C40.5507 51.8 39.6174 52.0333 38.5674 52.0333ZM15.8174 6.76663C11.9674 8.98329 12.6674 19.95 20.0174 32.6666C27.3674 45.3833 36.4674 51.45 40.3174 49.2333C42.3007 48.0666 43.0007 44.8 42.4174 40.1333C41.7174 35.1166 39.5007 29.1666 36.1174 23.3333C28.7674 10.6166 19.6674 4.54996 15.8174 6.76663Z" fill="#80DEEA"></path><path d="M28.0671 32.6667C30.6444 32.6667 32.7337 30.5774 32.7337 28C32.7337 25.4227 30.6444 23.3334 28.0671 23.3334C25.4897 23.3334 23.4004 25.4227 23.4004 28C23.4004 30.5774 25.4897 32.6667 28.0671 32.6667Z" fill="#80DEEA"></path></svg>