<svg xmlns="http://www.w3.org/2000/svg" width="32" height="22" viewBox="0 0 32 22" fill="none"><g clip-path="url(#clip0_2_883)"><path d="M1.75652 0H30.2377C31.2058 0 31.9942 0.779167 31.9942 1.73594V20.2583C31.9942 21.2151 31.2058 21.9943 30.2377 21.9943H1.75652C0.788406 22 0 21.2208 0 20.2641V1.73594C0 0.779167 0.788406 0 1.75652 0Z" fill="#B22234"></path><path d="M0.0115942 1.56396H31.9942C32 1.62126 32.0058 1.67855 32.0058 1.74157V3.42594H0V1.73584C0 1.67855 0.0057971 1.62126 0.0115942 1.56396ZM32 4.96709V6.82334H0V4.96709H32ZM32 8.37021V10.2265H0V8.37021H32ZM32 11.7733V13.6296H0V11.7733H32ZM32 15.1765V17.0327H0V15.1765H32ZM32 18.5796V20.2582C32 20.3155 31.9942 20.3785 31.9884 20.4358H0.0115942C0.0057971 20.3843 0 20.3213 0 20.264V18.5853H32V18.5796Z" fill="white"></path><path d="M12.058 0V11.8479H0V1.73594C0 0.779167 0.788406 0 1.75652 0H12.058Z" fill="#3C3B6E"></path><path d="M0.713056 1.63843L1.11306 2.8702L0.0579834 2.10822H1.36813L0.307259 2.8702L0.713056 1.63843Z" fill="white"></path><path d="M0.713056 4.02197L1.11306 5.25374L0.0579834 4.49176H1.36813L0.307259 5.25374L0.713056 4.02197Z" fill="white"></path><path d="M0.713056 6.40527L1.11306 7.63704L0.0579834 6.87506H1.36813L0.307259 7.63704L0.713056 6.40527Z" fill="white"></path><path d="M0.713056 8.78857L1.11306 10.0203L0.0579834 9.25837H1.36813L0.307259 10.0203L0.713056 8.78857Z" fill="white"></path><path d="M2.12748 0.446777L2.53328 1.67855L1.47241 0.916569H2.78835L1.72169 1.67855L2.12748 0.446777Z" fill="white"></path><path d="M2.12748 2.83032L2.53328 4.06209L1.47241 3.30011H2.78835L1.72169 4.06209L2.12748 2.83032Z" fill="white"></path><path d="M2.12748 5.21362L2.53328 6.44539L1.47241 5.68341H2.78835L1.72169 6.44539L2.12748 5.21362Z" fill="white"></path><path d="M2.12748 7.59692L2.53328 8.82869L1.47241 8.06672H2.78835L1.72169 8.82869L2.12748 7.59692Z" fill="white"></path><path d="M2.12748 9.98022L2.53328 11.212L1.47241 10.45H2.78835L1.72169 11.212L2.12748 9.98022Z" fill="white"></path><path d="M3.54777 1.63843L3.95357 2.8702L2.8927 2.10822H4.20285L3.14198 2.8702L3.54777 1.63843Z" fill="white"></path><path d="M3.54777 4.02197L3.95357 5.25374L2.8927 4.49176H4.20285L3.14198 5.25374L3.54777 4.02197Z" fill="white"></path><path d="M3.54777 6.40527L3.95357 7.63704L2.8927 6.87506H4.20285L3.14198 7.63704L3.54777 6.40527Z" fill="white"></path><path d="M3.54777 8.78857L3.95357 10.0203L2.8927 9.25837H4.20285L3.14198 10.0203L3.54777 8.78857Z" fill="white"></path><path d="M4.96806 0.446777L5.36806 1.67855L4.31299 0.916569H5.62313L4.56226 1.67855L4.96806 0.446777Z" fill="white"></path><path d="M4.96806 2.83032L5.36806 4.06209L4.31299 3.30011H5.62313L4.56226 4.06209L4.96806 2.83032Z" fill="white"></path><path d="M4.96806 5.21362L5.36806 6.44539L4.31299 5.68341H5.62313L4.56226 6.44539L4.96806 5.21362Z" fill="white"></path><path d="M4.96806 7.59692L5.36806 8.82869L4.31299 8.06672H5.62313L4.56226 8.82869L4.96806 7.59692Z" fill="white"></path><path d="M4.96806 9.98022L5.36806 11.212L4.31299 10.45H5.62313L4.56226 11.212L4.96806 9.98022Z" fill="white"></path><path d="M6.38261 1.63843L6.78841 2.8702L5.72754 2.10822H7.03768L5.97681 2.8702L6.38261 1.63843Z" fill="white"></path><path d="M6.38261 4.02197L6.78841 5.25374L5.72754 4.49176H7.03768L5.97681 5.25374L6.38261 4.02197Z" fill="white"></path><path d="M6.38261 6.40527L6.78841 7.63704L5.72754 6.87506H7.03768L5.97681 7.63704L6.38261 6.40527Z" fill="white"></path><path d="M6.38261 8.78857L6.78841 10.0203L5.72754 9.25837H7.03768L5.97681 10.0203L6.38261 8.78857Z" fill="white"></path><path d="M7.8029 0.446777L8.2087 1.67855L7.14783 0.916569H8.45797L7.3971 1.67855L7.8029 0.446777Z" fill="white"></path><path d="M7.8029 2.83032L8.2087 4.06209L7.14783 3.30011H8.45797L7.3971 4.06209L7.8029 2.83032Z" fill="white"></path><path d="M7.8029 5.21362L8.2087 6.44539L7.14783 5.68341H8.45797L7.3971 6.44539L7.8029 5.21362Z" fill="white"></path><path d="M7.8029 7.59692L8.2087 8.82869L7.14783 8.06672H8.45797L7.3971 8.82869L7.8029 7.59692Z" fill="white"></path><path d="M7.8029 9.98022L8.2087 11.212L7.14783 10.45H8.45797L7.3971 11.212L7.8029 9.98022Z" fill="white"></path><path d="M9.21745 1.63843L9.62325 2.8702L8.56238 2.10822H9.87252L8.81745 2.8702L9.21745 1.63843Z" fill="white"></path><path d="M9.21745 4.02197L9.62325 5.25374L8.56238 4.49176H9.87252L8.81745 5.25374L9.21745 4.02197Z" fill="white"></path><path d="M9.21745 6.40527L9.62325 7.63704L8.56238 6.87506H9.87252L8.81745 7.63704L9.21745 6.40527Z" fill="white"></path><path d="M9.21745 8.78857L9.62325 10.0203L8.56238 9.25837H9.87252L8.81745 10.0203L9.21745 8.78857Z" fill="white"></path><path d="M10.6377 0.446777L11.0435 1.67855L9.98267 0.916569H11.2928L10.2319 1.67855L10.6377 0.446777Z" fill="white"></path><path d="M10.6377 2.83032L11.0435 4.06209L9.98267 3.30011H11.2928L10.2319 4.06209L10.6377 2.83032Z" fill="white"></path><path d="M10.6377 5.21362L11.0435 6.44539L9.98267 5.68341H11.2928L10.2319 6.44539L10.6377 5.21362Z" fill="white"></path><path d="M10.6377 7.59692L11.0435 8.82869L9.98267 8.06672H11.2928L10.2319 8.82869L10.6377 7.59692Z" fill="white"></path><path d="M10.6377 9.98022L11.0435 11.212L9.98267 10.45H11.2928L10.2319 11.212L10.6377 9.98022Z" fill="white"></path></g><defs><clipPath id="clip0_2_883"><rect width="32" height="22" fill="white"></rect></clipPath></defs></svg>