<svg xmlns="http://www.w3.org/2000/svg" width="56" height="56" viewBox="0 0 56 56" fill="none"><path d="M37.3334 49V44.3333C37.3334 41.858 36.35 39.484 34.5997 37.7337C32.8493 35.9833 30.4754 35 28 35H14C11.5247 35 9.1507 35.9833 7.40036 37.7337C5.65002 39.484 4.66669 41.858 4.66669 44.3333V49" stroke="white" stroke-width="4" stroke-linecap="round" stroke-linejoin="round"></path><path d="M21 25.6667C26.1547 25.6667 30.3334 21.488 30.3334 16.3333C30.3334 11.1787 26.1547 7 21 7C15.8454 7 11.6667 11.1787 11.6667 16.3333C11.6667 21.488 15.8454 25.6667 21 25.6667Z" stroke="white" stroke-width="4" stroke-linecap="round" stroke-linejoin="round"></path><path d="M51.3333 49V44.3333C51.3318 42.2654 50.6435 40.2565 49.3765 38.6221C48.1095 36.9877 46.3356 35.8203 44.3333 35.3033" stroke="white" stroke-width="4" stroke-linecap="round" stroke-linejoin="round"></path><path d="M37.3333 7.30334C39.3409 7.81738 41.1204 8.98498 42.3911 10.6221C43.6619 12.2592 44.3516 14.2726 44.3516 16.345C44.3516 18.4174 43.6619 20.4309 42.3911 22.068C41.1204 23.705 39.3409 24.8726 37.3333 25.3867" stroke="white" stroke-width="4" stroke-linecap="round" stroke-linejoin="round"></path></svg>