<svg xmlns="http://www.w3.org/2000/svg" width="32" height="32" viewBox="0 0 32 32" fill="none"><path d="M27.26 27.2701H22.527V19.8434C22.527 18.0724 22.49 15.7965 20.052 15.7965C17.584 15.7965 17.208 17.7174 17.208 19.7124V27.2691H12.469V11.9986H17.021V14.0816H17.082C17.718 12.8786 19.265 11.6136 21.573 11.6136C26.374 11.6136 27.265 14.7745 27.265 18.8844V27.2691L27.26 27.2701ZM7.115 9.91169C6.75328 9.91182 6.39508 9.84059 6.06093 9.70208C5.72677 9.56357 5.42323 9.3605 5.16769 9.10449C4.91214 8.84849 4.70961 8.54459 4.5717 8.2102C4.43379 7.8758 4.36321 7.51749 4.364 7.15578C4.36459 6.61134 4.52661 6.07931 4.82956 5.62695C5.13251 5.17459 5.5628 4.82221 6.06601 4.61436C6.56923 4.40652 7.12277 4.35255 7.65666 4.45927C8.19054 4.566 8.6808 4.82862 9.06543 5.21394C9.45006 5.59926 9.71181 6.08998 9.81756 6.62404C9.92332 7.1581 9.86834 7.71153 9.65958 8.21435C9.45081 8.71717 9.09764 9.1468 8.64472 9.44892C8.19179 9.75104 7.65945 9.91209 7.115 9.91169V9.91169ZM9.489 27.2701H4.74V11.9996H9.489V27.2701ZM29.636 0H2.36C1.057 0 0 1.03097 0 2.30693V29.6931C0 30.969 1.057 32 2.36 32H29.631C30.932 32 32 30.969 32 29.6931V2.30693C32 1.03097 30.932 0 29.631 0H29.636Z" fill="white"></path></svg>